<?xml version="1.0" encoding="UTF-8" ?>
<!DOCTYPE svg PUBLIC "-//W3C//DTD SVG 1.1//EN" "http://www.w3.org/Graphics/SVG/1.1/DTD/svg11.dtd">
<svg width="800pt" height="600pt" viewBox="0 0 800 600" version="1.1" xmlns="http://www.w3.org/2000/svg">
<path fill="#ffffff" d=" M 0.00 0.00 L 800.00 0.00 L 800.00 600.00 L 0.00 600.00 L 0.00 0.00 Z" />
<path fill="#06060b" d=" M 138.63 17.70 C 138.97 17.36 139.63 16.69 139.96 16.35 C 146.18 20.64 154.10 20.68 161.06 23.11 C 168.83 25.35 176.32 28.47 184.16 30.45 C 189.23 31.45 193.85 33.95 198.93 34.93 C 207.70 36.76 216.46 38.87 224.84 42.09 C 233.39 45.46 242.70 46.76 250.86 51.15 C 253.27 52.69 256.27 52.09 258.83 53.20 C 269.34 57.29 279.91 61.22 290.43 65.27 C 296.55 68.49 303.33 70.21 309.43 73.47 C 311.44 74.56 313.52 75.55 315.76 76.09 C 331.49 80.58 345.50 89.31 360.73 95.09 C 369.11 98.36 376.59 103.46 384.80 107.10 C 391.33 110.02 397.40 113.81 403.44 117.61 C 407.93 120.10 412.73 122.11 416.81 125.30 C 428.39 133.94 441.97 139.62 452.83 149.26 C 456.46 152.57 460.88 155.19 463.39 159.56 C 466.89 163.65 471.33 167.07 473.91 171.90 C 476.69 178.91 482.49 184.37 484.46 191.76 C 486.77 197.62 487.34 203.93 488.34 210.10 C 489.20 216.38 490.27 222.66 490.11 229.02 C 489.93 237.82 490.79 246.87 488.08 255.40 C 483.75 254.59 480.08 251.91 475.76 251.12 C 472.83 250.54 470.31 248.86 467.55 247.84 C 465.47 247.85 464.43 245.00 466.30 243.85 C 465.62 238.47 468.15 233.41 468.14 228.05 C 468.46 217.86 468.33 207.05 463.42 197.82 C 460.42 192.46 458.40 186.44 454.01 181.98 C 449.26 176.08 442.99 171.67 438.15 165.87 C 430.64 160.04 423.35 153.90 415.61 148.36 C 411.08 145.16 406.26 142.39 401.81 139.07 C 395.31 134.32 387.68 131.47 380.85 127.27 C 372.96 121.54 363.38 118.84 355.15 113.68 C 348.24 110.74 341.27 107.95 334.52 104.64 C 327.51 101.22 319.43 100.57 312.80 96.30 C 300.76 91.58 288.99 86.21 277.10 81.09 C 267.71 77.90 258.50 74.23 249.03 71.28 C 243.73 69.58 238.23 68.56 232.94 66.83 C 229.91 65.84 227.14 64.13 223.96 63.61 C 215.08 61.78 206.38 58.83 197.29 58.28 L 196.94 56.58 C 196.81 56.86 196.55 57.41 196.42 57.68 C 205.28 65.47 211.52 75.70 219.49 84.33 C 235.20 101.05 251.01 117.69 266.90 134.24 C 272.71 138.66 278.74 142.92 283.84 148.17 C 286.53 150.45 289.88 152.04 291.83 155.11 C 290.09 156.23 288.04 156.52 286.01 156.44 C 277.98 156.24 269.88 156.28 261.95 157.63 C 259.16 155.87 255.92 153.96 255.21 150.45 C 245.05 142.46 236.88 132.35 227.56 123.45 C 220.49 115.82 214.10 107.64 206.80 100.22 C 199.05 91.27 190.27 83.24 183.13 73.77 C 179.36 66.59 173.21 61.08 168.09 54.90 C 161.10 49.04 156.76 40.84 150.64 34.18 C 146.66 29.90 143.87 24.37 138.91 21.11 C 138.82 19.97 138.73 18.83 138.63 17.70 Z" />
<path fill="#06060b" d=" M 494.80 138.21 C 498.81 134.95 504.26 135.65 509.06 135.29 C 512.00 135.02 514.23 137.34 516.81 138.33 C 519.56 139.37 520.90 142.21 523.17 143.92 C 526.39 150.43 527.74 157.71 527.67 164.94 C 527.21 171.69 522.68 177.03 519.83 182.90 C 515.46 190.65 507.30 194.64 500.20 199.40 C 497.54 201.47 493.75 202.81 490.91 200.28 C 489.71 194.76 486.67 189.95 484.81 184.68 C 493.13 181.99 500.16 176.03 504.84 168.71 C 500.68 169.30 495.60 169.94 492.47 166.46 C 488.95 162.60 485.60 157.56 486.72 152.07 C 488.03 146.86 490.22 141.37 494.80 138.21 Z" />
<path fill="#06060b" d=" M 317.09 159.74 C 330.75 158.72 344.44 159.79 358.03 161.21 C 372.28 161.79 386.06 165.77 400.02 168.36 C 410.50 170.35 421.42 172.46 430.32 178.72 C 434.63 182.12 439.47 184.94 443.08 189.16 C 441.57 191.52 438.98 192.92 436.37 193.71 C 432.30 194.99 428.28 196.42 424.25 197.82 C 420.39 196.77 417.11 194.43 413.54 192.73 C 407.47 189.72 400.84 188.14 394.56 185.67 C 381.34 181.98 367.58 180.78 353.96 179.58 C 349.00 178.90 343.95 179.62 339.02 178.69 C 332.70 177.60 326.33 178.96 319.99 178.67 C 309.65 178.02 299.36 179.68 289.02 179.60 C 265.64 179.71 242.26 180.36 218.97 182.51 C 215.61 183.18 212.37 181.62 209.01 182.05 C 193.32 183.07 177.63 183.87 161.95 184.98 C 171.19 188.52 179.97 193.15 189.15 196.84 C 203.22 202.68 217.12 209.05 231.84 213.13 C 243.54 216.87 255.00 221.45 266.97 224.33 C 276.02 226.69 284.84 229.80 293.55 233.18 C 302.00 236.48 311.06 237.83 319.46 241.26 C 322.91 242.49 326.80 242.47 329.93 244.53 C 331.03 244.25 332.15 243.97 333.26 243.68 C 333.39 244.29 333.67 245.49 333.80 246.10 C 330.58 250.22 326.03 252.90 321.89 255.96 C 318.94 257.92 315.94 260.61 312.13 260.11 C 311.53 259.52 310.87 259.02 310.17 258.60 C 298.43 255.59 287.04 251.41 275.54 247.60 C 265.12 244.02 254.15 242.15 243.90 238.09 C 236.14 235.40 228.25 233.08 220.45 230.54 C 215.73 228.08 210.54 226.78 205.75 224.49 C 196.77 220.82 187.06 219.21 178.20 215.20 C 165.83 207.45 151.30 204.13 138.41 197.36 C 125.28 191.82 112.79 184.92 100.39 177.96 C 100.45 177.64 100.57 177.00 100.63 176.69 C 99.56 176.18 98.49 175.68 97.42 175.18 C 97.44 174.83 97.48 174.14 97.50 173.79 C 98.07 173.56 99.20 173.09 99.77 172.86 C 108.81 171.78 117.87 170.82 126.93 169.86 C 144.23 167.56 161.74 168.38 179.09 166.66 C 190.55 165.49 202.08 165.11 213.59 164.86 C 227.69 163.55 241.79 161.73 255.97 161.84 C 266.00 162.08 276.02 161.45 285.98 160.24 C 296.34 159.79 306.72 159.35 317.09 159.74 Z" />
<path fill="#06060b" d=" M 549.82 176.12 C 559.05 174.89 568.56 177.74 575.92 183.27 C 577.58 186.11 580.65 188.38 580.82 191.89 C 581.20 196.41 582.49 201.45 579.63 205.48 C 577.25 210.61 571.19 212.42 566.02 212.93 C 561.14 213.65 557.27 210.12 554.04 207.00 C 551.62 203.85 551.62 199.40 552.87 195.78 C 546.54 198.49 538.77 199.41 534.51 205.48 C 529.87 213.07 529.39 222.49 530.81 231.08 C 531.91 237.38 536.36 242.23 539.77 247.40 C 547.43 254.32 555.28 261.30 561.23 269.84 C 565.30 275.31 569.84 280.76 571.56 287.52 C 574.57 290.09 574.30 294.47 575.49 297.98 C 576.19 307.71 574.06 318.10 568.04 325.98 C 565.79 328.10 563.75 330.43 561.69 332.73 C 557.01 336.38 551.70 339.18 546.18 341.33 C 541.04 343.85 536.07 347.27 530.15 347.48 C 529.81 347.76 529.14 348.33 528.81 348.61 C 527.57 348.25 526.34 347.88 525.12 347.49 C 526.29 343.41 528.06 339.47 528.47 335.21 C 528.67 332.79 529.36 330.47 530.59 328.38 C 536.12 326.47 541.21 323.56 546.55 321.18 C 551.25 317.51 556.12 313.25 557.99 307.38 C 558.63 299.85 556.06 292.30 551.90 286.09 C 545.16 277.95 538.25 269.69 529.52 263.60 C 519.60 254.98 512.76 242.97 510.03 230.14 C 509.47 227.86 510.20 225.57 510.23 223.28 C 508.74 204.90 521.26 187.05 538.11 180.38 C 542.15 179.28 545.52 176.29 549.82 176.12 Z" />
<path fill="#06060b" d=" M 289.81 184.95 C 296.65 182.72 303.89 182.51 310.99 181.89 C 314.66 181.88 318.61 181.15 321.91 183.21 C 326.45 182.85 329.43 186.86 333.07 188.88 C 340.62 193.30 348.56 197.07 355.78 202.05 C 366.56 206.95 376.26 213.91 387.05 218.83 C 399.24 224.44 410.56 232.10 423.79 235.22 C 425.02 234.94 426.28 234.72 427.55 234.55 C 427.64 235.98 427.57 237.41 427.33 238.83 C 427.65 239.38 428.29 240.48 428.61 241.04 C 427.30 243.92 424.82 245.93 422.15 247.49 C 419.01 249.29 415.89 251.70 412.10 251.63 C 410.66 251.66 409.27 251.92 407.93 252.42 C 400.27 249.14 392.59 245.78 385.43 241.49 C 375.95 236.67 366.21 232.35 356.99 227.05 C 349.50 221.14 340.36 217.92 332.59 212.44 C 320.46 203.44 306.17 197.87 294.05 188.86 C 292.27 187.65 288.19 188.16 289.81 184.95 Z" />
<path fill="#06060b" d=" M 440.03 195.85 C 445.32 194.25 450.72 191.98 456.34 192.61 C 459.05 197.68 462.35 203.04 461.57 209.04 C 455.23 209.53 449.96 213.55 443.82 214.83 C 439.93 215.62 436.03 216.64 432.57 218.65 C 426.85 221.89 420.56 223.94 414.76 227.02 C 412.87 228.38 410.73 226.86 408.88 226.24 C 403.56 223.73 398.15 221.07 393.68 217.20 L 393.23 215.96 C 397.35 214.56 400.48 211.30 404.49 209.64 C 416.03 204.32 428.13 200.30 440.03 195.85 Z" />
<path fill="#06060b" d=" M 435.42 222.20 C 441.51 219.48 448.39 218.81 454.19 215.44 C 454.71 215.45 455.74 215.48 456.25 215.50 C 456.43 216.94 456.62 218.38 456.80 219.82 C 457.23 219.77 458.07 219.67 458.49 219.62 C 458.34 231.13 455.24 242.50 449.80 252.63 C 447.90 257.64 443.85 261.28 440.46 265.27 C 438.14 268.20 434.48 269.37 431.43 271.32 C 427.58 273.83 423.07 274.99 418.86 276.73 C 412.91 279.29 406.34 279.44 399.99 279.88 C 395.52 280.42 390.96 280.48 386.53 279.68 C 375.43 278.17 364.08 278.56 353.09 276.34 C 351.09 276.08 350.80 273.34 352.30 272.29 C 358.38 267.25 364.25 261.95 369.85 256.38 C 370.85 257.13 371.72 258.24 373.07 258.36 C 380.36 259.90 387.84 259.24 395.21 259.04 C 399.75 258.14 404.47 258.77 408.89 257.22 C 416.80 254.45 424.98 250.89 430.15 243.99 C 432.76 239.49 434.66 234.61 436.63 229.80 C 435.60 229.00 434.33 229.16 433.16 229.45 C 433.33 227.76 435.30 227.39 436.07 226.09 C 437.12 224.93 435.88 223.37 435.42 222.20 Z" />
<path fill="#06060b" d=" M 611.51 230.41 C 619.64 227.48 628.40 226.07 637.01 227.18 C 642.21 228.75 646.38 232.50 651.34 234.62 C 652.75 237.10 654.28 239.64 654.55 242.55 C 662.31 243.96 669.26 247.91 675.53 252.50 C 679.60 257.64 683.76 263.40 684.42 270.08 C 683.83 270.47 682.63 271.23 682.04 271.62 C 681.11 270.66 680.20 269.71 679.30 268.76 C 666.83 265.08 653.90 269.08 642.71 274.75 C 642.15 278.67 641.95 282.67 640.20 286.30 C 637.22 298.81 632.69 310.88 627.37 322.57 C 625.58 326.16 624.79 330.18 622.68 333.63 C 618.23 340.77 615.55 348.93 610.43 355.68 C 606.47 361.28 601.59 366.13 597.45 371.59 C 590.94 379.48 581.86 384.49 574.09 390.97 C 566.69 397.20 558.37 402.20 550.17 407.25 C 544.63 409.55 539.99 413.59 534.24 415.35 C 526.52 418.15 519.03 421.73 510.95 423.41 C 505.24 425.15 499.74 427.66 493.85 428.78 C 486.82 429.82 480.05 432.17 472.99 433.03 C 466.19 433.46 459.95 437.53 453.01 436.63 C 448.61 436.25 444.30 437.40 439.95 437.73 C 434.13 438.03 428.22 437.65 422.52 439.02 C 425.48 432.05 427.86 424.83 429.54 417.44 C 436.87 417.09 444.23 417.50 451.55 416.87 C 461.59 415.79 471.72 415.05 481.47 412.23 C 486.38 410.62 491.69 410.64 496.49 408.63 C 504.89 405.40 513.24 402.02 521.85 399.38 C 532.76 394.93 544.13 390.85 553.33 383.25 C 558.32 379.10 564.36 376.48 569.33 372.31 C 574.26 368.28 578.70 363.63 582.39 358.45 C 589.47 352.68 594.22 344.71 599.56 337.42 C 605.21 329.72 608.21 320.55 613.19 312.47 C 617.12 303.11 619.88 293.17 620.26 282.97 C 616.42 280.41 612.68 277.40 608.08 276.35 C 602.71 275.08 597.47 272.96 591.89 272.91 C 584.98 275.01 578.95 279.48 571.75 280.74 C 569.08 276.22 565.43 272.09 564.00 266.97 C 568.20 263.43 574.07 263.10 578.50 260.01 C 581.25 257.17 584.78 255.01 586.78 251.52 C 588.69 248.57 591.06 245.95 593.24 243.19 C 595.72 239.98 599.36 238.01 602.23 235.19 C 604.80 232.74 608.12 231.34 611.51 230.41 Z" />
<path fill="#06060b" d=" M 348.50 241.50 C 351.61 239.05 355.26 237.28 357.93 234.29 C 360.19 233.89 362.93 233.41 364.85 235.03 C 369.03 238.43 373.86 240.86 378.54 243.46 C 377.56 246.54 375.27 248.81 372.47 250.31 C 364.85 254.39 358.78 260.64 352.05 265.96 C 345.97 270.97 339.24 275.22 333.78 280.95 C 331.61 283.53 328.15 284.40 325.96 286.95 C 323.30 289.94 319.79 292.07 317.48 295.36 C 312.19 301.05 306.21 306.09 301.36 312.17 C 295.82 318.48 291.17 325.50 286.25 332.29 C 287.07 332.14 287.91 332.02 288.74 331.89 C 295.75 331.00 302.82 330.70 309.85 329.93 C 314.22 329.08 318.56 328.05 322.87 326.91 C 327.74 325.76 332.53 324.32 337.39 323.14 C 337.56 322.96 337.90 322.60 338.07 322.42 C 338.21 322.70 338.51 323.26 338.65 323.54 C 349.79 320.21 361.09 317.39 372.27 314.17 C 387.50 309.32 402.53 303.71 416.84 296.57 C 425.48 291.59 434.23 286.45 441.07 279.06 C 443.82 275.91 447.56 273.82 450.15 270.54 C 455.61 271.35 460.25 274.54 465.03 277.06 C 466.14 277.81 467.43 278.63 467.95 279.95 C 465.65 284.11 461.89 287.18 458.51 290.43 C 454.15 294.17 450.90 299.15 445.67 301.82 C 437.69 306.17 431.08 312.66 422.89 316.65 C 417.25 319.22 411.88 322.40 406.00 324.43 C 397.72 327.57 389.90 332.16 381.11 333.76 C 374.68 335.24 368.49 337.63 362.01 338.86 C 358.20 339.46 354.76 341.30 350.98 342.01 C 339.59 343.65 328.40 346.53 316.98 348.01 C 307.49 349.28 298.32 352.17 288.79 353.12 C 274.98 355.88 260.97 357.21 247.01 358.89 C 243.34 359.05 239.68 358.85 236.01 358.87 C 242.20 346.65 252.36 337.21 259.99 325.98 C 266.96 315.54 276.27 307.01 284.37 297.50 C 290.49 288.74 298.49 281.57 306.24 274.30 C 314.18 267.52 321.99 260.58 330.44 254.43 C 336.16 249.71 342.71 246.14 348.50 241.50 Z" />
<path fill="#ffffff" d=" M 616.72 241.48 C 621.37 238.44 626.55 236.11 632.13 235.55 C 633.68 237.51 635.52 239.35 636.30 241.79 C 636.29 243.98 634.96 245.75 633.68 247.39 C 627.16 248.08 620.45 246.46 615.02 242.80 C 615.73 242.76 617.14 242.67 617.84 242.63 C 617.56 242.34 617.00 241.76 616.72 241.48 Z" />
<path fill="#06060b" d=" M 621.05 240.92 C 623.85 239.78 626.78 239.04 629.69 238.22 C 629.42 240.74 629.57 243.27 629.75 245.79 C 626.01 245.64 622.45 244.42 618.94 243.26 C 619.08 242.14 619.96 241.20 621.05 240.92 Z" />
<path fill="#06060b" d=" M 455.86 247.22 C 460.20 246.59 463.57 249.66 467.56 250.66 C 470.71 251.49 473.27 253.64 476.33 254.74 C 489.56 260.19 499.42 271.01 508.47 281.69 C 509.36 283.11 510.56 284.25 512.12 284.92 C 512.20 285.27 512.36 285.98 512.44 286.33 C 509.67 289.49 505.46 290.66 502.23 293.23 C 500.10 294.95 497.73 296.54 494.90 296.69 C 490.32 291.62 485.54 286.71 479.77 282.94 C 476.57 280.95 474.16 277.96 470.99 275.93 C 467.61 273.53 463.69 272.15 460.03 270.30 C 456.43 266.21 450.22 267.20 446.35 263.70 C 448.00 262.05 449.76 260.40 450.40 258.07 C 451.65 254.17 454.15 250.89 455.86 247.22 Z" />
<path fill="#ffffff" d=" M 644.44 265.93 C 643.03 259.76 645.04 253.20 648.82 248.25 C 654.23 248.42 659.71 248.85 664.89 250.51 C 669.58 252.73 674.22 255.63 676.94 260.21 C 674.74 258.77 672.81 256.49 670.00 256.48 C 663.23 256.25 656.45 255.46 649.70 256.56 C 649.63 257.05 649.50 258.01 649.43 258.49 C 657.35 260.02 665.54 260.24 673.32 262.44 C 670.57 262.86 667.83 263.37 665.05 263.34 C 658.08 262.97 651.22 264.54 644.44 265.93 Z" />
<path fill="#06060b" d=" M 528.74 280.76 C 532.01 278.62 536.01 277.89 539.05 275.38 C 543.14 277.52 545.22 281.85 548.42 284.99 C 549.28 287.81 547.66 290.34 544.57 289.82 C 537.25 294.79 529.05 298.22 521.47 302.73 C 517.42 305.59 513.59 308.74 509.31 311.27 C 505.23 313.76 502.21 317.57 498.38 320.39 C 493.68 323.68 490.68 328.68 486.64 332.65 C 483.70 335.27 479.77 336.29 476.00 337.04 C 471.19 337.97 466.64 339.89 461.82 340.77 C 461.52 340.33 460.92 339.45 460.62 339.01 C 466.39 329.88 474.03 322.18 481.22 314.19 C 492.35 303.47 504.70 293.95 518.11 286.26 C 521.70 284.51 525.35 282.88 528.74 280.76 Z" />
<path fill="#06060b" d=" M 521.80 307.02 C 523.45 305.99 525.33 306.40 527.07 306.93 C 526.43 307.12 525.15 307.50 524.52 307.70 C 525.11 316.38 525.47 325.12 524.84 333.81 C 523.45 349.63 516.72 365.13 505.21 376.19 C 498.43 383.16 490.59 389.16 481.90 393.56 C 475.86 396.59 470.40 401.02 463.71 402.59 C 463.18 400.95 462.47 399.14 463.33 397.48 C 465.55 391.76 467.28 385.86 468.46 379.83 C 469.85 378.85 471.23 377.87 472.60 376.86 C 477.89 375.92 481.91 372.09 485.91 368.82 C 491.04 364.33 496.94 360.33 500.18 354.14 C 507.25 343.46 505.56 330.04 505.44 317.93 C 510.15 313.33 515.92 309.90 521.80 307.02 Z" />
<path fill="#06060b" d=" M 396.78 335.56 C 398.81 331.35 400.79 325.96 405.82 324.69 C 410.85 324.46 416.19 323.32 420.88 325.80 C 425.86 327.62 428.86 332.28 431.23 336.74 C 433.36 340.78 433.23 345.50 434.62 349.79 C 436.03 359.25 434.20 368.79 433.02 378.19 C 432.58 380.14 432.50 383.19 429.92 383.47 C 424.30 384.51 418.87 386.89 413.06 386.28 L 414.95 385.03 C 411.53 383.15 414.13 379.28 414.30 376.47 C 415.12 368.37 416.93 360.06 415.19 351.97 C 415.01 352.32 414.67 353.03 414.50 353.38 C 410.17 354.25 405.16 355.01 401.36 352.18 C 397.22 347.93 395.06 341.35 396.78 335.56 Z" />
<path fill="#06060b" d=" M 487.27 337.92 C 490.52 337.18 493.92 337.02 497.00 335.66 C 497.67 335.94 499.01 336.48 499.68 336.75 C 501.44 342.64 499.93 349.10 495.33 353.26 C 491.82 354.23 488.52 355.81 484.99 356.72 C 478.78 358.69 472.16 358.95 466.01 361.12 C 458.97 363.50 451.53 364.70 444.74 367.82 C 442.77 368.75 440.67 369.36 438.55 369.85 C 437.64 368.04 436.49 366.16 437.01 364.04 C 437.63 359.57 437.33 354.99 438.40 350.60 C 445.89 348.22 453.31 345.45 461.11 344.22 C 469.74 341.75 478.57 340.10 487.27 337.92 Z" />
<path fill="#06060b" d=" M 400.93 362.84 C 404.26 361.35 407.79 360.00 411.51 360.20 C 411.72 366.05 413.14 372.54 409.78 377.78 C 403.62 381.99 397.22 386.41 393.00 392.71 C 388.96 398.62 388.48 405.93 386.15 412.51 C 384.43 415.95 380.08 415.96 376.87 417.10 C 373.06 417.98 369.66 420.23 365.71 420.54 C 365.47 419.95 364.98 418.78 364.74 418.19 C 365.79 414.85 365.74 411.29 366.80 407.96 C 369.15 400.55 371.83 393.23 375.23 386.24 C 378.46 380.41 383.45 375.86 388.05 371.13 C 391.75 367.55 396.40 365.18 400.93 362.84 Z" />
<path fill="#06060b" d=" M 456.98 367.00 C 461.73 365.55 466.65 362.86 471.68 364.83 C 467.87 373.32 464.36 381.96 462.09 391.01 C 460.26 398.06 456.51 404.85 456.55 412.23 C 453.77 414.15 450.19 413.70 446.99 413.84 C 442.47 413.52 437.97 414.07 433.45 414.16 C 433.49 412.61 434.44 411.45 435.50 410.42 C 437.57 400.04 441.37 390.07 442.93 379.60 C 443.87 377.07 445.05 374.64 445.86 372.07 C 449.37 369.97 453.07 368.19 456.98 367.00 Z" />
<path fill="#06060b" d=" M 429.44 387.67 C 431.83 387.06 434.24 386.48 436.70 386.16 C 436.42 392.89 436.11 399.92 433.30 406.18 C 429.57 408.39 425.33 409.51 421.02 409.73 C 411.27 410.23 401.57 412.35 391.78 411.22 C 391.49 406.12 393.94 401.49 396.14 397.07 C 397.66 394.90 398.94 391.51 402.10 391.62 C 405.38 391.43 408.64 391.03 411.84 390.28 C 417.64 388.98 423.68 389.22 429.44 387.67 Z" />
<path fill="#06060b" d=" M 355.97 393.35 C 359.90 393.49 364.05 391.98 367.78 393.76 C 367.93 397.98 365.81 401.77 365.15 405.87 C 364.57 407.77 364.69 410.07 363.20 411.57 C 357.23 413.34 350.97 411.92 344.94 411.35 C 330.15 412.51 315.19 413.09 300.75 416.77 C 290.95 419.36 281.23 422.25 271.75 425.84 C 264.39 428.43 257.64 432.43 250.49 435.51 C 242.89 439.62 235.56 444.28 227.69 447.89 C 218.89 453.50 210.62 460.20 204.23 468.53 C 211.07 470.50 217.77 472.94 224.78 474.31 C 244.00 477.74 263.58 478.43 283.06 479.24 C 287.35 479.77 291.66 479.63 295.91 478.88 C 306.93 478.41 318.04 479.49 329.00 477.89 C 341.48 475.76 354.24 473.43 365.42 467.18 C 368.48 465.36 372.17 464.13 374.14 460.98 C 377.83 460.74 378.93 464.96 381.85 466.37 C 384.80 467.73 387.74 469.18 390.87 470.13 C 386.70 474.48 380.99 476.74 376.02 479.96 C 371.91 482.74 367.02 483.87 362.52 485.81 C 354.40 488.73 346.42 492.15 338.00 494.09 C 330.06 495.36 322.03 495.87 314.03 496.56 C 310.64 497.02 307.33 495.50 303.95 496.11 C 294.66 497.42 285.26 496.65 275.92 496.80 C 267.52 495.72 258.96 497.93 250.62 496.20 C 245.04 493.78 238.68 496.03 233.15 493.50 C 223.39 492.21 213.76 490.06 203.98 488.88 C 191.50 486.97 179.25 483.86 167.15 480.33 C 172.36 473.86 177.44 467.25 183.73 461.75 C 187.66 458.57 189.92 453.89 193.65 450.52 C 196.30 448.04 200.16 447.34 202.64 444.65 C 206.14 440.82 210.58 438.00 213.97 434.06 C 221.54 428.17 230.33 424.10 238.59 419.30 C 247.90 413.98 258.25 410.89 267.80 406.10 C 273.26 403.71 279.26 403.04 284.89 401.14 C 296.91 396.94 309.72 396.11 322.16 393.76 C 333.39 392.72 344.71 393.11 355.97 393.35 Z" />
<path fill="#06060b" d=" M 406.02 414.28 C 412.82 414.78 419.51 411.40 426.36 412.66 C 426.48 417.94 424.08 422.79 422.94 427.84 C 421.79 433.23 419.05 438.05 416.98 443.11 C 415.62 445.71 414.57 449.59 411.02 449.76 C 408.46 449.37 405.89 448.96 403.42 448.22 C 400.05 446.35 397.76 443.06 394.71 440.75 C 399.15 432.23 403.81 423.70 406.02 414.28 Z" />
<path fill="#06060b" d=" M 396.53 419.57 C 396.98 419.23 397.88 418.55 398.33 418.20 C 399.64 424.26 397.47 430.73 393.59 435.38 C 387.13 437.54 379.73 437.01 373.55 440.27 C 366.42 444.32 358.82 447.52 351.87 451.89 C 349.33 453.59 347.29 455.92 344.78 457.68 C 337.55 462.70 332.19 469.84 325.37 475.34 C 324.26 476.72 322.47 476.46 320.91 476.50 C 315.19 476.40 309.48 475.98 303.81 475.43 C 302.04 474.57 302.92 473.00 303.48 471.69 C 304.40 471.27 305.32 470.85 306.25 470.43 C 307.54 467.53 309.75 465.22 311.90 462.95 C 317.08 457.75 321.44 451.70 327.44 447.35 C 333.06 443.29 338.27 438.66 344.25 435.11 C 353.30 429.81 362.81 425.27 372.63 421.59 C 375.42 420.95 378.36 421.20 381.12 420.34 C 386.14 418.86 391.40 419.41 396.53 419.57 Z" />
<path fill="#06060b" d=" M 451.83 443.71 C 461.40 439.99 471.91 438.39 482.12 439.54 C 486.27 441.29 490.91 442.69 493.99 446.18 C 496.37 450.03 498.68 454.41 497.84 459.11 C 496.85 464.91 494.58 471.44 488.79 474.03 C 484.96 476.45 480.26 476.06 475.94 476.02 C 471.18 475.96 467.47 472.03 465.55 468.02 C 463.44 462.25 467.36 456.32 472.41 453.71 C 474.90 453.61 477.40 453.44 479.72 452.41 C 476.94 452.16 474.18 452.42 471.63 453.56 C 463.15 455.19 455.15 458.65 447.60 462.76 C 445.69 463.77 443.89 464.98 442.30 466.45 C 440.65 467.00 438.98 467.46 437.27 467.75 C 437.36 466.36 437.14 464.88 437.90 463.64 C 440.46 458.80 443.77 454.33 445.46 449.07 C 446.43 446.28 449.34 444.89 451.83 443.71 Z" />
<path fill="#06060b" d=" M 370.30 446.42 C 375.86 441.66 383.37 441.39 390.28 440.47 C 393.60 444.87 397.48 449.14 402.71 451.28 C 405.92 453.18 409.73 453.13 413.33 453.66 C 413.48 454.21 413.78 455.29 413.93 455.84 C 412.32 461.05 408.04 464.63 404.81 468.82 C 399.08 469.81 394.19 466.46 388.92 464.94 C 383.75 463.49 379.85 459.66 375.48 456.77 C 372.89 455.13 372.41 451.81 370.44 449.61 C 369.62 448.79 368.65 447.03 370.30 446.42 Z" />
<path fill="#06060b" d=" M 422.95 442.86 C 426.84 441.63 430.95 441.79 434.97 441.39 C 438.17 441.33 441.54 440.56 444.59 441.92 C 443.67 443.87 442.65 445.78 441.87 447.79 C 435.54 465.65 424.66 481.37 413.35 496.37 C 408.12 502.06 403.79 508.74 397.27 513.09 C 392.48 516.41 388.19 520.40 383.23 523.47 C 374.25 529.10 364.39 533.11 355.09 538.15 C 348.97 541.51 342.04 542.84 335.81 545.92 C 325.34 551.22 313.68 553.48 302.94 558.13 C 296.49 560.42 290.49 564.06 283.65 565.11 C 275.18 567.60 266.71 570.06 258.25 572.58 C 256.57 573.10 254.80 573.15 253.09 572.76 C 252.57 568.34 255.32 564.67 256.47 560.60 C 258.01 555.72 260.84 551.38 262.27 546.48 C 267.46 530.04 275.52 514.72 283.81 499.68 C 290.21 498.34 296.85 499.98 303.29 498.62 C 303.63 499.32 303.97 500.02 304.32 500.73 C 301.87 505.26 300.25 510.19 297.32 514.48 C 292.71 524.37 288.82 534.62 283.95 544.41 C 285.79 544.45 287.70 544.91 289.49 544.23 C 301.20 540.40 312.40 535.18 323.82 530.60 C 333.36 526.66 342.30 521.41 351.91 517.66 C 358.05 514.10 364.79 511.61 370.43 507.22 C 376.33 502.85 383.38 499.85 388.14 494.10 C 397.03 484.04 406.21 474.15 413.61 462.91 C 417.33 456.52 419.23 449.26 422.95 442.86 Z" />
</svg>
