<?xml version="1.0" encoding="UTF-8" standalone="no"?>
<!DOCTYPE svg PUBLIC "-//W3C//DTD SVG 1.1//EN" "http://www.w3.org/Graphics/SVG/1.1/DTD/svg11.dtd">
<svg viewBox="0 0 499 190" height="190.0pt" width="499.0pt" xmlns="http://www.w3.org/2000/svg" version="1.1">
<path d="M 0.00 0.00 L 499.00 0.00 L 499.00 190.00 L 0.00 190.00 L 0.00 0.00 Z" fill="#ffffff" />
<path d="M 54.74 10.23 C 57.77 12.18 60.64 14.35 63.47 16.58 C 56.08 25.72 48.01 34.45 40.86 43.79 C 37.10 48.47 32.85 52.76 28.94 57.33 C 37.96 59.04 47.29 58.05 56.58 58.56 C 56.22 62.20 55.60 65.80 55.37 69.45 C 46.40 69.56 37.47 69.05 28.49 69.37 C 34.43 79.56 41.81 88.66 48.27 98.49 C 52.21 104.34 57.15 109.80 60.52 115.99 C 58.38 117.82 55.24 120.45 52.37 120.57 C 50.35 119.19 48.97 116.65 47.47 114.73 C 42.50 108.22 38.30 101.20 33.14 94.82 C 25.69 83.93 17.97 73.20 10.83 62.11 C 16.28 55.45 22.19 49.30 27.46 42.46 C 33.17 35.22 39.59 28.64 45.46 21.54 C 48.73 17.86 51.31 13.70 54.74 10.23 Z" fill="#000000" />
<path d="M 240.74 10.23 C 243.77 12.18 246.64 14.35 249.47 16.58 C 242.08 25.72 234.00 34.46 226.85 43.81 C 223.08 48.47 218.82 52.73 214.98 57.35 C 223.69 59.02 232.91 58.12 241.79 58.48 C 241.75 62.12 241.64 65.77 241.47 69.41 C 232.29 69.96 223.29 68.39 214.12 68.70 C 219.23 77.52 225.34 85.59 231.20 93.91 C 236.09 101.58 242.04 108.44 246.77 116.23 C 244.47 117.68 242.17 119.29 239.68 120.40 C 238.45 121.03 237.64 120.13 236.89 119.26 C 230.43 111.18 225.14 102.33 218.71 94.23 C 211.43 83.50 203.83 73.02 196.83 62.11 C 202.28 55.45 208.19 49.30 213.46 42.46 C 219.17 35.22 225.59 28.64 231.46 21.54 C 234.73 17.86 237.31 13.70 240.74 10.23 Z" fill="#000000" />
<path d="M 98.66 11.68 C 106.30 18.90 112.76 27.36 119.81 35.15 C 125.83 42.01 132.43 48.61 138.25 55.67 C 138.87 59.34 138.45 63.29 138.22 66.99 C 137.30 73.33 137.69 79.55 137.33 85.94 C 135.97 97.01 136.73 108.42 136.54 119.59 C 132.84 119.56 129.15 119.42 125.46 119.29 C 125.69 111.18 125.52 103.09 126.29 95.01 C 126.49 82.85 128.08 71.19 127.53 58.99 C 121.52 51.01 114.39 43.62 106.79 37.12 C 106.57 41.87 106.56 46.43 105.94 51.13 C 105.33 57.44 105.78 63.83 105.23 70.15 C 104.10 78.36 104.80 86.70 104.17 95.03 C 103.31 102.85 103.59 110.89 103.53 118.76 C 100.12 118.77 96.71 118.73 93.30 118.69 C 93.16 108.26 94.36 97.99 94.69 87.59 C 95.84 80.02 95.19 72.45 95.82 64.85 C 96.80 58.24 96.17 51.63 96.96 45.00 C 97.84 37.37 97.17 29.59 98.16 22.00 C 98.48 18.60 98.52 15.12 98.66 11.68 Z" fill="#000000" />
<path d="M 150.79 12.52 C 153.75 14.76 156.51 17.28 159.19 19.86 C 160.35 21.15 161.63 22.09 161.50 24.01 C 161.62 31.93 161.18 39.97 161.74 47.86 C 164.07 51.92 168.62 54.77 171.88 58.12 C 177.91 64.12 184.45 69.50 190.79 75.17 C 192.42 76.77 194.68 78.50 194.45 81.05 C 194.46 93.88 194.43 106.70 194.37 119.54 C 190.76 119.61 187.17 119.62 183.57 119.57 C 183.47 107.42 184.22 95.10 183.56 82.99 C 176.50 76.47 169.46 69.75 161.61 64.18 C 160.03 76.11 160.63 88.01 160.23 99.99 C 159.46 106.71 159.73 113.42 159.41 120.17 C 156.09 120.40 152.77 120.49 149.44 120.52 C 150.93 111.68 150.26 102.91 150.48 94.00 C 150.84 66.85 150.50 39.66 150.79 12.52 Z" fill="#000000" />
<path d="M 260.72 12.97 C 267.63 18.07 274.34 23.48 280.62 29.35 C 288.96 36.35 297.62 43.08 305.79 50.31 C 307.37 51.60 307.10 53.35 305.93 54.80 C 303.81 57.30 300.94 59.26 298.56 61.56 C 293.19 66.75 287.89 72.37 282.14 77.15 C 280.42 78.78 277.88 80.56 277.16 82.89 C 279.92 86.54 284.12 89.44 287.45 92.56 C 292.12 96.91 296.36 101.61 301.22 105.77 C 304.22 108.35 307.02 111.12 309.69 114.02 C 307.91 115.96 306.16 118.21 303.98 119.70 C 301.38 120.45 299.69 117.50 297.92 116.02 C 289.26 106.93 280.13 98.36 270.52 90.28 C 270.09 100.65 270.38 111.07 270.34 121.45 C 267.05 121.50 263.76 121.52 260.47 121.52 C 260.54 112.32 260.25 103.14 260.42 93.94 C 260.48 90.92 259.99 87.98 259.75 84.99 C 259.49 63.64 259.44 42.31 259.73 20.97 C 259.93 18.30 260.31 15.61 260.72 12.97 Z" fill="#000000" />
<path d="M 75.38 12.23 C 79.15 12.24 82.92 12.36 86.69 12.55 C 86.60 18.08 85.45 23.47 85.49 29.01 C 85.49 37.03 84.45 44.97 84.55 53.00 C 84.55 74.90 84.09 96.79 84.50 118.68 C 80.46 118.61 76.42 118.49 72.38 118.40 C 72.64 112.55 72.46 106.79 73.13 101.00 C 73.81 93.70 73.30 86.33 73.83 79.04 C 74.43 74.68 74.56 70.36 73.92 66.00 C 73.19 61.19 74.55 56.83 74.46 52.01 C 74.76 44.35 74.11 36.50 75.17 28.92 C 75.63 23.39 75.38 17.78 75.38 12.23 Z" fill="#000000" />
<path d="M 386.28 10.87 C 387.78 13.20 389.11 15.60 390.13 18.18 C 393.92 27.43 396.82 37.08 400.28 46.46 C 402.38 52.09 404.22 57.81 406.15 63.49 C 412.40 82.92 420.18 101.77 425.87 121.39 C 422.53 121.31 419.05 121.59 415.74 121.05 C 412.57 117.57 412.01 111.62 409.86 107.41 C 408.53 103.59 404.82 102.30 401.67 100.23 C 392.66 94.62 383.57 88.62 374.03 83.92 C 369.47 95.96 366.52 108.46 362.38 120.63 C 358.40 120.67 354.41 120.67 350.43 120.60 C 354.35 104.89 359.94 89.66 364.95 74.21 C 371.41 52.90 378.36 31.69 386.28 10.87 Z" fill="#000000" />
<path d="M 434.72 13.97 C 441.63 19.07 448.34 24.49 454.62 30.35 C 462.98 37.35 471.60 44.10 479.81 51.30 C 481.15 52.26 481.04 53.89 480.39 55.22 C 478.27 58.00 475.08 60.11 472.56 62.56 C 467.19 67.75 461.89 73.37 456.14 78.15 C 454.41 79.78 451.88 81.56 451.15 83.89 C 453.92 87.53 458.12 90.44 461.45 93.56 C 466.12 97.91 470.36 102.61 475.22 106.77 C 478.22 109.35 481.02 112.12 483.69 115.02 C 481.91 116.96 480.16 119.21 477.98 120.70 C 475.38 121.44 473.69 118.50 471.92 117.02 C 463.26 107.93 454.14 99.36 444.52 91.28 C 444.09 101.65 444.38 112.07 444.34 122.45 C 441.05 122.50 437.76 122.52 434.47 122.52 C 434.54 113.32 434.25 104.14 434.42 94.94 C 434.48 91.92 433.99 88.98 433.75 85.99 C 433.49 64.64 433.44 43.31 433.73 21.96 C 433.93 19.30 434.31 16.61 434.72 13.97 Z" fill="#000000" />
<path d="M 334.52 15.46 C 337.92 15.38 341.33 15.33 344.73 15.34 C 344.57 34.56 344.53 53.78 344.33 73.00 C 343.12 84.61 343.91 96.36 343.13 108.02 C 342.45 113.64 342.98 119.29 342.48 124.93 C 340.20 124.49 338.16 124.34 336.47 122.54 C 330.03 115.97 323.10 109.94 316.73 103.31 C 315.58 101.99 314.18 100.65 313.49 99.04 C 313.21 94.79 313.50 90.48 313.67 86.23 C 320.72 90.73 325.34 97.71 332.30 102.24 C 332.50 96.12 332.57 90.08 333.29 84.00 C 333.62 63.96 333.34 43.90 333.60 23.85 C 333.62 21.02 334.10 18.26 334.52 15.46 Z" fill="#000000" />
<path d="M 270.67 33.66 C 274.10 36.07 277.36 38.72 280.46 41.54 C 284.99 45.80 289.91 49.59 294.40 53.88 C 286.15 60.72 278.62 68.30 270.48 75.26 C 269.84 64.54 270.79 53.74 270.42 43.01 C 270.34 39.88 270.50 36.79 270.67 33.66 Z" fill="#ffffff" />
<path d="M 444.67 34.66 C 448.10 37.07 451.36 39.72 454.46 42.54 C 458.99 46.80 463.91 50.59 468.40 54.88 C 460.15 61.72 452.62 69.30 444.48 76.26 C 443.84 65.54 444.79 54.74 444.42 44.01 C 444.34 40.88 444.50 37.79 444.67 34.66 Z" fill="#ffffff" />
<path d="M 387.85 43.39 C 391.71 52.91 394.57 62.73 397.95 72.42 C 399.56 77.22 401.11 82.11 402.25 87.04 C 397.07 84.24 392.56 80.82 387.63 77.54 C 384.57 75.42 381.23 73.42 378.52 70.87 C 378.62 68.95 379.40 67.01 379.97 65.18 C 382.07 59.01 383.85 52.67 386.29 46.63 C 386.80 45.54 387.32 44.46 387.85 43.39 Z" fill="#ffffff" />
<path d="M 407.87 138.48 C 418.40 142.64 429.18 146.07 439.72 150.20 C 449.19 153.89 458.99 157.21 468.06 161.81 C 458.67 165.90 448.72 168.74 439.18 172.47 C 430.70 175.76 422.03 178.55 413.54 181.82 C 410.85 182.77 408.51 183.93 405.56 183.43 C 404.80 180.38 407.38 179.08 409.02 176.95 C 412.76 172.91 414.24 167.91 415.55 162.70 C 410.13 165.69 407.22 170.49 402.93 174.94 C 398.05 171.74 394.34 167.32 389.69 163.93 C 388.49 163.06 386.50 163.46 385.07 163.32 C 361.72 163.43 338.36 163.25 315.00 163.31 C 308.21 163.39 301.37 162.99 294.61 163.50 C 298.48 166.24 302.71 168.32 306.45 171.25 C 305.34 171.84 304.20 172.27 303.02 172.54 C 298.10 170.17 293.56 167.00 288.74 164.43 C 287.80 164.03 286.34 163.01 285.34 163.62 C 280.18 165.96 275.45 169.29 270.39 171.84 C 269.15 172.43 267.49 173.16 266.17 172.44 C 260.80 169.75 255.84 166.15 250.40 163.61 C 248.59 162.71 246.48 164.31 244.86 165.05 C 240.18 167.44 235.65 170.80 230.66 172.41 L 228.11 171.18 C 232.24 167.85 236.86 165.56 241.32 162.68 C 228.53 162.53 215.75 162.83 202.96 162.60 C 200.65 162.64 197.95 162.36 195.79 163.25 C 190.21 165.41 185.32 169.53 179.66 171.45 L 177.08 170.21 C 180.57 167.36 184.43 165.17 188.19 162.70 C 184.22 162.68 180.17 162.37 176.23 162.79 C 169.58 164.68 164.02 169.99 157.41 171.84 L 155.29 170.33 C 158.77 167.37 162.97 165.55 167.01 163.16 C 161.08 162.34 154.99 162.51 149.01 162.50 C 146.31 162.40 143.72 164.28 141.42 165.53 C 137.00 168.25 132.23 170.24 127.91 173.11 C 125.13 174.91 122.56 176.59 119.09 176.48 C 105.06 176.70 91.01 176.48 76.98 176.52 C 73.62 176.59 70.43 176.10 67.18 175.32 C 75.32 170.26 84.01 166.13 92.00 160.85 C 84.18 154.76 75.10 152.03 67.53 145.70 C 73.57 145.00 79.86 145.23 86.00 145.19 C 97.34 145.23 108.74 144.95 120.08 145.37 C 122.88 145.37 125.14 147.03 127.49 148.35 C 131.69 150.95 136.21 152.92 140.41 155.50 C 142.76 156.79 145.26 158.63 148.01 158.61 C 154.15 158.78 160.35 158.71 166.48 158.39 C 162.90 156.20 159.27 154.10 155.55 152.17 C 155.60 151.13 155.67 150.09 155.73 149.06 C 161.32 150.94 165.80 154.04 170.94 156.83 C 175.45 159.85 182.40 158.30 187.62 158.35 C 183.55 155.85 179.54 154.47 176.68 150.46 C 178.50 150.51 180.20 150.15 181.84 151.05 C 186.02 153.09 189.90 155.79 194.12 157.76 C 196.38 158.94 199.47 158.58 201.95 158.67 C 214.61 158.55 227.30 158.86 239.95 158.40 C 236.11 155.81 232.02 153.65 228.10 151.17 C 228.73 150.34 229.35 149.50 229.97 148.66 C 234.55 151.15 239.15 153.60 243.65 156.21 C 245.31 157.09 247.05 158.21 248.90 158.58 C 255.16 156.24 260.76 151.23 267.04 149.23 C 273.62 150.80 279.44 156.26 285.91 158.48 C 291.02 156.28 295.65 152.94 300.61 150.42 C 303.06 149.05 303.55 149.29 305.91 150.76 C 302.01 154.00 297.28 155.87 293.27 158.90 C 297.41 159.61 301.80 159.11 306.00 159.21 C 332.04 159.38 358.07 159.12 384.10 159.35 C 386.47 159.45 388.60 158.98 390.43 157.42 C 394.35 154.04 398.19 150.56 402.09 147.16 C 406.74 151.23 409.52 156.27 414.80 159.57 C 414.06 151.34 409.40 145.90 404.28 139.93 C 405.47 139.43 406.67 138.95 407.87 138.48 Z" fill="#000000" />
<path d="M 413.11 144.31 C 420.79 146.67 428.29 149.66 435.86 152.33 C 441.68 154.50 447.52 156.17 453.01 159.14 C 441.95 159.16 430.75 159.59 419.72 159.13 C 418.38 157.55 417.68 155.36 416.91 153.45 C 415.77 150.35 414.26 147.41 413.11 144.31 Z" fill="#ffffff" />
<path d="M 268.32 152.91 C 271.89 154.80 275.28 157.15 278.70 159.28 C 271.13 159.28 263.56 159.28 255.99 159.25 C 259.11 157.32 262.16 155.27 265.37 153.45 C 266.38 152.93 267.18 152.27 268.32 152.91 Z" fill="#ffffff" />
<path d="M 103.97 162.53 C 115.87 162.69 127.78 162.16 139.67 162.45 C 134.10 166.00 128.22 169.12 122.46 172.34 C 119.73 173.92 117.06 173.50 114.05 173.53 C 102.21 173.28 90.37 173.48 78.53 173.26 C 83.59 169.64 89.12 166.68 94.59 163.73 C 97.63 162.03 100.60 162.64 103.97 162.53 Z" fill="#ffffff" />
<path d="M 394.53 163.48 C 399.20 163.27 403.87 163.32 408.54 163.43 C 406.70 165.58 404.97 167.96 402.84 169.83 C 399.65 168.86 397.06 165.58 394.53 163.48 Z" fill="#ffffff" /></svg>