<?xml version="1.0" encoding="UTF-8" standalone="no"?>
<!DOCTYPE svg PUBLIC "-//W3C//DTD SVG 1.1//EN" "http://www.w3.org/Graphics/SVG/1.1/DTD/svg11.dtd">
<svg viewBox="0 0 257 256" height="256.0pt" width="257.0pt" xmlns="http://www.w3.org/2000/svg" version="1.1">
<path d="M 0.00 0.00 L 257.00 0.00 L 257.00 256.00 L 0.00 256.00 L 0.00 0.00 Z" fill="#ffffff" />
<path d="M 132.44 10.56 C 170.44 48.56 208.44 86.56 246.44 124.56 C 248.89 126.08 249.01 130.03 246.89 131.92 C 208.92 169.97 170.46 208.35 132.41 246.41 L 131.54 247.54 C 129.66 248.14 127.55 248.60 126.04 246.96 C 87.54 208.46 49.04 169.96 10.54 131.46 C 8.61 130.64 8.61 126.36 10.54 125.54 C 49.03 87.04 87.54 48.54 126.04 10.04 C 127.79 8.05 130.86 8.66 132.44 10.56 Z" fill="#000000" />
<path d="M 128.56 19.46 C 133.34 23.56 137.64 28.43 142.20 32.80 C 173.53 64.13 204.86 95.47 236.20 126.80 C 236.62 127.46 238.36 128.37 237.17 129.13 C 201.77 164.61 166.11 200.20 130.66 235.66 C 130.07 236.21 129.15 237.23 128.46 237.54 C 92.62 201.71 56.79 165.87 20.96 130.04 C 19.96 129.39 19.98 127.61 20.96 126.96 C 56.84 91.15 92.63 55.15 128.56 19.46 Z" fill="#ffffff" />
<path d="M 111.00 68.74 C 113.68 69.96 115.80 72.38 118.54 73.46 C 119.26 75.97 116.45 79.09 114.37 80.35 C 112.93 82.31 111.12 83.72 109.46 85.46 C 108.25 88.65 105.63 90.06 103.46 92.46 C 102.40 95.80 98.90 96.83 97.82 99.93 C 94.86 104.32 91.11 107.76 87.59 111.58 C 86.92 112.72 84.88 114.17 85.38 115.58 C 92.02 116.51 99.27 115.76 106.00 116.37 C 107.77 116.51 111.49 115.43 111.91 118.00 C 111.57 120.88 111.56 123.66 111.54 126.55 C 110.17 127.60 108.65 127.19 107.00 127.42 C 101.33 127.24 95.68 126.94 90.00 126.94 C 88.21 127.02 85.94 126.51 84.29 127.25 C 84.20 129.10 86.91 131.41 87.73 133.00 C 89.85 137.31 94.84 142.83 96.46 146.54 C 99.75 148.72 100.47 153.32 103.54 155.46 C 105.36 160.16 108.26 161.51 110.38 165.63 C 111.65 167.51 113.96 170.83 115.54 172.45 C 116.72 176.17 111.36 176.15 109.55 178.54 C 106.63 179.94 104.68 174.53 103.15 172.89 C 102.69 171.13 101.40 170.96 100.55 169.45 C 96.45 164.34 94.71 160.04 90.23 154.86 C 88.64 153.38 88.52 151.60 86.46 150.54 C 85.51 147.04 81.44 142.66 79.57 139.44 C 74.74 133.50 73.35 129.35 69.30 123.00 C 69.04 121.31 66.99 120.09 67.46 118.45 C 69.20 117.26 70.21 115.17 71.66 113.65 C 73.29 111.98 75.10 110.30 76.37 108.35 C 78.29 105.87 80.72 104.02 82.30 101.24 C 86.47 96.64 89.86 91.62 94.54 87.55 C 97.05 85.47 97.74 82.54 100.54 80.55 C 102.63 78.98 103.18 76.69 105.00 75.00 C 106.61 73.04 108.41 69.58 111.00 68.74 Z" fill="#000000" />
<path d="M 134.46 69.46 C 135.25 69.29 135.72 69.47 135.87 70.00 C 137.55 71.93 140.03 73.41 142.04 74.96 C 144.22 77.76 147.50 79.36 149.77 82.15 C 154.29 86.34 158.80 90.48 163.39 94.61 C 167.51 97.49 171.21 102.03 175.54 104.46 C 176.16 107.13 181.95 108.34 180.54 111.54 C 178.33 112.99 177.53 115.27 175.17 116.18 C 171.83 118.44 169.19 121.99 165.96 123.96 C 164.13 126.45 161.50 128.08 159.33 130.31 C 156.09 132.16 154.45 135.40 151.00 137.29 C 149.43 137.82 149.13 139.00 149.46 140.54 C 152.90 143.32 155.20 146.61 159.04 148.96 C 159.96 150.82 161.74 151.68 162.46 153.54 C 165.17 155.03 166.31 157.48 168.69 159.35 C 169.47 160.40 171.20 161.34 170.72 162.81 C 169.14 164.93 167.02 166.36 165.67 168.68 C 164.95 168.83 164.38 168.62 163.96 168.05 C 159.61 162.98 154.65 158.73 150.09 153.89 C 147.93 151.95 144.06 149.45 143.54 146.46 L 142.46 146.46 C 141.77 156.17 141.54 167.16 141.18 177.00 C 140.79 178.82 138.34 178.05 137.00 178.26 C 135.57 178.05 132.16 178.84 131.71 177.00 C 131.92 169.94 131.84 163.03 131.97 156.00 C 132.67 150.30 131.87 144.70 132.25 139.00 C 132.52 129.66 132.37 120.34 132.42 111.00 C 133.54 104.57 132.47 97.46 133.58 91.00 C 133.81 83.81 134.19 76.63 134.46 69.46 Z" fill="#000000" />
<path d="M 144.46 90.46 L 144.56 90.46 C 145.15 90.94 145.81 91.27 146.54 91.46 C 147.04 92.98 148.32 93.53 149.41 94.60 C 151.75 96.61 153.91 98.77 156.22 100.83 C 158.49 103.62 161.69 105.30 163.95 108.06 C 164.85 109.28 167.84 110.17 166.93 112.00 C 165.64 114.08 162.95 114.37 161.55 116.54 C 156.87 120.16 150.24 125.81 145.87 129.85 C 144.78 130.88 143.37 132.25 142.60 130.00 C 142.67 123.11 143.18 116.21 143.46 109.33 C 144.09 105.89 144.04 102.46 143.63 99.00 C 143.85 96.15 144.14 93.30 144.46 90.46 Z" fill="#ffffff" /></svg>