<?xml version="1.0" encoding="UTF-8" standalone="no"?>
<!DOCTYPE svg PUBLIC "-//W3C//DTD SVG 1.1//EN" "http://www.w3.org/Graphics/SVG/1.1/DTD/svg11.dtd">
<svg viewBox="0 0 832 832" height="832.0pt" width="832.0pt" xmlns="http://www.w3.org/2000/svg" version="1.1">
<path d="M 0.00 0.00 L 832.00 0.00 L 832.00 832.00 L 0.00 832.00 L 0.00 0.00 Z" fill="#ffffff" />
<path d="M 432.11 7.90 C 438.07 9.54 442.71 12.96 447.70 16.42 C 491.11 47.03 535.12 77.80 578.55 108.39 C 587.21 114.04 595.27 120.49 603.93 126.11 C 657.33 163.83 711.95 201.85 765.39 239.65 C 776.13 246.79 786.42 254.64 797.19 261.73 C 808.93 268.86 818.53 278.97 823.09 292.11 C 824.45 296.50 826.49 301.34 826.50 305.95 C 826.56 310.64 826.50 315.34 826.52 320.03 C 826.73 325.45 824.12 331.06 822.47 336.24 C 818.61 345.37 816.04 354.72 812.95 364.13 C 803.20 393.72 793.95 424.12 784.21 453.76 C 772.27 491.62 760.37 528.32 748.46 565.95 C 746.47 571.13 745.44 576.56 743.35 581.72 C 728.86 627.36 714.66 671.38 700.23 716.98 C 692.09 742.20 683.67 767.82 676.21 793.21 C 673.27 803.30 666.00 812.02 656.80 817.04 C 651.61 820.17 645.97 821.47 640.11 822.74 C 633.66 824.02 627.50 823.26 621.05 822.70 C 529.14 822.50 437.05 822.81 345.19 822.32 C 336.78 821.29 328.44 821.88 320.00 821.70 C 284.10 821.72 247.89 821.47 212.03 821.67 C 207.45 822.39 203.09 823.14 198.47 822.14 C 193.92 821.09 188.79 820.59 184.67 818.43 C 174.54 813.74 166.44 804.96 162.59 794.48 C 154.67 768.16 145.48 740.89 137.33 715.23 C 129.43 690.13 121.42 665.61 113.37 640.61 C 104.06 610.90 93.91 580.54 84.75 551.08 C 71.90 512.05 60.21 474.15 47.47 435.53 C 42.55 419.63 37.21 403.29 32.09 387.09 C 29.46 378.88 26.49 370.75 24.15 362.45 C 20.84 353.22 18.45 343.63 14.95 334.46 C 13.69 330.20 11.40 326.28 11.29 321.99 C 10.96 317.21 9.78 312.97 10.33 308.12 C 10.79 304.53 11.19 300.92 11.67 297.32 C 14.68 286.65 20.13 276.84 28.64 269.58 C 34.09 264.88 40.29 261.40 46.05 257.13 C 161.63 175.75 277.30 94.47 392.90 13.11 C 397.83 10.04 403.23 8.07 408.80 6.49 C 416.52 4.45 424.68 4.99 432.11 7.90 Z" fill="#1b1819" />
<path d="M 420.53 33.75 C 423.33 34.52 425.98 35.95 428.39 37.55 C 441.14 46.79 454.07 55.86 467.05 64.78 C 495.36 84.88 523.94 104.64 552.23 124.76 C 565.35 133.60 578.05 143.06 591.14 151.93 C 628.85 178.56 667.19 205.40 705.02 231.94 C 715.05 239.31 725.48 246.10 735.55 253.42 C 747.84 262.21 760.37 270.63 772.61 279.49 C 778.17 283.50 784.36 287.00 789.55 291.50 C 794.14 295.62 796.35 300.95 798.14 306.71 C 798.83 309.71 798.61 312.97 798.60 316.04 C 798.69 320.36 796.32 324.62 794.90 328.70 C 790.98 338.08 788.43 347.85 785.07 357.39 C 779.14 376.50 772.83 395.89 766.88 414.94 C 757.21 443.88 748.80 472.30 739.30 500.81 C 725.05 546.01 710.91 589.55 696.61 634.80 C 691.86 649.43 687.04 664.17 682.60 678.90 C 671.99 710.95 662.03 743.63 651.49 775.59 C 650.36 780.61 649.80 785.21 646.42 789.38 C 643.43 792.77 638.42 793.95 634.17 794.90 C 631.06 795.72 628.46 794.58 625.07 794.60 C 540.39 794.38 455.73 794.55 371.08 794.31 C 362.71 793.50 354.39 793.85 346.00 793.72 C 301.00 793.60 256.00 793.48 211.00 793.43 C 205.45 793.39 200.50 794.38 195.19 792.09 C 193.51 790.78 191.83 789.21 190.64 787.43 C 188.03 781.96 186.88 775.66 184.73 769.98 C 171.63 728.51 157.90 686.39 144.45 644.22 C 135.05 615.40 126.18 586.70 116.58 557.77 C 109.74 535.85 102.32 512.71 95.12 490.91 C 84.86 458.30 74.72 426.97 64.21 394.50 C 61.90 386.05 58.59 377.88 56.34 369.41 C 50.51 352.71 45.77 335.54 39.60 318.98 C 39.07 314.35 39.23 309.59 39.39 304.94 C 39.36 301.59 41.67 298.23 43.39 295.45 C 46.65 290.45 51.31 288.33 55.99 284.95 C 79.80 268.16 103.72 251.39 127.58 234.65 C 153.63 216.04 180.05 197.82 206.13 179.27 C 235.59 158.77 264.81 137.89 294.26 117.38 C 303.31 110.65 312.80 104.58 321.90 97.92 C 340.69 84.67 359.53 71.45 378.34 58.19 C 388.45 51.31 398.19 43.90 408.41 37.21 C 412.03 35.09 416.18 32.76 420.53 33.75 Z" fill="#ffffff" />
<path d="M 402.13 81.61 C 407.72 82.03 413.33 82.57 418.91 83.14 C 433.83 85.49 448.91 86.54 463.88 88.58 C 463.10 94.53 461.15 100.15 460.01 106.03 C 458.21 114.49 455.90 122.84 454.06 131.29 C 461.08 132.73 468.21 133.38 475.21 134.90 C 483.10 136.60 491.11 137.47 498.95 139.38 C 498.46 142.59 497.80 145.76 497.17 148.95 C 492.71 148.20 488.29 147.34 483.89 146.31 C 473.66 143.89 463.10 142.57 452.89 140.91 C 458.28 149.94 464.15 158.73 470.00 167.48 C 467.28 169.26 464.58 171.08 461.88 172.89 C 457.00 165.21 451.48 157.99 446.82 150.17 C 439.75 140.49 433.52 130.25 426.41 120.59 C 422.61 114.43 418.55 108.45 414.67 102.34 C 410.67 95.34 405.78 88.78 402.13 81.61 Z" fill="#1b1819" />
<path d="M 422.27 93.44 C 432.61 94.42 442.81 96.32 453.15 97.32 C 450.01 107.80 447.45 118.46 444.89 129.13 C 439.14 121.31 434.60 112.77 429.34 104.67 C 426.51 101.10 424.32 97.51 422.27 93.44 Z" fill="#ffffff" />
<path d="M 356.98 109.65 C 362.50 112.31 367.58 115.94 372.68 119.32 C 384.09 127.61 395.84 135.41 407.16 143.83 C 416.00 150.46 425.18 156.46 434.25 162.75 C 440.87 167.40 447.24 172.38 453.83 177.06 C 450.69 179.21 447.46 181.22 444.30 183.34 C 439.68 180.16 435.14 176.53 430.15 173.96 C 426.35 173.13 421.96 174.43 418.05 174.41 C 408.57 174.57 399.22 175.96 389.77 176.55 C 392.87 189.30 398.01 201.27 401.69 213.83 C 398.40 216.14 395.13 218.48 391.85 220.81 C 389.17 213.57 386.29 206.17 384.24 198.73 C 375.09 168.71 364.68 140.09 356.98 109.65 Z" fill="#1b1819" />
<path d="M 377.05 135.84 C 384.87 140.46 392.08 146.28 399.47 151.55 C 404.80 155.29 409.89 159.34 415.14 163.19 C 405.25 163.53 395.34 163.86 385.44 163.76 C 382.79 154.45 379.28 145.26 377.05 135.84 Z" fill="#ffffff" />
<path d="M 326.11 137.08 C 330.31 143.19 334.09 149.60 338.28 155.72 C 342.17 161.81 346.42 167.64 350.22 173.78 C 357.68 185.63 365.71 197.11 372.85 209.15 C 377.87 216.76 383.09 224.17 387.68 232.06 C 380.13 231.26 372.73 229.50 365.20 228.49 C 359.28 227.31 353.12 226.54 347.38 224.66 C 344.20 221.31 342.17 216.82 339.42 213.08 C 347.81 213.53 355.78 216.07 364.16 216.59 C 361.57 211.70 358.69 206.98 355.64 202.36 C 343.14 182.57 329.58 163.49 316.97 143.77 C 319.82 141.27 322.79 138.94 326.11 137.08 Z" fill="#1b1819" />
<path d="M 255.16 183.62 C 264.20 184.29 273.19 185.15 282.14 186.63 C 293.73 187.89 305.32 189.09 316.88 190.58 C 316.08 196.52 314.16 202.16 313.01 208.03 C 311.21 216.49 308.88 224.84 307.06 233.29 C 314.08 234.74 321.21 235.37 328.21 236.90 C 336.10 238.60 344.11 239.46 351.96 241.38 C 351.47 244.59 350.81 247.77 350.19 250.95 C 345.69 250.21 341.23 249.32 336.79 248.29 C 326.67 245.90 316.15 244.56 305.89 242.92 C 311.30 251.94 317.14 260.75 323.00 269.47 C 320.28 271.25 317.60 273.09 314.89 274.89 C 310.13 267.41 304.74 260.40 300.22 252.77 C 293.04 242.87 286.63 232.46 279.40 222.59 C 275.61 216.43 271.55 210.45 267.67 204.35 C 263.69 197.35 258.77 190.79 255.16 183.62 Z" fill="#1b1819" />
<path d="M 607.07 190.29 C 609.19 192.11 611.79 194.47 612.40 197.31 C 613.81 203.65 615.54 209.41 615.41 215.96 C 615.37 224.04 615.46 231.94 616.34 239.99 C 615.95 248.37 617.16 256.41 618.69 264.62 C 624.71 264.09 630.24 261.76 636.08 260.59 C 638.98 261.01 641.93 262.94 643.98 265.00 C 648.57 272.26 649.02 280.33 648.10 288.68 C 646.84 293.63 644.63 298.43 641.51 302.49 C 634.78 311.43 629.90 321.12 624.86 331.04 C 623.02 334.48 623.96 337.69 623.06 341.35 C 621.80 346.81 620.07 352.30 620.09 357.95 C 620.06 368.22 620.11 378.57 621.04 388.80 C 621.35 393.34 623.25 397.46 623.67 401.97 C 624.11 406.22 625.40 410.20 626.49 414.30 C 627.84 419.38 626.72 424.47 628.20 429.54 C 630.33 437.49 630.84 445.65 630.31 453.85 C 629.86 457.52 628.30 461.17 627.27 464.73 C 624.94 472.36 620.47 478.39 617.29 485.55 C 613.64 493.95 607.60 501.62 605.41 510.64 C 604.42 514.19 602.57 517.33 602.54 520.97 C 602.37 528.81 599.02 536.05 599.13 544.00 C 599.35 558.48 598.45 572.77 596.44 587.11 C 594.68 597.19 595.61 607.56 595.37 618.02 C 595.10 624.04 596.34 629.83 596.71 635.81 C 597.79 641.75 596.96 647.72 597.98 653.66 C 598.70 657.59 599.02 661.55 599.31 665.54 C 599.72 671.27 601.93 676.38 602.45 682.05 C 602.64 684.68 603.21 687.17 604.58 689.44 C 606.52 691.95 609.87 693.57 611.72 696.24 C 612.56 697.44 613.21 698.80 613.91 700.09 C 608.95 701.97 604.09 701.34 598.92 701.58 C 596.30 701.50 593.91 702.00 591.74 700.20 C 591.07 694.90 591.78 689.41 591.42 684.07 C 590.44 674.22 587.74 665.07 587.63 655.14 C 587.36 647.16 584.22 640.00 584.44 632.05 C 584.40 623.40 581.58 614.59 581.33 605.97 C 581.04 600.59 578.83 596.02 578.15 590.69 C 577.55 587.28 577.90 583.83 577.04 580.52 C 576.16 577.03 574.97 573.64 574.30 570.09 C 573.28 564.82 571.14 559.89 569.91 554.66 C 568.18 549.32 567.01 543.48 564.22 538.62 C 562.40 535.18 561.18 531.11 557.78 528.85 C 555.90 527.89 553.27 528.35 551.53 529.45 C 543.05 534.32 534.30 539.61 525.23 543.29 C 526.02 548.54 526.43 553.79 526.92 559.07 C 528.02 566.10 526.09 572.01 529.05 578.74 C 531.66 584.06 537.05 588.66 540.73 593.23 C 547.37 601.57 554.27 609.66 562.06 616.95 C 564.72 619.75 568.14 622.26 570.17 625.56 C 570.99 629.23 570.51 633.26 570.61 637.01 C 570.43 642.68 570.61 648.53 569.53 654.12 C 569.06 656.26 568.36 658.26 566.12 659.08 C 562.78 660.35 559.15 660.98 555.63 661.50 C 553.30 661.92 551.48 660.53 549.46 659.61 C 549.51 657.58 549.42 655.50 549.72 653.48 C 551.19 650.45 554.04 648.23 556.68 646.27 C 556.31 641.15 557.36 635.85 556.52 630.81 C 554.55 627.66 551.28 625.03 548.61 622.48 C 544.68 618.71 540.80 614.90 536.88 611.12 C 532.82 607.23 529.42 603.19 524.26 600.65 C 518.28 597.49 513.46 592.87 509.57 587.37 C 502.39 577.16 496.52 565.96 488.99 555.98 C 484.53 557.62 479.82 559.33 474.99 559.46 C 471.10 559.60 467.13 556.94 463.92 554.98 C 452.67 547.27 442.74 537.63 432.33 529.18 C 418.97 541.81 405.52 554.46 391.84 566.82 C 388.88 569.61 384.22 571.58 382.47 575.25 C 380.80 578.59 380.24 582.40 378.78 585.87 C 375.43 596.16 371.93 606.57 368.07 616.70 C 366.93 620.48 365.69 624.08 364.11 627.70 C 360.55 638.99 355.09 649.15 352.67 660.93 C 351.87 665.78 350.07 670.19 349.51 675.10 C 349.08 679.53 347.92 683.75 347.00 688.08 C 351.00 690.22 354.78 693.03 356.14 697.57 C 356.49 700.10 356.31 702.74 356.29 705.29 C 348.96 705.73 341.58 704.35 334.24 703.75 C 334.34 700.31 334.38 696.87 334.57 693.44 C 334.81 688.30 337.01 683.82 337.87 678.59 C 338.63 673.30 340.44 668.38 340.55 663.00 C 342.25 651.90 343.33 640.77 345.42 629.72 C 346.00 623.52 345.51 617.21 345.69 610.98 C 345.93 604.51 344.42 597.84 343.36 591.44 C 335.54 594.07 327.78 597.73 319.61 598.93 C 317.08 599.63 314.71 601.04 312.54 602.49 C 307.67 606.01 305.31 611.13 301.89 615.89 C 299.12 619.65 296.41 623.85 293.03 627.04 C 290.67 629.36 288.19 631.47 286.13 634.07 C 280.38 641.30 273.92 647.89 268.26 655.19 C 259.56 665.40 251.61 676.47 244.85 688.07 C 242.43 691.67 244.24 696.20 243.19 700.17 C 241.16 701.78 238.61 703.01 236.05 703.47 C 233.09 702.45 231.26 698.48 229.91 695.87 C 228.70 692.80 226.27 690.45 228.38 687.13 C 238.39 668.48 251.16 653.05 258.46 632.79 C 261.67 624.45 264.64 616.05 267.00 607.44 C 267.90 604.00 267.97 600.75 269.63 597.53 C 272.89 590.12 279.61 585.47 286.05 581.08 C 294.57 573.95 303.23 566.94 311.42 559.43 C 320.41 550.74 329.22 541.87 337.61 532.60 C 335.88 526.32 334.34 520.22 334.41 513.65 C 330.49 518.10 327.35 522.95 323.13 527.13 C 316.93 533.34 310.31 538.97 303.93 544.93 C 299.17 549.23 293.88 552.85 289.04 557.03 C 285.17 560.55 281.01 563.76 276.68 566.67 C 270.27 570.33 265.78 575.09 258.38 576.97 C 253.11 578.03 248.18 580.40 242.97 580.57 C 236.23 580.83 229.86 582.95 223.02 582.70 C 216.81 582.89 211.05 581.41 204.99 579.85 C 196.95 576.42 189.41 571.60 181.99 567.00 C 178.36 564.56 174.37 561.87 171.70 558.37 C 165.04 549.96 158.43 541.52 152.27 532.73 C 147.40 525.44 142.50 518.31 139.02 510.22 C 144.64 510.27 149.80 512.30 155.38 512.83 C 160.68 513.90 166.05 513.43 171.32 514.62 C 176.95 515.51 182.58 516.14 188.17 517.30 C 196.43 517.79 204.79 517.51 213.07 517.51 C 217.87 517.67 222.75 514.98 227.50 514.01 C 232.86 513.04 238.25 511.50 243.21 509.19 C 248.28 506.39 253.06 503.05 258.05 500.10 C 271.44 492.01 283.56 482.34 296.21 473.21 C 303.89 467.57 310.89 461.20 318.13 455.03 C 325.04 449.41 331.18 442.76 337.50 436.48 C 344.72 429.07 352.98 422.46 361.08 416.01 C 366.52 411.59 372.83 408.59 378.41 404.36 C 383.33 400.50 389.27 398.12 395.30 396.64 C 402.28 394.65 410.20 395.92 417.52 395.07 C 425.66 394.09 433.75 394.41 441.91 394.25 C 449.78 393.55 457.40 393.23 465.15 391.80 C 469.71 391.15 474.36 391.11 478.91 390.40 C 486.55 387.31 493.42 383.80 497.42 376.21 C 499.12 371.78 499.84 366.77 500.15 362.05 C 500.14 355.61 501.38 349.44 500.74 342.99 C 499.86 333.88 498.59 324.76 496.74 315.79 C 496.41 310.31 495.68 304.97 494.32 299.64 C 493.18 295.15 492.98 290.63 492.46 286.05 C 491.65 280.55 489.53 275.74 489.58 270.04 C 489.66 263.83 487.89 258.16 487.13 252.04 C 486.04 246.30 486.59 240.74 486.28 234.97 C 485.07 224.17 484.31 213.30 483.02 202.50 C 482.63 199.77 483.02 197.14 483.35 194.43 C 486.82 195.45 490.13 196.63 492.97 198.94 C 504.33 207.73 513.25 218.60 525.38 226.59 C 534.24 232.29 541.75 239.43 549.07 246.95 C 554.53 252.50 562.74 252.37 569.95 252.78 C 573.46 252.81 578.07 254.07 581.32 252.51 C 585.22 244.78 587.35 236.01 590.40 227.90 C 594.84 214.59 599.09 202.02 607.07 190.29 Z" fill="#1b1819" />
<path d="M 238.73 194.16 C 242.30 193.49 246.19 194.06 249.81 194.20 C 248.88 205.84 246.84 217.37 246.19 229.02 C 245.77 235.29 244.04 241.32 243.89 247.62 C 251.91 243.29 259.26 237.79 267.14 233.19 C 268.94 236.39 270.71 239.59 272.53 242.78 C 265.03 247.99 256.98 252.36 249.47 257.57 C 261.12 262.91 273.20 267.04 285.04 271.88 C 291.03 274.01 297.01 276.05 302.76 278.77 C 301.47 281.86 299.98 284.84 298.46 287.81 C 291.15 285.05 283.75 282.65 276.60 279.45 C 261.19 274.24 246.25 267.53 231.08 261.67 C 231.98 252.83 233.48 244.08 234.16 235.23 C 235.49 221.49 238.02 207.98 238.73 194.16 Z" fill="#1b1819" />
<path d="M 275.28 195.45 C 285.62 196.39 295.81 198.35 306.14 199.31 C 303.02 209.81 300.44 220.49 297.89 231.14 C 292.15 223.31 287.59 214.78 282.34 206.67 C 279.52 203.10 277.33 199.52 275.28 195.45 Z" fill="#ffffff" />
<path d="M 488.71 202.73 C 494.45 208.08 499.68 214.17 505.73 219.27 C 510.23 223.20 514.55 226.99 518.23 231.72 C 523.35 237.87 528.26 243.93 532.25 250.90 C 535.38 256.16 538.08 261.66 541.02 267.03 C 541.63 268.11 541.79 268.86 540.98 269.90 C 536.39 276.18 530.49 281.52 525.28 287.29 C 523.93 288.68 521.72 290.89 519.73 289.33 C 516.71 287.01 514.55 283.87 511.11 281.96 C 506.70 279.05 501.88 277.44 496.78 276.24 C 496.26 269.12 494.31 262.19 493.75 255.06 C 493.28 251.15 493.56 247.23 493.23 243.32 C 492.66 238.43 491.62 233.55 490.78 228.69 C 490.01 223.58 490.60 218.45 489.78 213.29 C 489.30 209.43 488.06 205.94 487.21 202.14 C 487.71 202.33 488.21 202.53 488.71 202.73 Z" fill="#ffffff" />
<path d="M 607.26 201.60 C 607.52 209.79 607.03 217.87 608.27 226.03 C 608.50 234.05 609.39 242.03 609.24 250.06 C 609.24 256.15 610.04 262.27 611.13 268.26 C 609.19 265.33 607.75 262.29 604.49 260.56 C 599.61 257.95 593.14 257.56 587.74 256.56 C 590.36 252.07 592.70 247.40 594.75 242.64 C 596.54 236.39 598.53 230.24 599.61 223.82 C 601.58 216.32 604.69 208.92 607.26 201.60 Z" fill="#ffffff" />
<path d="M 536.66 243.39 C 540.78 247.26 545.49 250.59 549.43 254.60 C 550.30 256.96 546.57 260.16 545.39 262.12 C 542.79 256.86 540.38 251.52 537.60 246.35 C 537.12 245.31 536.41 244.59 536.66 243.39 Z" fill="#ffffff" />
<path d="M 166.46 246.20 C 171.05 246.76 175.98 247.06 180.36 248.58 C 183.65 251.47 185.35 256.44 188.05 259.95 C 190.68 263.27 192.56 267.50 195.70 270.33 C 203.94 272.36 212.54 273.47 220.91 274.91 C 226.83 275.94 233.23 276.18 238.95 278.07 C 241.75 280.90 243.54 284.88 245.89 288.11 C 251.46 295.97 256.12 304.37 261.52 312.33 C 258.61 314.29 255.69 316.23 252.78 318.18 C 246.45 308.76 240.89 298.89 234.52 289.49 C 233.82 288.61 233.06 287.27 231.81 287.22 C 222.29 285.83 213.02 284.10 203.41 283.59 C 206.06 287.99 208.67 292.37 211.15 296.86 C 218.30 308.45 225.94 319.81 232.53 331.73 C 229.89 333.56 227.32 335.49 224.78 337.48 C 215.87 322.16 205.90 307.46 196.64 292.35 C 186.39 277.10 176.52 261.58 166.46 246.20 Z" fill="#1b1819" />
<path d="M 554.62 258.55 C 558.96 260.28 563.36 261.38 568.03 261.70 C 576.69 262.20 585.39 262.24 594.05 262.79 C 597.25 263.25 601.01 263.36 603.91 264.85 C 605.98 266.85 607.65 269.35 606.10 272.24 C 603.96 277.18 602.35 281.58 601.79 287.01 C 595.07 288.30 588.26 288.80 581.54 289.90 C 574.65 292.32 567.48 293.10 560.88 296.16 C 557.85 297.35 556.43 301.02 554.77 303.62 C 545.16 321.02 535.81 338.49 525.25 355.34 C 522.50 359.36 518.23 362.31 515.13 366.10 C 512.80 368.97 510.40 371.73 507.54 374.08 C 507.22 368.63 508.67 363.45 508.72 358.03 C 508.90 351.30 508.93 344.32 507.82 337.67 C 507.23 333.25 507.86 328.61 507.39 324.20 C 506.47 318.45 504.67 312.85 503.81 307.06 C 502.98 301.99 500.84 297.05 500.20 292.00 C 499.69 288.41 498.85 284.89 498.22 281.32 C 503.55 284.01 509.04 286.48 513.35 290.63 C 515.43 292.56 517.24 294.88 519.51 296.58 C 523.98 297.62 525.98 294.56 529.00 292.01 C 533.00 288.05 537.61 284.60 541.27 280.35 C 546.75 273.51 550.44 265.93 554.62 258.55 Z" fill="#ffffff" />
<path d="M 628.63 271.43 C 630.90 272.31 632.88 274.06 634.91 275.38 C 634.72 277.92 634.60 280.47 634.54 283.02 C 626.86 285.97 619.71 290.01 613.86 295.86 C 611.19 298.20 608.68 301.91 605.28 303.06 C 596.81 306.21 587.98 304.84 579.78 309.50 C 583.50 310.32 587.24 310.31 591.02 310.27 C 596.37 310.34 602.27 309.63 607.08 307.14 C 610.80 305.32 612.34 302.05 615.25 299.28 C 620.13 294.37 626.41 289.71 633.27 288.17 C 636.03 287.07 638.61 289.54 641.07 290.60 C 640.78 295.63 637.01 297.58 633.93 300.99 C 629.96 304.83 627.91 309.40 624.66 313.78 C 620.99 318.61 617.86 324.32 616.56 330.28 C 615.83 340.61 612.16 350.83 612.49 360.97 C 612.07 371.36 614.26 381.85 616.06 392.03 C 616.85 399.57 620.00 407.39 619.87 414.93 C 619.97 425.79 623.06 436.48 622.71 447.23 C 621.13 454.55 618.37 461.74 613.77 467.73 C 607.81 475.14 600.98 481.57 592.74 486.41 C 585.98 475.08 581.45 463.72 571.96 454.07 C 560.57 442.82 547.86 432.70 535.23 422.87 C 530.01 418.54 524.94 414.66 520.44 409.59 C 516.21 405.04 513.08 399.47 509.86 394.13 C 508.00 391.13 507.22 387.96 506.01 384.58 C 512.42 378.34 519.40 375.80 524.14 368.20 C 536.59 348.31 548.86 329.46 558.95 308.20 C 560.16 305.71 561.19 302.89 562.78 300.63 C 568.67 297.25 576.62 296.19 583.18 294.03 C 589.42 292.19 595.53 292.98 601.87 292.40 C 604.70 292.23 606.61 290.31 607.38 287.68 C 608.41 283.47 608.62 279.11 609.67 274.92 C 611.03 273.29 612.84 273.54 614.76 273.10 C 619.22 272.45 624.13 271.10 628.63 271.43 Z" fill="#ffffff" />
<path d="M 642.76 274.78 C 642.55 278.62 641.92 282.26 640.75 285.92 C 638.41 282.74 639.87 278.24 640.28 274.60 C 641.11 274.63 641.93 274.69 642.76 274.78 Z" fill="#ffffff" />
<path d="M 122.13 277.61 C 132.04 279.59 141.84 281.97 151.65 284.36 C 161.09 286.60 170.89 288.22 180.22 290.76 C 183.73 294.23 185.76 299.35 188.60 303.40 C 192.18 308.55 195.41 313.92 198.86 319.16 C 204.22 327.69 210.35 335.72 216.04 343.97 C 212.84 346.08 209.55 348.00 206.16 349.81 C 201.84 341.98 196.22 335.07 191.54 327.47 C 189.48 324.18 187.63 320.78 185.38 317.62 C 181.50 312.11 178.18 306.21 174.34 300.68 C 173.58 299.45 172.46 299.35 171.18 298.98 C 162.18 296.78 153.37 294.52 144.06 294.06 C 149.51 303.77 156.16 312.64 161.82 322.22 C 170.67 335.80 179.51 349.43 188.79 362.73 C 185.81 364.61 182.88 366.55 180.03 368.63 C 176.47 363.55 173.47 358.12 170.05 352.94 C 159.06 335.33 147.63 318.00 136.58 300.42 C 131.86 292.74 126.55 285.48 122.13 277.61 Z" fill="#1b1819" />
<path d="M 584.75 278.34 C 584.60 279.27 584.46 280.19 584.33 281.11 C 581.12 281.95 578.15 283.49 574.95 284.32 C 571.91 284.70 568.82 285.06 565.77 285.30 C 563.89 285.56 562.44 283.89 560.93 282.98 C 564.39 279.60 568.22 280.41 572.60 279.23 C 576.61 278.22 580.64 278.24 584.75 278.34 Z" fill="#1b1819" />
<path d="M 113.24 285.55 C 121.57 300.52 131.41 314.75 141.26 328.75 C 145.81 335.51 150.46 342.16 155.27 348.74 C 160.86 357.27 167.15 365.35 173.18 373.59 C 169.63 375.76 166.09 377.94 162.61 380.21 C 160.67 376.62 158.44 373.23 156.16 369.84 C 148.11 357.34 139.97 344.82 131.10 332.89 C 127.19 327.12 123.55 321.19 119.44 315.56 C 114.01 307.54 109.14 299.21 103.10 291.61 C 106.44 289.49 109.74 287.40 113.24 285.55 Z" fill="#1b1819" />
<path d="M 84.73 300.16 C 88.31 299.49 92.19 300.06 95.81 300.21 C 94.79 312.18 92.79 324.06 92.09 336.05 C 91.61 341.97 90.04 347.67 89.85 353.63 C 97.89 349.31 105.25 343.79 113.14 339.19 C 114.94 342.39 116.71 345.60 118.53 348.79 C 111.01 353.99 102.97 358.36 95.45 363.57 C 107.11 368.91 119.20 373.03 131.05 377.89 C 137.03 380.01 143.02 382.06 148.77 384.78 C 147.46 387.85 145.98 390.84 144.45 393.82 C 138.14 391.32 131.64 389.40 125.45 386.62 C 121.37 384.80 117.11 383.58 112.93 382.05 C 100.96 377.31 89.05 372.38 77.07 367.66 C 78.00 358.93 79.44 350.25 80.14 341.50 C 80.57 337.29 80.90 333.14 81.57 328.96 C 83.10 319.41 83.97 309.79 84.73 300.16 Z" fill="#1b1819" />
<path d="M 498.15 389.61 C 500.85 394.53 503.64 399.28 507.50 403.41 C 510.37 406.34 512.72 409.65 515.10 412.97 C 519.52 419.26 526.32 423.78 532.16 428.81 C 539.05 434.67 546.42 439.77 552.99 446.01 C 560.38 452.59 568.12 459.00 573.83 467.21 C 577.24 472.02 579.80 477.15 582.57 482.33 C 584.52 485.89 585.75 489.48 588.45 492.63 C 595.21 495.50 599.96 489.62 605.05 486.16 C 602.85 489.39 600.87 492.74 599.32 496.33 C 597.83 500.24 593.95 503.07 591.55 506.51 C 586.85 512.39 584.81 519.35 578.93 524.31 C 575.39 522.26 571.65 520.72 567.89 519.15 C 565.36 518.15 562.89 517.33 560.12 517.61 C 553.78 518.32 547.50 519.67 541.44 521.67 C 537.21 523.53 533.32 526.35 529.37 528.74 C 530.56 514.71 539.15 500.82 545.26 488.29 C 545.72 487.00 545.74 485.55 545.92 484.21 C 540.85 488.48 536.65 494.17 532.26 499.24 C 528.57 503.98 523.93 508.93 521.60 514.45 C 520.19 520.91 520.78 527.58 519.25 534.12 L 518.28 534.58 C 512.56 535.10 506.72 534.76 500.98 534.77 C 496.69 534.84 492.77 532.28 488.48 531.14 C 484.12 529.47 479.29 528.37 477.08 523.85 C 473.46 517.63 468.86 512.22 463.98 506.97 C 460.63 504.01 461.94 498.29 462.24 494.36 C 462.68 487.42 464.56 480.75 465.36 473.88 C 465.17 466.31 467.76 459.51 468.69 452.10 C 469.45 447.33 471.60 442.94 472.50 438.18 C 474.54 431.48 476.11 424.69 478.25 418.02 C 479.58 412.58 481.05 406.59 483.58 401.54 C 487.41 396.76 493.22 393.22 498.15 389.61 Z" fill="#ffffff" />
<path d="M 474.63 400.36 C 474.71 405.39 473.68 409.83 472.29 414.60 C 471.49 420.16 469.04 425.24 468.40 430.80 C 467.85 435.34 465.84 439.41 465.26 443.95 C 464.52 449.78 462.33 455.19 461.82 461.05 C 461.57 465.41 460.16 469.43 459.31 473.68 C 458.12 478.94 458.24 484.33 456.96 489.58 C 456.16 495.17 454.38 501.89 455.83 507.43 C 458.63 513.97 464.96 519.21 469.42 524.66 C 471.86 527.61 471.40 532.31 473.77 535.19 C 477.19 539.92 481.04 544.01 483.86 549.23 C 480.45 549.26 476.82 549.72 473.46 549.09 C 467.98 546.71 463.20 542.17 458.48 538.56 C 451.66 533.42 445.51 527.54 438.95 522.09 C 431.65 516.42 425.08 509.87 418.01 503.91 C 412.97 499.10 407.13 495.90 401.21 492.34 C 401.67 485.20 404.77 478.86 405.82 471.80 C 408.24 465.11 409.30 458.15 411.62 451.44 C 415.78 435.22 420.97 419.21 426.74 403.50 C 431.31 402.90 435.90 402.49 440.45 401.80 C 444.21 401.34 447.95 401.78 451.65 401.25 C 459.14 399.86 467.04 400.29 474.63 400.36 Z" fill="#ffffff" />
<path d="M 420.84 403.55 C 413.99 418.68 407.97 433.82 404.06 450.00 C 400.82 459.62 398.57 469.58 395.65 479.29 C 394.81 482.99 394.67 486.77 393.55 490.42 C 392.34 494.57 391.52 498.56 391.22 502.88 C 389.78 510.94 387.58 518.63 387.60 527.00 C 386.66 541.06 380.89 555.64 376.60 569.08 C 374.08 575.58 372.18 582.75 369.08 588.95 C 366.26 591.12 361.67 590.74 358.36 590.20 C 355.52 589.21 351.11 587.77 349.83 584.81 C 347.09 574.99 348.70 566.26 348.54 556.00 C 348.97 547.93 346.56 540.39 346.17 532.36 C 346.02 526.40 343.87 520.94 344.23 514.98 C 344.57 505.84 347.75 496.61 351.23 488.24 C 357.87 472.32 365.67 456.98 371.56 440.75 C 374.81 432.80 377.41 424.67 380.25 416.58 C 381.37 410.97 387.81 405.16 393.39 404.30 C 402.50 403.58 411.71 403.93 420.84 403.55 Z" fill="#ffffff" />
<path d="M 373.17 416.40 C 369.82 423.74 366.71 431.17 363.42 438.54 C 356.30 456.67 346.91 473.82 339.99 491.99 C 338.61 495.40 336.45 498.28 333.99 500.99 C 328.06 507.38 322.97 514.73 317.21 521.27 C 311.63 527.83 304.92 533.46 298.61 539.56 C 295.15 542.90 291.31 545.67 287.56 548.67 C 282.15 552.87 277.21 557.57 272.11 562.13 C 267.28 566.54 261.11 569.53 254.79 571.13 C 251.61 571.96 248.30 573.48 245.05 573.51 C 238.67 573.55 232.28 574.44 225.97 575.35 C 219.58 576.15 214.37 574.02 208.00 573.40 C 203.65 572.38 199.56 569.50 195.72 567.25 C 190.36 563.92 185.02 560.78 180.34 556.48 C 185.22 556.12 190.07 556.28 194.95 556.19 C 194.42 553.89 193.75 551.71 192.35 549.77 C 189.30 545.36 186.19 540.99 183.31 536.46 C 186.16 535.69 189.00 535.12 191.93 534.70 C 196.96 533.98 201.48 532.02 206.59 531.58 C 209.71 531.31 213.03 530.81 215.93 529.59 C 219.56 527.88 221.60 523.11 225.26 521.50 C 228.74 519.85 232.23 518.36 236.07 517.77 C 243.08 516.84 249.68 512.09 255.59 508.49 C 265.31 502.66 275.08 497.03 284.28 490.37 C 289.12 486.88 293.94 483.36 298.93 480.08 C 306.82 474.91 313.97 468.37 321.37 462.43 C 330.90 454.63 339.22 445.59 348.47 437.48 C 356.81 430.50 364.27 422.73 373.17 416.40 Z" fill="#ffffff" />
<path d="M 398.92 498.95 C 401.67 500.51 404.32 502.18 406.58 504.42 C 413.19 511.00 420.20 517.14 426.71 523.80 C 414.32 535.50 400.90 546.22 389.09 558.49 C 389.16 553.13 390.39 548.08 391.38 542.87 C 391.53 536.57 392.81 530.49 394.14 524.36 C 395.25 519.55 395.07 514.74 396.67 510.02 C 397.92 506.34 398.58 502.83 398.92 498.95 Z" fill="#ffffff" />
<path d="M 338.23 541.52 C 339.60 545.05 340.39 548.68 340.95 552.41 C 343.30 562.63 341.23 573.65 342.53 584.22 C 333.46 586.89 324.31 589.06 315.19 591.56 C 309.61 593.04 304.96 596.97 302.34 602.09 C 300.90 604.27 300.07 607.39 297.60 608.47 C 293.29 610.78 288.94 613.41 284.48 615.36 C 280.54 616.85 276.42 617.66 272.22 617.94 C 273.89 612.63 274.66 607.00 276.52 601.77 C 279.61 594.58 285.67 592.09 291.35 587.35 C 296.40 583.06 301.35 578.65 306.55 574.54 C 314.08 568.55 320.78 561.35 327.53 554.52 C 330.78 551.31 333.21 547.56 335.98 543.97 C 336.72 543.14 337.47 542.33 338.23 541.52 Z" fill="#ffffff" />
<path d="M 557.96 728.19 C 578.98 735.57 600.27 742.82 620.59 752.00 C 601.09 758.45 582.03 766.07 562.64 772.85 C 560.99 773.37 559.30 773.67 557.59 773.95 C 557.39 772.94 557.19 771.94 556.99 770.93 C 562.29 766.08 565.89 759.93 566.86 752.76 C 562.11 755.90 558.45 761.01 554.50 765.11 C 550.96 762.79 547.94 760.02 544.94 757.05 C 543.27 755.69 541.21 753.27 538.88 753.44 C 507.70 753.45 476.18 753.39 445.00 753.42 C 449.46 755.82 453.89 758.25 458.03 761.17 C 456.79 761.92 455.90 763.43 454.33 762.63 C 449.17 760.36 444.60 756.79 439.44 754.50 C 437.34 753.52 435.56 754.78 433.70 755.67 C 428.84 758.42 424.02 761.23 419.04 763.76 C 413.12 760.02 406.95 756.76 400.90 753.23 C 395.02 756.24 389.39 759.74 383.49 762.69 C 381.63 763.98 379.28 762.55 380.83 760.39 C 384.18 758.06 387.91 756.44 391.02 753.72 C 382.05 753.08 373.00 753.62 364.00 753.40 C 358.69 753.48 353.25 752.98 347.98 753.60 C 341.99 755.98 336.57 759.89 330.76 762.73 C 330.17 761.76 329.59 760.79 329.02 759.82 C 332.44 757.68 335.95 755.69 339.42 753.63 C 334.20 753.66 327.75 752.29 323.22 755.24 C 319.31 757.27 315.56 759.59 311.66 761.64 C 310.24 762.42 308.74 762.49 307.17 762.70 C 307.37 761.50 307.76 760.43 308.35 759.50 C 311.66 757.13 315.49 755.44 319.06 753.50 C 312.22 753.47 305.19 752.83 298.37 753.52 C 294.73 754.83 291.49 757.35 288.01 759.06 C 284.48 760.81 281.12 762.66 277.85 764.85 C 273.84 767.74 268.67 767.20 264.00 767.31 C 253.33 767.54 242.67 767.39 232.00 767.41 C 227.21 767.46 222.51 766.85 217.75 766.46 C 226.24 761.18 235.28 756.88 243.71 751.53 C 235.43 745.57 225.70 741.91 217.59 735.83 C 234.80 735.15 252.29 735.11 269.51 735.46 C 275.73 735.46 279.32 739.67 284.87 742.09 C 289.65 744.18 294.00 747.80 299.01 749.18 C 305.24 749.65 311.63 749.39 317.82 748.60 C 314.29 746.72 310.84 744.70 307.29 742.85 C 307.33 741.81 307.37 740.77 307.41 739.74 C 314.53 741.42 319.84 746.66 326.41 748.87 C 330.30 749.75 334.62 749.19 338.59 749.08 C 335.71 746.83 332.58 744.99 329.32 743.36 C 329.36 742.24 329.41 741.12 329.45 740.00 C 335.31 741.76 339.93 745.33 345.36 747.94 C 348.87 749.66 352.22 749.24 355.99 749.25 C 367.84 749.04 379.73 749.58 391.57 749.10 C 388.04 746.52 384.27 744.36 380.34 742.44 C 380.38 741.30 380.42 740.15 380.46 739.01 C 387.62 741.13 393.26 746.21 400.10 748.74 C 404.84 747.49 409.23 743.94 413.60 741.68 C 415.59 740.76 418.17 738.34 420.37 739.73 C 426.05 742.62 431.60 745.83 437.20 748.88 C 442.48 746.34 447.37 743.14 452.53 740.39 C 455.02 739.07 455.29 739.26 457.60 740.93 C 453.82 744.16 449.34 746.19 445.37 749.14 C 452.61 749.56 459.77 748.71 467.00 748.81 C 490.74 748.76 515.03 748.91 538.80 748.71 C 541.13 748.78 542.79 746.86 544.42 745.48 C 547.46 742.52 550.56 739.67 553.98 737.14 C 558.19 741.26 561.54 746.79 566.64 749.50 C 564.92 741.66 562.12 736.45 556.13 731.08 C 556.74 730.11 557.35 729.15 557.96 728.19 Z" fill="#1b1819" />
<path d="M 564.43 734.28 C 577.71 738.94 590.96 743.73 604.21 748.47 C 593.02 749.08 581.77 748.49 570.56 748.79 C 569.03 743.70 566.86 738.99 564.43 734.28 Z" fill="#ffffff" />
<path d="M 417.61 743.75 C 418.50 743.31 419.40 743.32 420.29 743.77 C 423.36 745.09 426.25 747.07 428.89 749.10 C 422.33 749.54 415.62 749.48 409.06 749.06 C 411.70 747.06 414.55 745.05 417.61 743.75 Z" fill="#ffffff" />
<path d="M 291.91 752.65 C 287.40 755.79 282.40 757.91 277.74 760.77 C 275.25 762.20 272.92 763.81 270.01 764.09 C 266.38 764.38 262.66 763.78 259.00 763.76 C 249.11 763.64 239.21 763.65 229.31 763.63 C 235.16 760.99 240.64 757.38 246.32 754.44 C 248.77 753.09 251.24 753.47 253.94 753.35 C 266.61 753.31 279.25 752.79 291.91 752.65 Z" fill="#ffffff" />
<path d="M 546.31 753.43 C 550.96 753.32 555.62 753.39 560.27 753.49 C 558.15 755.78 556.02 758.05 553.92 760.35 C 551.36 758.08 548.72 755.86 546.31 753.43 Z" fill="#ffffff" /></svg>