<?xml version="1.0" encoding="UTF-8" ?>
<!DOCTYPE svg PUBLIC "-//W3C//DTD SVG 1.1//EN" "http://www.w3.org/Graphics/SVG/1.1/DTD/svg11.dtd">
<svg width="1092pt" height="916pt" viewBox="0 0 1092 916" version="1.1" xmlns="http://www.w3.org/2000/svg">
<path fill="#ffffff" d=" M 0.00 0.00 L 1092.00 0.00 L 1092.00 916.00 L 0.00 916.00 L 0.00 0.00 Z" />
<path fill="#020202" d=" M 409.14 29.30 C 420.69 28.06 432.56 27.57 443.99 30.09 C 451.46 31.62 457.64 36.24 464.38 39.50 C 481.55 50.05 498.07 62.67 509.34 79.65 C 513.13 84.97 517.39 90.04 520.04 96.06 C 524.14 104.76 528.35 113.55 530.05 123.08 C 531.61 131.28 533.14 139.52 533.86 147.85 C 534.20 152.61 535.77 157.20 535.75 162.00 C 536.51 168.95 538.76 175.75 542.26 181.81 C 544.32 185.87 548.10 188.66 550.37 192.60 C 554.79 197.51 559.48 202.40 565.33 205.61 C 570.76 208.75 574.96 213.77 580.90 216.08 C 587.54 219.74 594.52 222.72 601.62 225.36 C 608.88 227.33 615.80 230.36 622.76 233.17 C 627.10 234.23 631.28 235.84 635.52 237.24 C 642.42 238.89 648.62 242.42 655.29 244.74 C 665.81 249.13 676.36 253.44 686.63 258.40 C 689.04 259.58 691.66 260.46 693.71 262.28 C 697.61 265.82 703.21 267.21 706.36 271.63 C 709.18 275.76 713.41 278.57 716.72 282.27 C 720.40 286.56 724.46 290.51 728.39 294.58 C 730.20 297.79 731.52 301.28 733.67 304.31 C 737.72 309.60 738.43 316.51 741.66 322.24 C 744.56 327.50 746.07 333.33 748.25 338.89 C 752.03 349.24 750.51 360.49 752.57 371.17 C 763.87 371.19 775.04 373.54 785.98 376.19 C 797.08 380.80 808.52 384.87 818.77 391.24 C 823.35 395.06 828.94 397.54 833.10 401.88 C 840.07 407.55 846.66 413.81 851.80 421.22 C 855.65 426.70 859.84 431.99 862.96 437.94 C 869.76 450.43 873.32 464.49 874.23 478.64 C 875.24 483.97 873.96 489.32 872.40 494.41 C 870.04 504.62 865.93 514.28 861.79 523.87 C 859.44 527.76 858.95 532.53 856.03 536.11 C 853.62 539.07 853.42 543.14 851.10 546.14 C 847.01 552.30 842.87 558.46 837.96 564.00 C 834.04 569.14 831.49 575.25 826.78 579.79 C 829.58 584.10 832.43 588.40 835.55 592.49 C 838.44 598.45 842.60 603.71 845.23 609.80 C 847.59 615.25 851.19 620.03 853.72 625.39 C 856.85 630.88 858.15 637.12 860.03 643.09 C 861.82 648.04 862.25 653.34 863.87 658.35 C 865.46 666.26 868.74 673.80 869.02 681.95 C 870.17 689.93 869.13 697.94 869.29 705.94 C 868.15 712.21 868.32 718.82 865.76 724.76 C 864.08 728.81 863.15 733.15 861.01 737.01 C 858.91 740.80 857.84 745.05 855.77 748.84 C 851.43 755.92 847.24 763.40 840.63 768.64 C 837.69 771.00 835.41 774.06 832.49 776.43 C 829.40 778.37 826.20 780.13 823.12 782.10 C 812.96 787.60 801.27 788.61 790.03 790.18 C 784.00 790.13 777.99 789.29 772.00 788.64 C 762.53 789.23 753.71 785.09 744.55 783.50 C 734.77 780.58 724.72 778.76 714.89 776.05 C 706.49 772.80 697.21 772.09 689.25 767.68 C 684.46 764.97 679.36 762.88 674.37 760.59 C 673.14 760.01 671.76 760.21 670.47 760.14 C 668.16 765.24 667.16 770.81 664.87 775.94 C 662.61 781.00 661.33 786.54 658.23 791.22 C 655.03 796.35 651.89 801.53 648.87 806.77 C 645.71 813.29 639.84 817.79 635.28 823.26 C 632.49 826.12 630.30 829.73 626.69 831.66 C 622.34 834.17 618.97 838.01 614.86 840.85 C 606.18 845.57 597.50 850.32 588.59 854.61 C 577.58 861.54 564.45 862.81 552.01 865.29 C 546.95 865.41 542.17 867.53 537.09 867.47 C 530.10 867.67 523.09 868.78 516.11 867.83 C 507.08 866.54 498.25 864.13 489.55 861.46 C 482.04 858.52 474.89 854.78 467.49 851.61 C 462.95 849.74 459.54 846.04 455.34 843.60 C 447.03 838.44 441.15 830.50 434.46 823.56 C 432.56 821.10 430.91 818.46 428.89 816.10 C 423.56 810.00 421.52 801.93 419.63 794.25 C 418.11 789.29 417.37 784.15 416.67 779.02 C 415.92 768.34 417.37 757.66 417.17 746.97 C 417.48 739.01 419.37 731.24 420.38 723.36 C 424.25 707.86 428.05 692.34 431.94 676.84 C 435.54 663.86 443.76 653.01 448.90 640.71 C 449.80 636.47 452.46 632.81 452.94 628.47 C 446.46 623.17 440.75 617.05 434.61 611.39 C 428.18 604.78 420.79 599.23 414.15 592.85 C 409.81 588.15 405.25 583.65 401.68 578.31 C 395.54 569.11 389.60 559.78 383.28 550.71 C 378.34 543.70 376.15 535.29 372.30 527.71 C 368.99 518.39 366.30 508.85 363.86 499.27 C 363.24 494.07 361.68 489.06 360.83 483.90 C 360.23 474.69 360.34 465.38 362.05 456.29 C 362.98 451.68 363.31 446.99 363.68 442.32 C 365.01 434.44 365.59 426.47 366.77 418.58 C 368.73 411.06 368.30 403.16 370.48 395.71 C 372.10 387.86 371.98 379.78 373.71 371.95 C 375.19 364.27 375.42 356.45 376.64 348.74 C 377.10 339.73 379.26 330.71 377.57 321.69 C 377.43 313.05 374.23 304.93 370.82 297.14 C 367.51 290.76 362.24 285.74 356.94 281.02 C 346.27 273.15 334.58 266.82 323.60 259.39 C 315.95 254.14 310.07 246.91 303.74 240.24 C 296.51 231.93 292.86 221.26 289.91 210.83 C 289.42 204.88 287.54 199.18 285.25 193.70 C 282.10 181.89 274.56 171.41 264.54 164.47 C 256.77 157.89 247.38 153.48 237.73 150.41 C 232.06 149.42 226.84 146.71 221.12 145.88 C 215.38 144.91 209.69 143.70 204.04 142.34 C 187.30 142.15 171.42 148.84 157.24 157.20 C 154.26 159.95 150.56 161.63 147.01 163.48 C 146.02 157.84 145.29 152.08 146.16 146.37 C 147.74 134.97 149.82 123.63 152.68 112.48 C 154.56 107.71 156.50 102.85 159.83 98.88 C 162.01 94.57 165.11 90.91 168.51 87.52 C 172.10 81.27 178.85 77.49 185.59 75.45 C 188.64 74.41 191.01 71.90 194.25 71.30 C 199.89 70.14 204.88 67.04 210.44 65.55 C 220.30 62.47 230.66 60.74 241.01 61.22 C 247.37 61.24 253.61 59.36 259.99 59.79 C 264.66 59.93 269.37 59.59 274.02 60.33 C 279.06 60.96 284.03 59.51 289.08 59.81 C 293.28 60.19 297.10 58.12 301.14 57.35 C 307.60 55.99 313.95 54.20 320.31 52.43 C 325.41 50.99 330.88 51.13 335.80 49.01 C 341.73 46.98 347.96 46.05 354.10 44.91 C 367.21 39.83 380.45 34.54 394.45 32.54 C 399.52 32.34 404.09 29.71 409.14 29.30 Z" />
<path fill="#ffffff" d=" M 385.54 40.69 C 400.94 38.20 416.30 33.21 432.07 35.19 C 439.49 35.54 446.42 38.38 453.35 40.80 C 460.23 43.47 466.16 47.94 472.68 51.32 C 480.55 56.61 487.62 63.01 494.30 69.71 C 502.62 79.58 510.79 89.79 516.58 101.41 C 519.66 108.86 522.44 116.47 523.82 124.45 C 526.22 131.85 526.21 139.69 527.38 147.32 C 527.86 154.70 529.98 161.84 530.67 169.21 C 531.56 178.46 537.86 185.68 543.16 192.83 C 548.32 198.65 553.59 204.40 559.46 209.51 C 565.18 213.83 570.81 218.34 577.01 221.97 C 599.76 233.29 624.47 239.74 648.10 248.86 C 655.33 252.23 663.09 254.30 670.27 257.79 C 675.56 260.58 681.10 262.87 686.41 265.62 C 696.52 271.44 706.28 278.16 714.16 286.84 C 721.79 294.02 726.81 303.37 731.14 312.77 C 736.84 325.22 741.28 338.23 744.63 351.50 C 745.92 360.00 745.90 368.67 747.53 377.13 C 747.20 382.42 747.10 387.72 747.51 393.02 C 747.33 403.37 746.63 413.71 745.66 424.01 C 745.34 431.08 743.55 437.96 743.30 445.04 C 742.71 453.01 741.65 460.97 739.68 468.74 C 737.83 477.80 737.46 487.29 733.44 495.78 C 726.70 492.76 719.27 493.21 712.08 492.54 C 715.64 470.56 720.14 448.50 719.65 426.11 C 719.12 415.73 720.15 405.24 717.97 394.99 C 717.28 387.89 715.49 380.98 712.74 374.41 C 711.85 369.33 707.40 366.25 705.07 361.90 C 699.81 355.87 695.49 348.80 688.55 344.49 C 685.99 343.05 683.62 341.30 681.11 339.78 C 674.94 337.18 669.26 332.99 662.35 332.61 C 655.20 332.17 648.21 329.95 641.01 330.46 C 632.51 330.70 623.95 330.94 615.60 332.68 C 607.87 334.71 599.82 334.61 592.02 336.28 C 581.13 336.50 571.60 342.17 561.52 345.56 C 551.48 348.86 541.55 352.81 532.72 358.71 C 530.42 360.16 527.62 360.69 525.54 362.51 C 517.63 368.97 509.30 374.89 501.58 381.59 C 495.11 387.22 490.65 394.64 485.10 401.10 C 479.94 408.24 475.03 415.59 469.28 422.28 C 465.80 427.17 461.92 431.82 459.44 437.34 C 455.27 443.78 452.99 451.08 450.33 458.21 C 445.39 467.18 442.98 477.21 439.78 486.87 C 438.06 497.82 436.71 508.87 436.61 519.98 C 436.85 527.07 438.90 533.90 440.06 540.85 C 441.34 546.87 443.99 552.47 445.60 558.39 C 448.38 567.42 453.59 575.37 458.89 583.09 C 465.42 591.50 471.49 600.38 479.48 607.51 C 486.13 614.23 492.82 620.96 500.60 626.39 C 510.52 632.61 519.03 640.76 528.84 647.16 C 541.88 656.38 556.30 663.35 570.62 670.35 C 574.32 671.86 577.97 673.53 581.44 675.55 C 590.37 679.89 599.50 683.87 608.24 688.61 C 613.17 690.98 617.56 694.38 622.75 696.23 C 626.48 697.57 629.29 700.55 632.88 702.16 C 636.30 703.08 639.76 703.91 643.03 705.33 C 640.82 713.96 637.94 722.44 634.73 730.76 C 633.95 733.78 632.45 736.53 630.54 738.98 C 624.48 735.71 617.93 733.49 611.90 730.15 C 604.83 726.65 598.26 722.23 591.17 718.75 C 586.66 716.51 582.56 713.53 578.66 710.36 C 571.18 704.33 562.61 699.87 554.91 694.14 C 540.78 684.90 526.30 676.20 512.47 666.51 C 495.06 652.89 476.12 641.22 459.91 626.11 C 452.12 619.94 445.45 612.53 437.98 606.01 C 431.90 599.72 424.88 594.45 418.89 588.09 C 415.93 584.39 411.94 581.60 409.46 577.52 C 405.19 570.80 400.46 564.37 396.54 557.44 C 394.07 552.48 389.86 548.66 387.36 543.72 C 385.59 540.08 383.38 536.65 382.12 532.79 C 380.74 528.44 377.93 524.70 376.73 520.30 C 375.19 514.22 372.49 508.50 371.37 502.31 C 366.16 488.77 364.92 473.85 367.34 459.57 C 367.89 447.95 370.82 436.62 371.78 425.04 C 371.77 418.90 374.32 413.17 375.14 407.14 C 375.94 401.04 377.74 395.11 378.70 389.07 C 378.18 379.19 379.81 369.42 381.73 359.77 C 383.22 343.58 386.83 326.89 382.25 310.89 C 378.79 301.57 375.00 292.13 368.67 284.34 C 354.51 268.03 332.65 261.63 317.46 246.53 C 311.34 239.16 304.06 232.20 300.99 222.88 C 296.16 212.88 295.97 201.44 291.88 191.19 C 288.24 183.78 285.27 175.63 279.08 169.90 C 276.20 166.80 273.60 163.35 270.08 160.92 C 260.98 154.46 251.49 147.94 240.43 145.48 C 234.15 144.14 228.33 141.32 222.10 139.81 C 215.41 138.36 208.81 136.31 201.98 135.64 C 197.26 136.58 192.43 136.77 187.69 137.63 C 184.24 138.68 180.74 139.53 177.15 139.93 C 171.06 142.97 165.29 146.85 158.69 148.77 C 156.19 149.67 154.21 151.51 152.06 153.02 C 152.76 138.81 155.17 124.59 160.04 111.18 C 162.35 105.54 166.42 100.90 169.98 96.06 C 173.73 88.29 182.52 85.81 188.96 80.95 C 192.94 78.68 197.65 78.05 201.64 75.73 C 204.42 73.89 207.87 73.90 210.90 72.70 C 215.47 70.87 220.34 70.00 225.09 68.76 C 231.99 68.51 238.81 67.47 245.73 67.60 C 262.41 65.61 279.25 67.92 295.93 66.02 C 300.00 65.63 303.59 63.46 307.57 62.65 C 316.75 60.67 325.80 58.20 334.91 55.98 C 341.67 55.82 347.59 52.33 354.09 50.94 C 360.27 49.62 365.97 46.73 372.10 45.23 C 376.67 44.01 381.05 42.19 385.54 40.69 Z" />
<path fill="#010101" d=" M 414.42 51.38 C 427.26 50.29 440.01 53.12 452.24 56.77 C 456.57 57.32 459.57 60.61 462.93 63.02 C 477.92 72.16 487.17 87.77 494.97 103.02 C 498.08 110.76 500.34 118.81 503.72 126.45 C 506.18 134.59 509.99 142.39 511.04 150.91 C 511.53 155.93 513.79 160.53 514.56 165.49 C 516.66 172.69 516.96 180.57 521.08 187.05 C 524.15 193.97 527.18 201.04 531.97 206.99 C 535.16 211.14 538.76 214.97 541.73 219.31 C 545.66 224.99 552.10 227.88 557.92 231.18 C 570.04 237.32 583.06 241.26 595.59 246.40 C 605.94 249.35 616.17 252.79 626.08 257.00 C 632.19 259.59 638.81 260.67 644.93 263.25 C 654.44 266.85 663.68 271.24 672.17 276.85 C 681.94 281.89 690.04 289.55 697.40 297.61 C 700.69 302.06 703.60 306.81 706.23 311.69 C 707.34 314.83 707.84 318.17 709.19 321.25 C 709.92 322.87 708.32 324.37 707.39 325.53 C 702.81 326.30 698.66 323.70 694.27 322.93 C 690.61 321.31 687.36 318.74 683.41 317.77 C 678.97 315.99 674.69 313.72 669.85 313.21 C 654.33 308.78 638.17 305.72 621.98 306.75 C 613.51 306.82 605.03 306.10 596.58 306.68 C 588.04 307.68 579.61 309.44 571.04 310.21 C 567.44 310.43 563.99 311.53 560.65 312.80 C 553.17 315.18 545.57 317.24 538.34 320.33 C 530.05 324.58 521.72 328.84 513.90 333.91 C 504.27 341.53 494.37 348.97 486.01 358.02 C 478.86 364.58 472.11 371.77 467.12 380.14 C 461.78 385.79 459.09 393.24 454.27 399.28 C 451.19 403.28 448.06 407.26 445.93 411.89 C 442.22 416.87 440.28 422.81 437.06 428.09 C 434.75 432.44 432.88 437.03 429.99 441.07 C 427.22 444.86 425.92 449.43 423.38 453.35 C 421.00 456.80 421.05 461.20 418.88 464.75 C 417.57 469.29 415.82 474.23 411.20 476.37 C 409.58 476.72 407.34 477.50 406.15 475.88 C 402.84 471.81 400.81 466.69 400.42 461.46 C 399.30 457.70 398.41 453.88 398.31 449.94 C 398.68 439.62 397.30 429.17 399.17 418.93 C 399.65 415.26 400.91 411.73 401.05 408.00 C 401.19 402.22 403.77 396.78 403.68 390.98 C 403.61 387.46 405.10 384.20 405.76 380.82 C 406.34 372.17 407.94 363.64 408.96 355.05 C 410.28 349.34 409.68 343.37 410.74 337.60 C 413.32 324.00 410.70 310.13 407.31 296.92 C 406.43 292.57 403.64 289.01 402.23 284.86 C 400.08 280.45 398.45 275.63 394.86 272.13 C 392.65 270.35 390.19 268.80 388.50 266.47 C 383.92 259.67 375.86 256.81 368.88 253.18 C 362.36 249.85 355.16 248.00 348.98 244.02 C 344.88 241.42 339.94 240.11 336.60 236.42 C 331.57 233.76 329.61 228.14 326.07 224.00 C 322.37 217.95 318.12 212.04 315.98 205.23 C 314.78 198.86 312.64 192.73 310.39 186.67 C 309.15 180.95 306.08 175.94 303.22 170.93 C 301.44 166.01 298.02 162.02 295.33 157.61 C 291.57 152.43 286.21 148.76 281.99 144.03 C 274.33 138.19 266.50 132.48 257.85 128.18 C 253.50 124.73 247.90 123.86 242.74 122.24 C 227.60 119.24 211.86 118.50 196.60 121.36 C 192.15 121.51 188.40 124.10 184.20 125.21 C 180.61 126.21 177.27 127.86 174.02 129.63 C 172.53 129.17 171.06 128.69 169.59 128.22 C 169.26 126.22 168.96 124.22 168.82 122.21 C 173.65 113.56 179.16 105.19 186.11 98.09 C 189.58 95.08 193.66 92.90 197.44 90.32 C 201.84 87.47 207.25 87.45 212.10 85.82 C 217.74 85.01 223.17 82.48 228.97 83.42 C 238.02 82.81 246.97 84.74 256.02 84.35 C 263.71 84.91 271.34 83.50 279.02 83.69 C 286.12 83.89 292.91 81.19 300.01 81.27 C 306.39 81.47 312.55 79.77 318.82 79.04 C 326.32 76.30 334.27 75.20 341.83 72.60 C 351.43 70.54 359.76 65.16 368.90 61.82 C 377.30 58.46 385.77 54.35 395.00 54.13 C 401.48 53.27 407.95 52.32 414.42 51.38 Z" />
<path fill="#ffffff" d=" M 408.46 56.95 C 416.63 55.28 424.96 56.68 433.08 57.94 C 439.79 58.94 446.06 61.59 452.47 63.66 C 456.93 65.94 461.53 68.28 464.97 72.03 C 469.22 76.11 474.35 79.68 476.72 85.31 C 478.12 88.69 481.39 90.68 483.23 93.76 C 486.05 97.97 486.85 103.15 489.68 107.36 C 491.44 109.83 491.63 112.92 492.30 115.79 C 492.85 118.83 495.01 121.24 495.79 124.20 C 497.98 133.28 502.42 141.68 504.17 150.89 C 505.25 155.30 505.57 159.87 506.82 164.24 C 509.47 172.05 510.33 180.45 514.15 187.85 C 516.91 193.20 518.56 199.09 521.81 204.17 C 527.62 212.24 533.79 220.15 541.52 226.49 C 544.90 229.10 547.61 232.67 551.64 234.34 C 559.03 238.21 566.80 241.24 574.35 244.76 C 580.93 247.91 588.20 249.23 594.88 252.13 C 610.02 257.22 624.84 263.25 640.12 267.94 C 650.36 270.52 659.41 276.23 668.37 281.63 C 677.19 287.55 686.24 293.69 692.40 302.55 C 695.43 307.30 699.39 311.78 700.04 317.61 C 697.25 316.75 694.43 316.00 691.55 315.58 C 690.66 313.59 689.41 311.31 687.05 310.95 C 677.20 308.36 667.21 306.38 657.37 303.78 C 646.24 302.98 635.18 301.10 624.00 300.70 C 616.65 301.10 609.33 299.87 602.00 300.73 C 596.30 299.88 590.68 301.33 585.04 301.96 C 574.24 303.48 563.57 305.85 553.15 309.08 C 542.48 309.99 533.19 315.81 523.28 319.33 C 519.53 321.42 516.14 324.12 512.75 326.75 C 504.31 334.37 494.76 340.67 486.58 348.58 C 477.28 356.63 469.30 366.08 461.95 375.90 C 457.19 384.03 451.07 391.25 446.48 399.46 C 443.96 404.13 439.84 407.80 438.01 412.85 C 436.35 416.41 433.42 419.22 431.88 422.87 C 426.63 434.66 419.22 445.41 414.56 457.48 C 413.11 460.46 411.38 463.30 409.86 466.25 C 408.58 463.81 407.33 461.31 406.94 458.56 C 406.10 453.08 403.71 447.63 405.19 442.03 C 405.24 429.43 405.97 416.82 408.24 404.41 C 409.24 393.88 412.38 383.69 413.22 373.14 C 414.97 367.18 414.41 360.88 416.08 354.90 C 416.38 344.94 417.03 334.93 418.30 325.03 C 417.99 318.74 419.68 312.33 417.89 306.16 C 416.38 299.44 414.62 292.74 411.76 286.47 C 411.44 283.00 408.54 280.75 407.49 277.55 C 403.26 270.95 397.43 265.55 391.34 260.68 C 384.83 254.91 377.78 249.63 369.73 246.21 C 362.46 241.65 354.58 238.25 347.27 233.78 C 341.37 230.96 337.33 225.68 333.04 220.95 C 329.21 215.15 325.82 209.03 323.41 202.48 C 321.05 197.84 320.82 192.54 319.00 187.71 C 317.64 183.35 315.23 179.41 313.83 175.06 C 312.28 170.40 308.77 166.80 306.68 162.42 C 304.34 157.65 300.67 153.74 297.58 149.48 C 293.75 143.68 287.77 139.89 282.76 135.24 C 279.62 132.25 275.65 130.38 272.20 127.80 C 268.62 125.13 264.13 124.14 260.61 121.38 C 256.55 119.50 252.29 117.96 247.89 117.05 C 239.61 114.07 230.75 113.41 222.03 112.82 C 218.67 112.46 215.37 113.32 212.03 113.53 C 199.84 113.91 187.95 117.19 176.30 120.53 C 180.05 109.86 189.56 102.79 198.33 96.34 C 204.73 92.59 212.39 91.79 219.61 91.06 C 234.23 87.37 249.27 92.44 264.04 90.82 C 269.03 90.58 274.03 90.36 279.04 90.29 C 282.92 89.53 286.86 89.27 290.81 89.15 C 297.41 87.73 304.18 87.27 310.85 86.33 C 321.64 83.84 331.79 78.97 342.83 77.55 C 348.07 76.80 352.58 73.89 357.62 72.50 C 361.25 71.04 364.28 68.36 368.03 67.15 C 375.27 64.63 382.16 60.73 389.90 59.97 C 396.15 59.33 402.21 57.54 408.46 56.95 Z" />
<path fill="#010101" d=" M 407.48 75.87 C 414.28 74.12 421.13 76.20 427.95 76.48 C 431.71 76.41 434.31 79.66 437.96 80.05 C 443.28 81.67 448.27 84.30 453.16 86.92 C 456.84 89.88 460.98 92.31 464.31 95.68 C 474.56 110.49 477.64 130.30 471.55 147.35 C 469.55 152.85 468.16 158.77 464.35 163.39 C 461.66 166.44 460.57 170.70 457.17 173.16 C 448.43 180.20 438.51 187.21 426.92 187.86 C 420.20 187.43 413.44 188.76 406.80 187.34 C 401.88 186.93 397.55 184.45 392.88 183.08 C 384.50 180.68 376.38 175.98 371.31 168.74 C 368.03 163.31 363.76 158.38 361.69 152.31 C 359.95 145.01 360.81 137.44 360.64 130.03 C 363.54 117.70 367.13 105.14 375.00 94.96 C 377.50 91.82 380.72 89.38 383.69 86.72 C 386.08 84.76 388.13 82.25 391.10 81.13 C 396.42 79.00 401.80 76.84 407.48 75.87 Z" />
<path fill="#ffffff" d=" M 417.18 81.54 C 422.73 82.41 428.58 82.67 433.65 85.38 C 439.91 88.52 446.88 90.24 452.63 94.37 C 455.18 96.49 457.81 98.59 459.84 101.25 C 464.03 108.27 466.39 116.22 467.64 124.27 C 467.66 132.35 467.96 140.91 464.21 148.33 C 461.78 153.42 460.55 159.31 456.37 163.36 C 453.67 166.03 451.56 169.20 449.02 172.00 C 444.32 174.99 439.59 177.96 434.72 180.68 C 429.29 183.73 422.85 182.62 416.91 182.60 C 410.97 182.83 405.71 179.64 399.86 179.16 C 392.54 176.83 385.49 173.39 379.59 168.40 C 375.20 165.91 373.53 160.94 371.14 156.82 C 368.40 152.30 367.41 147.05 365.92 142.06 C 365.47 135.83 367.01 129.65 367.72 123.48 C 370.53 114.28 373.33 104.39 380.59 97.60 C 385.43 93.38 390.07 88.48 396.32 86.40 C 403.04 83.98 409.91 81.12 417.18 81.54 Z" />
<path fill="#010101" d=" M 408.40 92.54 C 417.34 91.53 426.67 92.29 434.96 96.00 C 439.44 98.38 443.96 100.88 447.76 104.27 C 451.38 108.90 454.95 114.00 455.65 119.99 C 456.28 124.98 456.95 129.98 457.16 135.01 C 457.43 138.29 455.37 141.02 454.09 143.87 C 452.28 150.05 448.30 155.31 444.05 160.04 C 439.32 163.30 435.66 167.99 430.24 170.25 C 421.67 175.09 411.60 172.05 402.42 171.41 C 394.11 169.34 387.35 163.42 382.29 156.73 C 375.18 146.63 375.10 133.36 377.96 121.78 C 379.97 116.00 381.55 109.60 386.40 105.44 C 393.07 100.17 399.48 93.53 408.40 92.54 Z" />
<path fill="#ffffff" d=" M 406.27 99.00 C 412.58 98.40 419.21 98.40 425.32 100.49 C 435.74 103.01 446.48 109.42 449.35 120.44 C 449.91 128.44 450.13 136.94 446.37 144.27 C 443.57 150.39 439.16 155.95 433.28 159.35 C 429.97 161.47 427.37 165.37 423.08 165.40 C 420.54 165.29 418.20 167.22 415.67 166.32 C 411.52 164.96 406.93 166.15 402.97 164.06 C 399.69 162.35 396.35 160.74 393.17 158.87 C 389.89 155.40 387.14 151.42 384.69 147.33 C 382.95 139.69 383.03 131.35 386.20 124.08 C 388.03 118.19 389.22 111.40 394.31 107.32 C 398.04 104.25 401.63 100.65 406.27 99.00 Z" />
<path fill="#ffffff" d=" M 619.42 336.67 C 627.25 336.66 635.02 335.14 642.85 335.35 C 650.33 336.30 657.78 337.57 665.21 338.88 C 671.93 341.29 678.42 344.57 684.24 348.70 C 693.51 357.25 702.23 366.86 707.28 378.56 C 702.03 380.54 696.45 381.26 690.96 382.18 C 679.28 382.53 668.37 387.19 657.29 390.39 C 646.44 395.02 635.96 400.59 626.17 407.17 C 621.38 411.56 615.81 414.94 610.34 418.38 C 602.19 424.15 594.62 430.70 586.48 436.47 C 578.59 445.26 569.22 452.53 561.21 461.20 C 553.13 469.49 545.87 478.50 538.00 486.97 C 534.30 492.20 530.33 497.23 526.18 502.10 C 520.40 510.94 514.06 519.39 508.28 528.24 C 498.83 543.40 488.96 558.31 479.65 573.56 C 476.43 578.98 476.01 586.03 471.26 590.47 C 469.48 588.02 467.57 585.69 465.53 583.47 C 460.74 577.05 456.90 569.98 453.03 562.99 C 450.94 556.82 448.36 550.81 446.51 544.56 C 444.89 537.68 443.45 530.75 442.29 523.78 C 442.09 514.10 441.96 504.29 443.86 494.75 C 445.30 491.31 446.14 487.69 446.70 484.01 C 449.20 476.61 451.93 469.27 455.14 462.14 C 456.76 458.00 457.57 453.56 459.70 449.61 C 462.54 444.14 465.22 438.57 468.23 433.18 C 472.23 426.06 478.63 420.65 482.54 413.49 C 484.97 409.90 487.26 406.22 489.55 402.54 C 499.02 390.71 510.62 380.75 522.63 371.58 C 525.66 369.18 529.15 367.48 532.31 365.26 C 539.00 360.69 546.55 357.67 553.59 353.72 C 561.09 349.97 569.07 347.25 577.17 345.12 C 590.87 340.59 605.43 339.97 619.42 336.67 Z" />
<path fill="#ffffff" d=" M 753.27 379.09 C 756.47 377.66 760.03 376.89 763.52 377.62 C 770.43 378.78 777.47 379.55 784.13 381.83 C 794.01 385.09 803.89 388.68 812.73 394.31 C 816.73 397.01 821.34 398.76 825.06 401.90 C 832.06 407.16 838.70 412.96 844.22 419.79 C 854.51 432.20 863.59 446.30 866.71 462.35 C 866.64 468.01 868.58 473.40 869.15 478.98 C 868.20 490.86 863.97 502.08 860.24 513.29 C 857.48 520.37 853.48 526.92 851.01 534.12 C 844.64 544.27 838.46 554.60 831.23 564.20 C 824.22 574.66 815.41 583.88 805.03 591.04 C 799.54 596.89 792.27 600.52 785.41 604.50 C 778.86 607.94 772.46 611.68 765.67 614.63 C 759.61 616.77 754.29 620.76 747.93 622.08 C 738.72 623.92 729.32 624.93 719.95 625.10 C 716.32 624.30 712.80 625.83 709.20 626.04 C 710.20 619.58 711.87 613.21 714.33 607.15 C 715.07 605.44 714.58 603.56 714.48 601.79 C 718.32 600.99 721.63 598.72 725.30 597.41 C 730.77 593.07 738.25 592.95 743.86 588.89 C 748.00 585.93 752.66 583.79 756.73 580.72 C 760.22 577.77 764.50 575.96 767.92 572.91 C 771.27 570.00 775.29 568.12 779.24 566.21 C 785.79 561.88 790.36 555.33 796.31 550.31 C 800.38 545.63 804.40 540.79 807.21 535.22 C 813.25 526.23 818.02 516.50 822.63 506.72 C 824.64 500.62 828.12 494.69 827.64 488.06 C 827.38 482.96 828.01 477.69 826.38 472.77 C 822.49 459.91 816.57 447.50 807.76 437.27 C 802.54 432.11 797.65 426.31 790.89 423.12 C 779.39 415.83 765.36 415.11 753.10 409.69 C 753.11 406.79 753.51 403.91 753.42 401.01 C 753.19 393.71 754.42 386.36 753.27 379.09 Z" />
<path fill="#ffffff" d=" M 704.04 386.67 C 705.83 386.32 707.65 386.11 709.48 385.95 C 711.89 393.11 713.28 400.63 712.59 408.21 C 707.22 409.44 701.99 411.10 696.75 412.77 C 689.99 414.48 684.26 418.80 677.54 420.60 C 674.57 421.42 671.67 422.54 669.06 424.20 C 664.46 427.24 658.71 427.93 654.28 431.27 C 647.19 435.42 640.18 439.71 633.48 444.46 C 624.13 452.46 614.54 460.18 605.22 468.21 C 600.71 473.36 595.74 478.09 591.05 483.07 C 583.38 489.75 576.94 497.67 570.66 505.63 C 565.71 511.40 560.93 517.30 556.44 523.43 C 548.88 532.02 541.64 540.92 535.53 550.61 C 531.96 556.87 526.92 562.14 523.38 568.41 C 519.80 575.35 515.24 581.72 511.61 588.63 C 508.88 593.89 505.35 598.75 503.29 604.33 C 501.42 608.52 499.71 613.02 495.99 615.96 C 489.04 610.54 483.04 604.08 476.72 597.97 C 477.72 594.36 479.36 590.96 480.40 587.37 C 482.36 580.65 485.97 574.59 489.69 568.72 C 497.03 554.79 506.89 542.40 514.82 528.82 C 521.10 517.49 529.70 507.72 537.17 497.19 C 539.87 493.28 543.40 490.06 546.42 486.41 C 553.30 477.41 560.84 468.85 569.29 461.30 C 575.42 454.74 581.95 448.54 588.68 442.59 C 594.18 438.85 598.59 433.76 604.25 430.23 C 611.45 424.30 619.72 419.87 626.84 413.84 C 634.45 407.61 643.57 403.78 652.14 399.12 C 657.13 396.78 662.61 395.78 667.68 393.64 C 679.27 388.97 691.92 388.97 704.04 386.67 Z" />
<path fill="#ffffff" d=" M 684.48 424.46 C 693.77 420.32 703.60 417.64 713.39 414.97 C 711.74 422.63 714.14 430.31 712.91 437.99 C 712.54 441.64 712.78 445.31 712.67 448.97 C 712.29 456.34 710.06 463.47 709.54 470.83 C 708.56 477.96 707.24 485.08 704.43 491.74 C 697.36 490.28 690.14 490.97 682.98 490.83 C 678.23 490.67 673.65 492.17 668.92 492.28 C 663.02 492.59 657.63 495.19 652.06 496.86 C 645.57 499.23 638.69 500.89 633.06 505.09 C 626.93 507.95 622.41 513.05 618.02 518.03 C 613.12 522.22 611.28 528.60 607.61 533.70 C 605.49 536.69 605.19 540.45 603.69 543.73 C 600.96 549.35 600.46 555.69 598.77 561.66 C 598.39 566.77 597.49 571.88 597.77 577.03 C 599.02 582.55 599.32 588.31 601.59 593.57 C 604.64 604.43 613.00 612.66 621.86 619.12 C 626.82 623.29 633.05 625.31 638.71 628.28 C 644.29 629.90 649.98 631.47 655.83 631.73 C 658.21 632.40 660.58 633.14 663.02 633.63 C 660.54 642.07 659.80 650.92 657.03 659.25 C 657.18 663.97 654.09 667.72 653.02 672.16 C 650.48 681.75 647.80 691.31 645.27 700.89 C 642.05 698.77 638.53 697.27 634.82 696.26 C 625.85 692.01 616.88 687.71 608.29 682.72 C 600.35 678.06 591.45 675.30 583.70 670.31 C 578.35 668.16 573.40 665.16 568.06 662.99 C 561.11 660.32 555.30 655.41 548.31 652.83 C 542.02 650.48 537.09 645.80 531.22 642.71 C 527.49 640.12 523.96 637.23 520.10 634.83 C 514.62 630.19 508.92 625.82 503.04 621.71 C 503.54 616.72 506.90 612.65 507.90 607.76 C 513.28 596.21 519.62 585.11 526.18 574.19 C 532.72 564.70 537.80 554.20 545.42 545.47 C 548.62 540.71 552.88 536.77 555.89 531.88 C 559.89 525.66 564.86 520.15 569.13 514.14 C 573.35 509.03 578.52 504.80 582.59 499.57 C 586.12 495.11 591.18 492.14 594.43 487.43 C 599.78 480.16 606.89 474.54 613.59 468.61 C 623.19 458.74 634.26 450.48 645.40 442.47 C 650.94 439.62 655.84 435.43 662.07 434.12 C 669.40 430.57 677.19 428.13 684.48 424.46 Z" />
<path fill="#ffffff" d=" M 752.43 418.04 C 755.08 417.51 757.77 417.90 760.35 418.64 C 769.17 421.33 778.53 422.72 786.64 427.38 C 798.36 432.42 805.45 443.54 812.30 453.71 C 816.27 459.70 818.19 466.67 820.55 473.38 C 822.43 481.95 822.33 491.30 818.50 499.35 C 816.28 503.67 815.59 508.68 812.65 512.64 C 807.97 519.52 804.43 527.05 800.13 534.16 C 795.46 530.74 791.23 526.74 786.31 523.69 C 784.69 522.70 783.42 521.29 782.06 520.03 C 775.08 517.13 768.34 513.29 762.25 508.74 C 759.70 507.22 756.69 506.60 754.43 504.60 C 750.17 501.27 744.77 500.15 740.12 497.53 C 740.19 493.80 742.17 490.52 742.78 486.90 C 744.44 480.53 744.56 473.86 746.68 467.60 C 747.95 463.91 747.04 459.92 748.10 456.18 C 749.68 449.67 748.84 442.89 750.15 436.35 C 751.10 430.27 751.54 424.12 752.43 418.04 Z" />
<path fill="#ffffff" d=" M 644.88 505.74 C 658.01 500.77 671.86 496.80 686.02 497.05 C 697.00 496.65 708.00 497.71 718.96 498.41 C 727.58 499.15 736.02 501.49 743.96 504.92 C 760.20 513.16 775.87 522.60 790.53 533.43 C 792.73 535.08 794.79 536.92 796.75 538.86 C 794.41 541.81 791.62 544.40 789.62 547.61 C 783.33 556.05 773.78 560.90 765.26 566.71 C 760.54 563.47 757.33 558.52 752.35 555.65 C 740.08 547.58 728.28 538.01 713.90 534.04 C 699.53 528.21 684.06 523.83 668.42 525.62 C 664.72 526.71 660.97 527.81 657.48 529.46 C 652.74 532.62 648.11 536.16 645.07 541.06 C 638.58 546.78 637.02 555.83 636.59 564.04 C 635.78 570.92 639.48 577.27 643.30 582.68 C 646.50 587.74 651.51 591.16 656.06 594.91 C 661.62 598.56 666.88 602.77 672.98 605.54 C 671.56 608.07 670.45 610.79 670.50 613.76 C 669.50 618.00 667.48 621.93 665.25 625.68 C 660.28 624.86 655.26 624.81 650.24 624.59 C 635.66 622.47 622.54 614.00 613.16 602.83 C 610.51 599.20 608.06 595.30 607.17 590.83 C 604.58 583.88 603.91 576.46 603.54 569.11 C 604.15 565.44 604.59 561.74 605.02 558.05 C 607.43 548.52 610.99 539.27 615.46 530.54 C 619.76 524.89 623.13 518.19 629.34 514.34 C 634.13 510.83 639.08 507.35 644.88 505.74 Z" />
<path fill="#ffffff" d=" M 662.42 534.29 C 670.42 529.86 679.83 531.56 688.45 532.60 C 687.65 537.31 687.70 542.10 687.54 546.87 C 686.94 555.51 684.04 563.78 680.73 571.72 C 679.75 573.82 679.96 576.21 679.26 578.38 C 677.04 583.91 677.72 590.46 673.90 595.36 C 669.58 593.91 664.88 593.54 660.94 591.07 C 656.01 587.90 650.15 584.97 647.91 579.17 C 646.65 575.50 644.42 572.31 642.74 568.85 C 641.71 563.32 643.31 557.82 644.44 552.45 C 648.06 544.48 655.04 538.69 662.42 534.29 Z" />
<path fill="#ffffff" d=" M 697.30 535.12 C 704.59 537.50 712.61 538.65 718.96 543.19 C 718.91 548.28 716.12 552.82 716.01 557.90 C 715.63 561.78 714.34 565.49 713.54 569.29 C 711.54 581.83 708.71 594.25 707.70 606.92 C 707.13 611.29 705.17 615.34 704.51 619.70 C 702.37 627.22 701.79 635.08 699.69 642.62 C 696.05 653.71 693.34 665.12 689.17 676.06 C 685.70 685.50 683.10 695.23 679.94 704.78 C 676.98 718.21 671.37 730.88 668.21 744.25 C 665.53 754.38 662.89 764.64 658.26 774.09 C 656.49 778.69 655.19 783.50 652.88 787.88 C 648.05 796.77 643.58 806.11 636.39 813.40 C 632.60 817.61 628.79 821.86 624.26 825.31 C 619.90 828.58 616.92 833.62 611.79 835.84 C 607.13 838.02 603.09 841.28 598.42 843.42 C 590.62 847.45 583.26 852.69 574.60 854.74 C 558.16 859.60 541.07 861.73 524.00 862.62 C 511.08 861.62 498.59 857.82 486.46 853.46 C 478.90 851.03 472.22 846.64 465.49 842.56 C 459.44 839.54 454.81 834.51 449.40 830.58 C 444.05 825.27 439.26 819.38 433.58 814.40 C 430.43 810.86 429.00 806.22 426.82 802.09 C 424.73 798.41 425.27 794.01 424.13 790.05 C 423.27 785.38 421.08 780.89 421.46 776.07 C 421.54 771.48 421.15 766.88 421.57 762.31 C 422.53 754.65 422.02 746.88 423.34 739.25 C 425.24 728.79 427.08 718.30 430.08 708.09 C 432.83 697.77 434.90 687.27 438.04 677.07 C 439.89 673.70 441.19 670.10 442.28 666.43 C 448.81 656.14 452.72 644.43 459.15 634.05 C 462.47 636.26 465.14 639.28 468.31 641.69 C 472.40 645.02 477.04 647.59 481.09 650.99 C 479.28 653.96 477.18 656.88 476.30 660.30 C 474.71 668.91 470.38 676.79 469.45 685.56 C 466.83 696.95 463.21 708.17 462.01 719.84 C 459.57 725.41 458.70 731.50 458.32 737.54 C 455.84 744.04 455.98 751.09 455.19 757.91 C 454.44 761.93 453.85 766.08 454.85 770.12 C 456.03 774.43 455.71 779.15 458.04 783.11 C 460.99 790.48 464.98 797.34 468.57 804.40 C 473.08 811.38 478.95 817.32 485.06 822.90 C 493.58 829.79 502.92 836.44 513.93 838.39 C 526.89 840.27 540.32 839.71 552.86 835.74 C 564.88 832.73 576.21 826.81 585.22 818.26 C 589.89 813.55 595.74 810.10 599.54 804.56 C 606.97 798.28 610.74 789.16 616.49 781.56 C 621.13 772.80 627.02 764.66 630.41 755.28 C 635.22 745.14 638.62 734.41 643.18 724.16 C 648.71 714.68 648.96 703.10 654.49 693.60 C 655.19 690.69 655.24 687.68 655.97 684.79 C 657.01 679.58 659.84 674.97 660.70 669.73 C 661.31 666.27 663.09 663.20 664.09 659.88 C 664.22 654.81 666.55 650.20 667.14 645.20 C 669.35 638.97 669.54 632.20 671.99 626.02 C 674.38 621.39 674.94 616.10 677.47 611.53 C 678.13 606.18 679.94 601.11 681.20 595.89 C 681.14 586.55 686.19 578.34 688.61 569.56 C 691.69 558.12 695.13 546.78 697.30 535.12 Z" />
<path fill="#ffffff" d=" M 721.86 560.79 C 723.79 556.05 725.89 551.32 726.65 546.21 C 735.33 550.46 743.13 556.30 750.55 562.43 C 753.68 565.06 757.70 567.36 759.01 571.47 C 753.87 575.24 748.33 578.40 743.09 582.00 C 734.29 586.41 725.12 590.13 715.70 593.01 C 716.44 588.38 717.12 583.75 717.92 579.14 C 719.57 573.09 719.84 566.74 721.86 560.79 Z" />
<path fill="#ffffff" d=" M 812.97 591.96 C 815.64 589.58 817.58 586.54 820.12 584.03 C 825.05 587.57 827.33 593.34 831.36 597.69 C 834.89 602.08 837.23 607.23 839.88 612.17 C 845.62 621.67 851.00 631.54 853.67 642.39 C 855.57 647.95 856.39 653.82 858.66 659.26 C 861.14 666.52 863.12 673.99 864.43 681.56 C 866.25 689.54 863.97 697.66 864.40 705.72 C 862.82 714.02 861.57 722.46 858.39 730.35 C 856.71 734.26 855.65 738.54 853.00 741.96 C 849.74 746.52 847.84 751.93 844.25 756.27 C 837.55 764.23 830.56 772.58 820.71 776.68 C 813.44 780.69 805.23 782.36 797.05 783.26 C 783.62 783.47 769.91 784.05 756.88 780.27 C 742.85 778.22 729.09 774.74 715.60 770.44 C 709.68 768.23 703.30 767.89 697.42 765.53 C 691.43 764.03 686.57 759.91 680.68 758.16 C 677.46 757.11 674.69 755.13 671.74 753.56 C 672.94 748.99 675.19 744.76 676.15 740.11 C 677.12 735.36 678.23 730.63 679.71 726.01 C 685.71 728.87 690.95 733.00 696.56 736.50 C 703.31 739.89 709.96 743.64 717.25 745.76 C 731.04 750.59 745.33 753.60 759.42 757.43 C 765.79 759.43 772.52 758.74 779.08 758.46 C 783.21 758.55 787.19 757.26 791.16 756.28 C 795.66 755.00 800.34 753.95 804.30 751.32 C 809.83 747.73 815.43 743.70 818.91 737.96 C 823.35 731.25 825.86 723.55 829.31 716.34 C 832.55 709.65 834.66 702.41 835.57 695.05 C 835.63 684.64 833.70 674.34 831.81 664.15 C 829.62 653.23 824.95 643.10 819.62 633.40 C 812.94 623.18 804.25 614.50 797.61 604.27 C 802.99 600.52 808.66 596.98 812.97 591.96 Z" />
<path fill="#ffffff" d=" M 784.29 612.25 C 786.75 610.88 789.24 609.56 791.72 608.20 C 794.09 611.79 797.80 614.16 800.41 617.57 C 806.37 625.33 812.84 632.87 817.02 641.81 C 819.54 646.92 821.07 652.43 823.43 657.60 C 826.28 669.55 829.40 681.64 829.29 694.01 C 828.97 705.72 823.84 716.45 818.69 726.69 C 816.62 730.51 814.12 734.07 811.63 737.63 C 808.23 742.37 802.89 745.06 797.89 747.75 C 787.71 751.42 776.91 753.99 766.02 753.17 C 759.77 752.32 753.54 751.21 747.49 749.41 C 736.66 745.02 724.58 744.48 714.25 738.72 C 706.97 736.86 700.60 732.77 694.53 728.50 C 690.07 725.78 687.18 720.93 681.94 719.46 C 683.71 714.49 686.22 709.64 686.54 704.28 C 689.52 687.43 697.46 672.06 701.52 655.48 C 704.24 648.90 705.43 641.86 708.01 635.23 C 710.62 635.38 713.25 635.53 715.87 635.28 C 717.13 633.81 718.17 631.66 720.39 631.59 C 731.34 630.85 742.51 630.43 753.08 627.18 C 763.49 622.23 774.51 618.45 784.29 612.25 Z" />
<path fill="#ffffff" d=" M 485.58 654.72 C 492.34 658.68 498.14 664.01 504.52 668.51 C 512.27 675.07 521.69 679.17 529.89 685.10 C 538.99 691.02 548.21 696.74 557.30 702.68 C 562.50 705.31 567.18 708.80 572.01 712.02 C 575.41 714.26 577.74 717.82 581.44 719.65 C 588.94 723.66 596.08 728.27 603.49 732.45 C 609.11 735.63 615.80 736.90 620.76 741.23 C 623.02 743.00 625.85 743.75 628.39 745.02 C 625.88 750.86 623.66 756.86 620.33 762.31 C 617.17 768.85 613.47 775.20 608.44 780.49 C 604.42 789.51 598.23 797.32 591.32 804.31 C 584.31 810.33 578.46 817.83 570.19 822.26 C 562.43 827.14 553.50 829.59 544.68 831.74 C 537.01 833.81 528.94 834.66 521.05 833.60 C 514.50 832.92 507.72 832.32 501.88 829.00 C 485.81 820.64 473.30 805.97 466.92 789.07 C 461.16 779.75 460.12 768.68 459.84 757.99 C 460.45 751.70 461.16 745.40 462.21 739.16 C 464.40 731.39 465.02 723.27 467.45 715.55 C 468.61 708.91 471.27 702.65 472.42 696.00 C 473.25 690.96 475.63 686.36 476.47 681.33 C 480.12 672.65 480.75 662.94 485.58 654.72 Z" />
<path fill="#acacac" d=" M 42.76 733.30 C 44.04 732.49 45.12 734.70 43.94 735.44 C 42.67 736.23 41.60 734.02 42.76 733.30 Z" />
</svg>
