<?xml version="1.0" encoding="UTF-8" ?>
<!DOCTYPE svg PUBLIC "-//W3C//DTD SVG 1.1//EN" "http://www.w3.org/Graphics/SVG/1.1/DTD/svg11.dtd">
<svg width="1069pt" height="935pt" viewBox="0 0 1069 935" version="1.1" xmlns="http://www.w3.org/2000/svg">
<path fill="#ffffff" d=" M 0.00 0.00 L 1069.00 0.00 L 1069.00 935.00 L 0.00 935.00 L 0.00 420.95 C 1.20 416.04 1.20 410.94 0.00 406.03 L 0.00 287.10 C 1.96 285.21 1.95 281.98 0.00 280.09 L 0.00 0.00 Z" />
<path fill="#000000" d=" M 374.06 28.42 C 380.99 28.62 387.65 24.23 394.62 26.37 C 398.73 26.40 402.88 26.76 407.01 26.43 C 420.25 28.04 433.18 31.67 445.62 36.42 C 449.77 37.58 452.99 40.69 457.08 42.03 C 461.07 43.33 464.68 45.46 468.13 47.81 C 475.58 51.40 479.29 59.73 486.83 63.16 C 489.13 68.01 492.39 72.26 495.43 76.65 C 497.16 80.06 500.49 82.35 501.92 85.93 C 504.08 90.96 506.52 95.88 509.47 100.50 C 511.38 103.64 511.80 107.38 513.23 110.73 C 517.18 119.74 519.37 129.42 523.84 138.24 C 528.68 149.35 532.27 160.94 536.85 172.13 C 538.27 175.76 539.60 179.72 542.81 182.19 C 545.97 184.67 546.40 189.07 549.45 191.61 C 550.96 192.94 551.46 194.94 551.99 196.80 C 554.14 199.09 556.13 201.50 558.07 203.98 C 563.19 208.72 569.18 212.46 575.45 215.50 C 582.59 217.78 588.17 223.18 595.24 225.63 C 600.10 228.04 605.14 230.05 610.15 232.13 C 615.21 232.99 620.07 234.86 624.53 237.39 C 628.77 239.80 633.62 240.78 637.96 242.98 C 640.24 244.17 643.03 244.27 645.02 246.05 C 646.94 247.66 649.23 248.71 651.63 249.43 C 657.07 251.76 662.15 254.97 668.00 256.20 C 673.24 259.35 678.87 261.76 684.11 264.91 C 689.70 269.17 696.05 272.25 701.81 276.21 C 707.27 282.12 714.25 286.36 719.79 292.19 C 721.66 294.62 723.99 296.65 725.98 298.98 C 728.02 301.35 728.69 304.68 731.12 306.77 C 736.60 311.83 737.86 319.72 742.83 325.15 C 746.80 329.83 749.16 335.76 749.99 341.80 C 750.96 344.71 752.61 347.35 753.59 350.26 C 753.81 353.14 753.60 356.04 753.92 358.91 C 755.59 366.20 758.86 373.48 756.78 381.05 C 757.10 384.85 757.52 388.70 757.14 392.58 C 764.75 392.79 772.33 393.57 779.94 393.74 C 786.35 395.71 793.09 396.23 799.41 398.49 C 803.08 399.50 807.12 399.46 810.46 401.51 C 815.71 404.62 821.43 406.93 826.25 410.74 C 831.04 413.05 834.12 417.54 838.09 420.91 C 843.20 424.77 848.15 428.85 853.02 433.01 C 858.55 440.00 862.03 448.33 865.70 456.38 C 867.92 463.28 869.97 470.32 870.55 477.58 C 871.22 481.23 872.32 484.79 873.90 488.16 C 872.07 494.59 871.42 501.33 871.58 508.03 C 871.58 513.66 870.44 519.22 870.71 524.86 C 870.04 527.53 868.52 529.91 867.63 532.51 C 867.23 536.69 867.79 541.09 865.94 545.01 C 864.35 548.57 864.51 552.86 861.95 555.95 C 859.94 558.77 859.65 562.35 858.43 565.51 C 856.97 568.01 854.85 570.16 854.02 573.00 C 853.10 575.81 851.12 578.10 850.12 580.89 C 848.86 584.14 845.34 585.78 843.78 588.84 C 840.94 594.85 835.21 598.66 831.24 603.83 C 832.99 606.64 835.24 609.08 837.67 611.32 C 840.15 615.07 841.78 619.30 843.81 623.31 C 846.33 626.86 848.24 630.80 850.72 634.39 C 852.93 640.14 854.68 646.09 857.34 651.67 C 862.37 662.80 865.98 674.65 866.95 686.86 C 868.29 694.18 870.62 701.44 870.24 708.98 C 869.96 714.60 871.13 720.19 870.54 725.80 C 868.74 736.05 869.32 746.66 866.74 756.78 C 864.69 761.27 864.54 766.24 862.59 770.75 C 860.42 776.25 856.96 781.32 856.09 787.24 C 854.38 788.70 851.70 788.40 850.27 790.25 C 844.20 796.84 838.47 803.83 831.41 809.40 C 825.01 814.17 818.89 819.53 811.30 822.32 C 804.63 826.19 797.21 828.65 790.67 832.65 C 787.31 833.49 783.92 834.22 780.76 835.68 C 777.50 837.37 773.76 836.27 770.30 836.79 C 763.61 838.15 756.80 839.13 749.96 838.58 C 747.58 838.20 745.38 839.44 743.04 839.26 C 738.65 838.86 734.17 840.54 730.06 838.40 C 723.70 838.55 717.35 838.15 711.01 837.73 C 702.65 838.28 695.04 834.44 686.97 833.09 C 680.45 832.01 674.01 830.51 667.48 829.53 C 661.99 827.36 656.30 825.79 650.62 824.25 C 645.83 822.38 640.27 822.53 636.15 819.15 C 631.65 823.72 628.33 829.28 624.00 834.02 C 620.76 839.32 615.38 842.76 611.80 847.78 C 608.47 852.99 604.00 857.30 600.10 862.05 C 595.80 865.06 592.78 869.39 588.83 872.78 C 587.09 874.35 586.12 876.76 583.95 877.83 C 579.44 880.25 576.18 884.51 571.33 886.36 C 564.98 890.93 557.74 894.03 551.15 898.21 C 548.84 899.54 546.10 897.61 543.77 898.74 C 538.83 900.66 533.41 900.42 528.29 901.55 C 521.49 903.10 514.55 903.88 507.75 905.43 C 493.29 905.86 478.71 904.95 464.46 902.37 C 459.51 899.62 454.43 897.09 449.29 894.70 C 445.75 893.34 442.72 890.87 439.01 889.96 C 436.51 889.50 435.02 887.34 433.05 885.99 C 428.10 883.36 423.25 880.50 418.59 877.40 C 411.56 872.91 406.43 866.20 400.39 860.56 C 397.79 858.30 396.76 854.92 394.74 852.24 C 389.53 845.07 386.73 836.52 384.86 827.96 C 382.13 823.29 382.05 817.78 380.04 812.85 C 379.12 807.19 377.26 801.69 376.41 796.01 C 376.96 791.35 376.51 786.69 376.41 782.04 C 377.15 776.90 375.44 771.56 377.75 766.71 C 380.48 755.13 382.58 743.31 387.18 732.28 C 387.75 728.61 389.42 725.30 391.02 721.99 C 392.19 719.65 392.36 716.92 393.74 714.68 C 397.32 709.75 400.18 704.34 403.17 699.05 C 405.67 693.55 407.25 687.62 410.41 682.42 C 413.67 678.32 416.50 673.85 418.54 669.02 C 414.58 663.86 409.45 659.77 405.14 654.93 C 403.33 652.67 402.02 650.05 400.20 647.80 C 395.61 643.01 391.90 637.48 387.49 632.53 C 381.82 623.46 373.53 616.38 367.85 607.30 C 366.46 604.13 363.62 601.84 362.67 598.44 C 361.49 594.87 357.93 592.78 356.96 589.09 C 355.42 584.63 350.89 582.11 349.27 577.70 C 347.87 575.07 347.54 571.84 345.28 569.73 C 341.59 566.36 340.23 561.43 337.83 557.20 C 335.06 552.46 335.02 546.80 333.26 541.71 C 331.75 538.86 329.43 536.41 328.74 533.19 C 326.53 525.98 327.50 518.41 327.52 511.01 C 327.11 506.30 328.61 501.67 328.07 496.97 C 327.55 493.86 328.43 490.81 328.73 487.73 C 328.74 478.63 330.86 469.71 333.13 460.96 C 332.94 456.03 333.71 451.16 334.62 446.33 C 336.82 440.34 337.10 433.89 338.55 427.71 C 338.76 422.17 339.50 416.64 340.28 411.17 C 341.60 408.32 341.65 405.23 341.39 402.16 C 342.45 397.20 344.20 392.15 343.37 387.01 C 342.76 383.00 343.95 379.03 343.60 375.03 C 343.39 369.66 343.84 364.30 344.27 358.96 C 343.61 353.29 342.60 347.66 342.29 341.96 C 339.22 334.86 338.67 327.03 336.24 319.74 C 334.67 316.98 332.87 314.36 331.45 311.51 C 329.06 308.58 326.17 306.10 323.63 303.30 C 320.05 299.04 315.11 296.27 310.33 293.57 C 302.55 288.56 294.98 283.14 288.25 276.76 C 285.15 272.87 281.19 269.82 277.82 266.19 C 274.53 260.80 271.13 255.49 268.34 249.81 C 265.22 245.18 264.38 239.45 261.13 234.92 C 259.48 231.99 259.59 228.30 257.34 225.66 C 255.03 223.05 255.34 219.28 253.43 216.45 C 251.46 213.53 250.91 209.92 248.88 207.04 C 245.64 202.29 243.39 196.84 239.14 192.85 C 235.43 189.55 232.60 185.24 228.07 182.93 C 224.90 180.12 221.55 177.49 218.64 174.39 C 215.24 172.06 211.49 170.23 207.38 169.61 C 197.47 165.59 186.63 166.38 176.17 166.48 C 172.88 166.91 169.63 167.61 166.33 167.89 C 159.63 169.09 153.53 172.30 147.06 174.28 C 142.17 175.58 138.05 178.66 133.34 180.42 C 126.28 182.79 120.72 188.08 113.87 190.88 C 109.62 190.95 107.33 186.83 106.88 183.09 C 103.60 174.23 104.39 164.52 105.65 155.33 C 106.61 152.72 107.43 150.06 107.29 147.25 C 108.31 143.29 109.53 139.38 110.43 135.39 C 113.34 128.72 117.64 122.76 121.82 116.84 C 124.01 112.64 126.05 107.54 130.83 105.78 C 133.41 103.75 133.98 99.68 137.17 98.16 C 140.35 96.73 141.32 92.92 144.44 91.44 C 149.71 88.54 153.81 84.01 158.93 80.89 C 161.44 79.15 163.49 76.79 166.20 75.34 C 170.30 73.91 174.32 72.33 178.64 71.76 C 190.83 66.09 204.37 65.11 217.29 61.92 C 219.85 61.45 222.34 60.45 224.98 60.58 C 230.45 60.78 235.85 59.77 241.31 59.54 C 248.57 59.57 255.71 58.06 262.94 57.47 C 269.52 56.95 275.79 54.79 282.29 53.85 C 293.76 50.46 305.74 48.83 317.12 45.08 C 323.60 41.91 330.97 41.72 337.58 38.83 C 343.92 38.46 349.48 35.06 355.62 33.69 C 361.54 31.29 367.56 28.66 374.06 28.42 Z" />
<path fill="#ffffff" d=" M 378.05 45.01 C 384.59 43.69 391.41 45.23 397.92 43.60 C 403.27 44.16 408.64 45.04 414.03 44.53 C 422.02 45.71 429.69 48.39 437.47 50.49 C 446.13 52.85 454.39 56.50 462.26 60.78 C 468.45 66.22 474.65 71.77 479.41 78.56 C 482.01 84.67 486.49 89.70 489.34 95.67 C 497.54 107.08 503.00 120.14 507.84 133.26 C 509.41 140.44 511.00 147.62 512.10 154.89 C 515.90 168.39 519.33 182.30 526.52 194.48 C 532.75 200.78 536.23 209.29 542.68 215.37 C 547.80 217.72 552.48 220.89 557.42 223.58 C 563.83 226.97 568.93 232.63 575.93 234.92 C 580.43 236.71 584.42 239.60 589.10 241.00 C 594.32 242.70 599.20 245.22 603.96 247.93 C 612.55 251.60 621.67 253.87 630.10 257.96 C 633.65 259.87 637.68 260.69 641.18 262.72 C 644.25 264.58 647.97 264.99 650.97 267.00 C 653.98 269.16 657.32 270.82 660.84 272.00 C 665.20 273.82 668.99 276.82 673.47 278.42 C 678.82 280.41 683.25 284.07 688.22 286.77 C 691.64 288.52 693.94 291.72 697.03 293.93 C 699.72 296.31 702.84 298.11 705.65 300.35 C 709.08 303.04 710.53 307.37 713.52 310.48 C 717.90 315.13 719.75 321.42 723.56 326.49 C 726.47 333.12 730.38 339.30 733.01 346.06 C 736.69 360.78 738.98 375.85 740.36 390.96 C 740.90 399.47 737.14 407.66 738.50 416.19 C 737.47 426.65 734.95 436.99 731.78 446.97 C 731.70 451.04 729.35 454.51 728.67 458.43 C 728.43 469.55 724.17 479.99 720.51 490.32 C 720.10 495.87 716.95 500.51 715.21 505.65 C 707.42 505.62 699.79 503.70 692.03 503.16 C 700.42 484.72 700.93 463.91 700.16 444.00 C 699.44 439.13 699.63 434.20 699.61 429.31 C 698.19 423.13 698.80 416.58 696.39 410.63 C 695.26 405.87 693.70 401.25 692.44 396.54 C 685.81 389.84 680.91 381.47 673.41 375.61 C 670.25 373.47 667.24 371.15 664.41 368.60 C 660.05 366.73 656.19 363.76 651.59 362.46 C 638.88 358.98 625.88 356.86 613.01 354.14 C 609.32 353.73 605.71 351.90 601.98 352.98 C 595.19 354.33 588.18 354.32 581.54 356.37 C 578.75 357.23 575.86 357.62 572.99 358.00 C 561.97 360.28 551.36 364.06 540.75 367.71 C 531.98 371.80 522.88 375.38 514.85 380.86 C 504.04 388.96 491.21 394.05 481.10 403.10 C 478.32 405.31 475.65 407.66 473.42 410.44 C 468.17 416.18 461.47 420.51 456.88 426.87 C 452.54 433.42 446.13 438.24 441.87 444.86 C 436.90 450.12 435.19 457.32 431.35 463.29 C 429.21 467.26 426.04 470.89 425.69 475.58 C 425.28 480.50 423.68 485.20 422.85 490.04 C 423.02 493.49 421.72 496.72 421.05 500.05 C 420.46 504.66 420.64 509.35 419.71 513.93 C 420.42 518.27 420.11 522.72 421.11 527.03 C 421.69 538.44 424.37 549.61 425.45 560.98 C 425.90 567.03 426.99 572.99 428.26 578.92 C 429.29 588.99 433.93 598.12 437.53 607.44 C 437.81 614.16 442.76 619.29 444.18 625.71 C 445.08 629.03 448.71 629.73 451.58 630.48 C 457.91 638.72 466.01 645.34 472.98 653.01 C 479.39 658.94 485.14 665.52 491.62 671.38 C 496.59 677.10 502.73 681.61 508.20 686.81 C 514.99 691.63 521.16 697.27 528.25 701.67 C 533.04 704.43 537.05 708.27 541.64 711.33 C 551.48 716.84 559.23 725.35 569.06 730.86 C 573.13 732.86 577.35 734.54 581.45 736.49 C 586.60 737.86 590.75 741.51 595.88 742.95 C 598.64 744.03 601.18 745.61 604.04 746.48 C 599.94 758.06 594.09 768.97 588.66 779.98 C 587.24 777.87 585.98 775.26 583.25 774.67 C 577.96 773.04 573.22 770.22 568.34 767.69 C 562.87 765.33 556.96 763.57 552.36 759.63 C 542.32 752.68 531.66 746.75 520.86 741.10 C 515.52 737.53 510.73 733.15 505.27 729.76 C 499.35 724.58 492.26 720.92 486.77 715.23 C 482.34 710.65 477.07 706.82 473.48 701.49 C 470.87 698.80 468.25 696.11 465.22 693.88 C 464.06 693.08 464.10 691.50 463.65 690.32 C 459.34 689.11 456.93 685.02 453.47 682.49 C 449.45 677.86 445.56 673.09 440.84 669.14 C 435.46 664.72 432.70 658.03 427.39 653.60 C 423.17 648.80 419.66 643.43 415.25 638.80 C 413.06 634.48 409.04 631.58 406.56 627.48 C 405.08 625.32 402.60 624.11 401.14 621.93 C 398.01 617.74 394.14 614.07 391.74 609.39 C 387.80 603.05 384.02 596.57 379.07 590.96 C 376.96 588.55 375.88 585.48 374.44 582.68 C 369.89 576.35 365.07 570.04 362.25 562.72 C 360.90 559.89 358.62 557.54 357.72 554.49 C 356.75 550.03 353.77 546.40 350.86 543.03 C 347.29 537.01 346.26 529.88 342.95 523.74 C 343.35 515.24 342.69 506.65 344.34 498.24 C 345.92 491.00 346.00 483.56 346.36 476.19 C 347.16 472.80 348.34 469.47 348.47 465.95 C 348.78 458.01 351.48 450.44 352.67 442.63 C 354.57 430.78 355.01 418.75 357.13 406.93 C 357.41 400.60 358.69 394.35 358.76 388.01 C 358.83 384.27 359.48 380.59 360.19 376.94 C 361.32 366.97 359.73 356.93 360.45 346.95 C 360.62 344.53 359.09 342.38 359.23 339.97 C 359.17 336.76 359.36 333.27 357.42 330.52 C 353.23 324.16 352.54 316.30 349.50 309.42 C 347.89 305.81 346.47 302.04 344.18 298.79 C 339.65 294.88 333.92 292.61 329.42 288.63 C 325.30 285.33 321.71 281.04 316.40 279.70 C 312.18 276.93 307.33 274.92 304.09 270.90 C 299.30 267.05 295.25 262.41 290.97 258.03 C 287.92 254.74 287.64 249.77 284.37 246.66 C 281.73 243.27 282.35 238.50 279.98 234.93 C 275.46 227.70 272.30 219.75 268.76 212.04 C 267.91 207.22 264.31 203.74 262.44 199.37 C 260.32 194.75 255.55 191.89 254.26 186.82 C 249.84 182.89 245.99 178.36 241.98 174.03 C 236.23 170.53 232.73 164.42 227.05 160.90 C 219.99 157.94 213.00 154.76 205.66 152.55 C 197.50 151.68 189.31 151.50 181.12 151.11 C 169.50 151.73 158.72 156.55 147.34 158.46 C 139.59 162.53 131.00 164.85 123.42 169.27 C 121.93 169.80 120.30 169.64 118.74 169.79 C 119.42 164.90 121.18 160.22 121.33 155.24 C 124.30 148.68 125.21 141.46 127.75 134.75 C 129.92 129.54 131.94 124.07 135.98 119.97 C 140.12 115.79 144.26 111.60 148.55 107.58 C 152.16 105.23 154.94 101.84 158.66 99.64 C 162.11 97.42 165.08 94.45 168.91 92.83 C 174.00 90.56 178.66 87.12 184.25 86.14 C 191.33 85.30 197.79 81.71 204.95 81.28 C 209.01 81.13 212.93 79.94 216.94 79.40 C 229.32 79.13 241.59 76.48 254.01 76.64 C 259.13 76.57 263.90 74.19 269.04 74.35 C 279.43 72.85 289.73 70.70 299.86 67.94 C 307.18 66.50 314.11 63.57 321.49 62.33 C 327.96 59.71 334.81 58.41 341.55 56.70 C 347.18 54.37 353.32 53.61 358.76 50.75 C 365.17 48.80 371.90 47.78 378.05 45.01 Z" />
<path fill="#b1b1b1" d=" M 715.10 47.45 C 716.49 47.01 716.97 47.49 716.53 48.89 C 715.11 49.33 714.64 48.85 715.10 47.45 Z" />
<path fill="#010101" d=" M 373.00 67.19 C 381.02 66.23 389.02 65.00 397.02 63.81 C 408.69 64.02 420.29 65.95 431.41 69.51 C 436.28 70.12 439.91 73.50 443.66 76.32 C 448.47 78.99 452.18 83.15 456.36 86.66 C 462.27 93.28 466.96 100.86 471.51 108.45 C 473.59 112.77 476.44 116.76 477.60 121.48 C 479.92 126.17 480.56 131.46 483.03 136.09 C 485.53 140.97 486.68 146.37 488.70 151.45 C 491.27 158.15 491.99 165.35 493.79 172.26 C 496.61 180.83 497.33 189.95 500.54 198.41 C 504.14 204.38 506.00 211.24 509.92 217.04 C 513.68 223.16 518.83 228.23 522.93 234.11 C 525.35 237.65 528.54 240.75 532.40 242.68 C 542.28 248.83 553.22 252.98 564.07 257.05 C 575.75 261.12 587.02 266.30 598.66 270.42 C 604.99 274.03 612.36 274.65 619.19 276.79 C 623.49 279.12 627.85 281.41 632.63 282.60 C 641.34 286.76 650.25 290.54 658.63 295.38 C 667.21 298.86 673.37 306.03 680.91 311.12 C 687.26 317.82 691.27 326.29 695.51 334.38 C 697.24 338.75 699.44 342.94 700.53 347.54 C 702.20 354.07 708.48 358.09 710.50 364.47 C 712.17 368.78 714.91 372.69 715.87 377.26 C 714.57 377.67 713.27 378.07 711.98 378.45 C 705.63 373.56 703.40 364.64 695.98 361.00 C 691.57 358.56 689.09 353.81 684.75 351.29 C 676.19 345.85 667.56 340.16 657.79 337.18 C 650.65 335.75 643.85 333.03 636.71 331.63 C 629.48 331.10 622.22 331.48 615.00 330.82 C 608.68 331.48 602.34 331.29 596.01 331.74 C 584.40 330.44 572.74 332.01 561.13 332.35 C 555.84 333.54 550.40 333.85 545.01 334.29 C 539.63 335.28 534.45 337.13 529.57 339.60 C 525.13 341.82 520.23 342.72 515.63 344.49 C 508.70 348.03 501.75 351.51 494.63 354.64 C 487.64 358.75 481.43 364.02 475.58 369.59 C 473.22 372.71 469.67 374.43 466.47 376.51 C 462.85 379.25 460.42 383.15 457.79 386.76 C 454.02 389.94 453.54 395.57 449.32 398.32 C 444.57 403.02 440.05 408.16 437.29 414.32 C 432.79 418.70 428.75 423.93 427.17 430.12 C 424.63 434.55 422.26 439.11 419.34 443.31 C 417.23 446.78 417.07 451.20 414.37 454.36 C 412.41 456.79 410.32 459.18 409.10 462.10 C 406.64 467.40 402.51 471.69 399.92 476.92 C 397.79 484.34 396.37 491.99 392.89 498.95 C 391.18 506.55 387.84 514.03 388.48 521.98 C 388.73 525.87 388.79 529.90 390.59 533.46 C 392.51 537.38 392.17 541.94 394.26 545.80 C 395.96 548.92 395.88 552.63 394.76 555.94 C 393.06 555.48 390.71 556.03 389.68 554.27 C 388.14 552.37 388.15 549.81 387.40 547.59 C 383.92 540.25 383.87 531.87 380.50 524.48 C 380.34 517.23 377.80 510.26 377.06 503.03 C 376.32 498.96 377.09 494.81 376.16 490.77 C 377.30 484.54 375.39 478.24 376.51 472.00 C 377.38 467.73 376.19 463.35 377.16 459.11 C 378.12 454.58 377.63 449.93 378.24 445.37 C 379.83 432.37 380.69 419.25 383.67 406.48 C 385.49 399.29 385.48 391.75 387.62 384.63 C 388.98 380.32 387.67 375.67 389.40 371.46 C 390.01 367.68 389.51 363.79 390.23 360.00 C 390.05 345.93 391.41 331.51 387.31 317.88 C 386.93 314.29 386.18 310.69 384.34 307.55 C 380.61 301.25 379.15 293.54 373.61 288.40 C 367.15 283.92 363.42 276.04 355.70 273.28 C 348.26 269.42 340.57 266.09 332.80 262.96 C 323.54 257.71 312.64 253.55 307.20 243.74 C 303.11 238.66 300.23 232.80 296.75 227.32 C 295.35 224.54 294.08 221.65 293.53 218.57 C 292.23 211.67 289.32 205.23 287.38 198.51 C 285.85 193.17 282.31 188.80 280.14 183.77 C 278.72 179.84 275.77 176.80 273.71 173.23 C 269.85 167.20 263.73 163.23 259.02 157.98 C 251.29 152.24 243.53 146.39 234.84 142.14 C 230.03 138.47 223.93 137.53 218.32 135.67 C 206.96 134.23 195.46 132.76 184.01 134.05 C 177.46 134.87 170.49 134.37 164.45 137.43 C 161.07 138.82 157.48 139.68 154.15 141.19 C 151.07 142.85 147.82 144.40 144.32 144.85 C 144.09 138.58 146.94 132.71 151.32 128.36 C 157.04 119.25 165.70 112.66 173.48 105.43 C 176.85 102.22 181.67 101.68 185.72 99.68 C 188.26 98.29 191.18 98.46 193.98 98.39 C 211.44 95.86 229.06 98.70 246.60 97.59 C 252.04 96.83 257.57 97.67 263.00 96.71 C 276.10 93.82 289.98 95.37 302.67 90.50 C 310.13 89.21 317.24 86.58 324.53 84.61 C 333.01 82.36 340.39 77.32 348.70 74.62 C 356.61 71.66 364.35 67.31 373.00 67.19 Z" />
<path fill="#ffffff" d=" M 368.23 73.15 C 376.86 72.03 385.33 69.86 394.02 69.21 C 407.89 69.03 421.63 72.26 434.37 77.58 C 437.51 79.37 440.80 81.02 443.48 83.50 C 447.06 87.26 451.55 90.11 454.70 94.30 C 456.38 96.43 457.29 99.02 458.69 101.32 C 460.54 103.77 463.13 105.63 464.58 108.38 C 466.86 112.58 468.01 117.30 470.65 121.32 C 472.40 123.90 472.50 127.08 473.26 130.01 C 473.69 132.75 475.75 134.82 476.58 137.40 C 478.54 145.31 481.88 152.80 484.25 160.59 C 485.58 166.19 486.71 171.84 487.58 177.53 C 489.92 184.69 491.04 192.21 493.81 199.24 C 495.63 203.69 498.20 207.80 499.66 212.40 C 501.65 218.19 505.63 222.90 509.37 227.63 C 514.03 234.22 520.14 239.57 526.26 244.75 C 533.78 252.15 544.35 254.91 553.66 259.34 C 559.80 262.77 566.72 264.31 573.29 266.66 C 575.77 268.63 578.59 270.06 581.46 271.37 C 585.06 272.93 588.33 275.36 592.34 275.78 C 598.06 276.67 602.80 280.41 608.46 281.51 C 616.15 283.76 623.66 286.58 630.94 289.92 C 643.33 293.97 654.99 300.04 665.92 307.10 C 673.60 313.41 681.69 320.06 685.69 329.43 C 687.98 333.47 690.21 337.55 691.77 341.95 C 686.17 338.26 680.92 334.02 674.85 331.10 C 669.96 327.78 664.11 326.52 658.71 324.35 C 654.78 321.85 650.58 319.52 645.87 319.03 C 636.62 317.87 627.30 317.33 618.00 316.71 C 614.23 317.25 610.82 314.92 607.06 315.61 C 597.74 316.54 588.37 316.82 579.02 316.36 C 571.03 316.02 563.08 317.10 555.10 317.32 C 553.03 317.62 551.11 318.65 548.99 318.68 C 541.39 319.24 534.04 321.32 526.78 323.53 C 523.63 324.72 519.93 323.81 517.13 325.98 C 512.90 328.06 508.80 330.48 504.36 332.13 C 498.77 333.24 494.23 336.93 489.06 339.13 C 484.78 340.88 481.46 344.20 477.37 346.26 C 472.39 348.46 469.34 353.45 464.06 355.12 C 459.04 360.99 453.49 366.51 447.51 371.49 C 444.39 375.39 441.38 379.40 438.52 383.50 C 432.80 389.94 428.51 397.43 423.18 404.19 C 418.44 410.94 415.17 418.62 410.25 425.26 C 408.03 428.49 406.58 432.16 404.55 435.49 C 402.61 438.62 400.97 442.02 400.36 445.67 C 398.90 453.05 394.92 459.58 390.57 465.59 C 388.27 471.10 388.66 477.27 386.60 482.86 C 385.00 487.31 384.90 492.20 382.63 496.41 C 382.76 492.25 383.02 488.08 382.59 483.93 C 382.25 480.92 383.96 478.13 383.65 475.11 C 382.59 468.29 383.32 461.32 384.46 454.56 C 386.07 448.47 384.89 442.10 386.12 435.95 C 386.15 429.84 386.85 423.67 389.20 417.99 C 388.78 406.82 393.23 396.13 394.01 385.01 C 394.19 381.63 395.29 378.42 396.00 375.14 C 397.39 361.82 397.64 348.38 397.06 335.00 C 396.08 330.90 397.41 326.45 395.38 322.61 C 393.19 318.23 395.33 313.04 393.45 308.56 C 392.28 305.91 391.16 303.25 390.46 300.44 C 388.17 297.58 387.22 293.92 384.81 291.17 C 381.76 287.57 378.70 283.97 375.05 280.96 C 368.21 275.06 361.46 268.88 353.47 264.54 C 349.00 262.51 344.59 260.30 340.59 257.43 C 333.72 254.18 326.94 250.63 320.64 246.36 C 315.56 241.70 310.57 236.64 307.64 230.29 C 304.95 226.38 303.28 221.93 301.45 217.60 C 298.63 211.76 298.67 205.02 295.77 199.20 C 293.54 194.91 292.18 190.24 290.01 185.94 C 285.53 179.37 282.25 172.05 276.93 166.07 C 273.10 160.02 267.54 155.41 261.98 151.03 C 257.82 146.68 252.35 144.01 247.55 140.48 C 240.21 136.78 232.94 132.68 224.73 131.20 C 218.09 128.58 210.94 127.97 203.90 127.26 C 199.85 127.31 195.82 126.28 191.79 127.04 C 186.17 127.79 180.45 127.82 174.87 128.92 C 168.73 130.45 162.45 131.33 156.32 132.92 C 162.07 124.10 168.98 115.77 177.84 109.91 C 182.13 107.86 186.67 106.31 191.22 104.98 C 194.85 104.93 198.39 104.15 201.96 103.53 C 208.65 103.52 215.41 103.09 222.06 104.13 C 233.36 105.31 244.75 104.43 256.06 103.91 C 261.67 102.60 267.49 103.19 273.07 101.81 C 277.76 101.61 282.31 100.32 287.01 100.19 C 296.28 98.52 304.96 94.67 314.03 92.26 C 320.21 91.15 326.53 90.17 332.16 87.23 C 338.21 85.91 342.80 81.47 348.62 79.61 C 355.11 77.36 361.32 73.96 368.23 73.15 Z" />
<path fill="#020202" d=" M 384.44 89.68 C 389.52 88.42 394.85 87.98 400.02 89.00 C 404.41 89.96 409.44 88.85 413.26 91.73 C 415.46 93.40 418.38 93.19 420.78 94.42 C 425.62 96.76 430.91 98.40 435.15 101.81 C 438.41 104.58 442.45 106.42 445.12 109.87 C 452.51 120.99 456.32 134.70 455.01 148.05 C 454.62 155.81 451.59 163.07 449.09 170.32 C 447.61 174.98 443.83 178.34 441.63 182.61 C 439.04 187.85 433.59 190.59 429.31 194.23 C 421.69 198.88 413.25 203.59 404.00 202.83 C 398.54 202.30 393.06 203.86 387.67 202.62 C 380.06 201.85 373.31 198.02 366.04 196.01 C 360.09 193.04 354.34 189.08 350.44 183.59 C 346.93 178.10 342.72 172.91 340.54 166.70 C 339.52 161.95 339.51 157.02 339.36 152.19 C 340.08 148.81 338.85 145.34 339.92 142.02 C 343.18 129.08 347.30 115.60 356.66 105.68 C 361.83 101.89 365.51 95.98 371.82 93.89 C 375.98 92.35 380.05 90.49 384.44 89.68 Z" />
<path fill="#fefefe" d=" M 388.58 95.68 C 395.85 94.30 403.40 95.64 410.49 97.50 C 418.96 102.13 429.09 103.81 436.11 110.89 C 440.68 114.38 442.81 119.83 444.81 125.02 C 446.51 130.88 448.76 136.78 448.31 143.00 C 447.74 148.83 448.08 154.96 445.55 160.40 C 443.38 165.26 441.57 170.31 439.02 174.98 C 435.64 178.93 432.35 182.97 428.94 186.89 C 424.71 189.71 420.25 192.19 415.94 194.91 C 412.94 196.65 409.52 197.75 406.02 197.69 C 399.96 197.61 393.67 198.11 387.85 196.05 C 383.08 194.21 377.70 194.52 373.23 191.82 C 367.91 189.89 363.07 186.96 358.87 183.18 C 353.68 180.07 351.83 174.01 348.96 169.05 C 347.03 166.06 346.97 162.41 345.72 159.16 C 343.39 152.29 346.04 145.16 346.42 138.21 C 348.25 131.56 350.61 124.99 353.80 118.86 C 357.87 112.42 363.59 107.17 369.71 102.70 C 375.57 99.36 382.11 97.48 388.58 95.68 Z" />
<path fill="#010101" d=" M 387.35 106.28 C 396.16 104.62 405.45 106.02 413.78 109.26 C 418.55 111.67 423.23 114.31 427.48 117.58 C 432.31 123.40 436.25 130.39 436.56 138.13 C 436.58 142.99 438.17 147.96 436.86 152.74 C 433.92 158.25 432.45 164.48 428.42 169.38 C 427.14 170.83 425.95 172.35 424.75 173.87 C 418.52 179.08 412.47 185.07 404.36 187.26 C 398.17 188.36 391.87 187.50 385.74 186.47 C 376.86 186.46 369.45 180.50 363.66 174.34 C 353.60 162.15 353.17 144.45 359.12 130.32 C 360.42 125.80 362.54 121.31 366.42 118.44 C 372.81 113.52 378.89 107.19 387.35 106.28 Z" />
<path fill="#ffffff" d=" M 386.45 112.50 C 396.45 111.93 406.72 113.41 415.57 118.36 C 422.43 121.61 427.86 127.79 429.64 135.20 C 429.79 141.51 430.16 147.97 428.26 154.09 C 425.62 161.91 420.68 169.20 413.57 173.59 C 410.76 175.39 408.56 178.05 405.53 179.50 C 402.69 180.05 399.82 180.47 397.02 181.20 C 394.35 180.84 391.72 180.12 389.02 180.22 C 382.82 180.06 377.76 176.11 372.40 173.55 C 368.96 169.88 365.96 165.72 363.65 161.25 C 362.07 153.68 361.98 145.38 365.11 138.15 C 366.80 133.31 367.83 128.09 370.83 123.84 C 374.02 120.29 377.89 117.45 381.71 114.63 C 383.08 113.54 384.73 112.84 386.45 112.50 Z" />
<path fill="#6a6a6a" d=" M 0.00 280.09 C 1.95 281.98 1.96 285.21 0.00 287.10 L 0.00 280.09 Z" />
<path fill="#ffffff" d=" M 576.40 364.33 C 583.67 361.69 591.66 362.46 598.95 359.78 C 609.97 359.23 620.87 361.76 631.52 364.37 C 637.79 365.47 644.03 366.85 650.04 368.98 C 661.62 374.02 672.46 381.26 680.30 391.29 C 670.82 392.32 661.68 395.11 652.38 396.97 C 648.60 398.05 645.41 400.46 641.65 401.54 C 635.26 403.54 629.36 406.73 623.09 409.04 C 618.85 410.53 615.52 413.75 611.28 415.23 C 608.49 416.00 606.95 418.93 603.97 419.32 C 598.66 420.02 595.54 424.67 591.31 427.41 C 585.90 430.49 581.23 434.71 575.75 437.70 C 572.60 439.18 570.77 442.28 568.98 445.10 C 566.95 447.92 562.80 447.94 560.83 450.83 C 559.03 453.03 556.68 454.71 554.94 456.94 C 553.00 460.23 551.12 463.70 548.14 466.19 C 543.78 469.44 540.57 473.94 536.15 477.12 C 533.64 480.90 531.23 484.83 527.50 487.55 C 523.35 493.31 519.32 499.23 514.32 504.33 C 511.16 507.31 509.37 511.34 506.69 514.70 C 504.62 517.30 502.35 519.83 501.05 522.94 C 495.57 532.56 487.41 540.29 482.05 549.98 C 475.57 555.81 473.33 565.05 466.23 570.26 C 461.74 574.18 460.95 580.62 456.75 584.74 C 451.61 591.72 449.02 600.10 445.63 607.97 C 442.75 602.72 440.21 597.30 438.41 591.58 C 435.16 584.69 434.26 577.10 433.16 569.66 C 431.61 563.52 432.17 557.08 430.98 550.89 C 429.32 545.63 429.51 540.06 428.43 534.70 C 425.36 515.71 428.23 496.49 431.63 477.76 C 433.94 471.47 438.31 466.26 441.36 460.35 C 444.76 454.01 448.64 447.86 453.86 442.86 C 460.62 434.66 467.17 426.22 475.21 419.23 C 478.95 414.30 483.90 410.60 488.28 406.30 C 498.33 399.61 508.62 393.28 519.02 387.13 C 526.27 381.36 535.09 378.28 543.36 374.37 C 548.42 372.69 553.12 369.91 558.50 369.33 C 564.24 366.96 570.27 365.32 576.40 364.33 Z" />
<path fill="#b7b7b7" d=" M 0.00 406.03 C 1.20 410.94 1.20 416.04 0.00 420.95 L 0.00 406.03 Z" />
<path fill="#ffffff" d=" M 679.95 408.03 C 682.99 407.58 686.08 407.62 689.12 407.13 C 691.70 414.96 692.38 423.27 693.51 431.40 C 691.09 432.89 688.45 434.12 685.58 434.31 C 680.76 434.49 676.10 435.76 671.33 436.28 C 665.15 437.19 660.69 442.03 654.95 444.07 C 649.25 447.20 642.65 448.42 637.37 452.35 C 632.98 455.75 627.75 457.88 623.57 461.56 C 614.92 467.85 606.78 474.78 598.37 481.38 C 594.29 484.62 591.20 488.87 587.47 492.48 C 581.34 499.01 576.10 506.45 569.12 512.15 C 559.49 522.50 550.14 533.14 540.47 543.44 C 537.17 548.69 532.02 552.35 528.26 557.24 C 522.60 563.02 518.10 569.76 513.12 576.10 C 509.59 581.22 505.43 585.93 502.53 591.47 C 498.99 596.98 494.74 602.05 492.08 608.10 C 489.63 613.59 486.09 618.66 484.81 624.62 C 483.87 628.41 481.86 631.79 480.51 635.43 C 479.86 639.44 479.45 643.53 477.94 647.35 C 472.79 643.45 468.76 638.29 463.81 634.16 C 461.52 632.40 460.24 629.76 458.34 627.65 C 458.67 616.15 466.23 606.87 469.28 596.15 C 470.09 593.56 471.31 591.13 473.01 589.02 C 476.33 584.93 478.88 580.28 482.26 576.24 C 484.78 572.79 488.89 570.91 491.33 567.38 C 494.68 561.30 498.63 555.49 503.41 550.45 C 505.65 546.76 508.07 543.21 511.11 540.12 C 513.78 535.26 517.88 531.43 520.65 526.64 C 523.79 523.84 525.06 519.80 527.45 516.47 C 534.16 508.46 540.94 500.48 547.07 492.00 C 553.17 484.82 558.29 476.71 565.58 470.63 C 570.45 467.61 574.19 463.17 578.93 459.98 C 585.28 456.12 589.94 450.17 596.11 446.07 C 602.04 440.37 609.55 436.83 616.32 432.29 C 623.02 429.53 628.93 425.16 635.80 422.78 C 637.92 422.10 639.72 420.74 641.80 419.98 C 646.48 418.59 650.38 415.15 655.34 414.58 C 658.80 414.60 661.42 411.82 664.83 411.50 C 670.03 411.03 674.77 408.59 679.95 408.03 Z" />
<path fill="#ffffff" d=" M 756.43 408.53 C 766.08 409.71 775.63 411.59 785.25 412.96 C 790.04 414.38 794.74 416.12 799.64 417.18 C 802.76 418.11 806.13 418.36 809.03 419.92 C 812.05 421.84 814.89 424.07 817.18 426.84 C 819.31 429.33 822.46 430.44 825.36 431.75 C 832.08 437.00 836.35 444.64 841.82 451.11 C 843.42 453.61 844.66 456.33 845.95 459.01 C 847.50 463.05 850.27 466.69 850.64 471.13 C 850.88 476.41 852.65 481.52 852.47 486.85 C 853.83 492.47 852.19 498.18 852.52 503.89 C 851.62 509.23 851.05 514.63 851.25 520.06 C 851.48 523.45 850.15 526.66 849.73 529.98 C 849.00 537.04 845.04 543.13 842.88 549.76 C 841.12 555.00 838.75 560.10 835.34 564.45 C 833.18 572.58 827.09 578.64 822.34 585.30 C 819.80 588.14 817.22 591.04 813.94 593.06 C 811.85 594.22 810.98 596.70 808.87 597.83 C 803.19 600.90 798.93 605.85 793.96 609.87 C 787.85 614.04 783.62 620.71 776.60 623.60 C 771.18 627.56 764.25 628.22 758.48 631.48 C 754.64 633.80 749.95 633.96 746.10 636.24 C 743.54 637.77 740.43 637.45 737.77 638.67 C 730.57 641.61 722.92 643.18 715.56 645.63 C 710.70 647.63 705.66 649.26 700.43 649.90 C 701.36 646.88 702.20 643.84 703.21 640.85 C 703.63 634.81 705.12 628.92 705.54 622.89 C 705.62 619.62 707.49 616.79 708.58 613.79 C 713.95 613.37 717.86 609.24 722.94 607.97 C 727.93 606.57 732.80 604.82 737.43 602.47 C 743.22 600.59 748.05 596.69 753.77 594.65 C 762.39 590.45 768.98 583.27 776.46 577.46 C 784.03 567.76 793.94 560.04 800.68 549.64 C 804.37 545.07 806.43 539.52 809.67 534.67 C 812.70 530.03 814.71 524.84 816.66 519.68 C 819.79 508.15 819.37 495.86 816.87 484.25 C 815.46 476.54 812.65 469.07 808.55 462.40 C 806.56 459.42 803.76 457.10 801.89 454.04 C 797.41 450.11 792.15 447.19 787.40 443.61 C 780.23 438.18 771.35 435.73 762.65 434.07 C 759.22 433.10 755.79 431.90 752.17 432.08 C 752.83 429.30 753.45 426.52 754.23 423.78 C 754.26 418.62 755.33 413.55 756.43 408.53 Z" />
<path fill="#8c8c8c" d=" M 218.16 435.65 C 219.56 435.81 219.80 436.48 218.89 437.65 C 217.48 437.48 217.23 436.82 218.16 435.65 Z" />
<path fill="#ffffff" d=" M 750.11 438.31 C 753.43 438.16 756.55 439.42 759.76 440.07 C 764.80 441.57 770.29 441.42 775.00 443.98 C 784.21 449.04 793.67 454.35 800.42 462.60 C 804.17 468.32 808.22 474.05 810.26 480.65 C 812.62 493.57 813.35 506.99 810.20 519.84 C 807.27 527.56 803.00 534.66 798.79 541.73 C 795.96 545.70 793.96 550.27 790.47 553.75 C 785.39 549.43 780.51 544.90 776.08 539.91 C 771.87 535.74 767.90 531.10 762.51 528.43 C 759.24 526.83 757.03 523.51 753.35 522.76 C 749.86 522.01 747.40 519.18 744.12 517.97 C 740.88 516.65 737.90 514.82 735.05 512.82 C 734.61 505.69 737.98 499.28 739.14 492.39 C 741.11 485.69 742.76 478.90 743.60 471.97 C 744.11 460.45 749.02 449.75 750.11 438.31 Z" />
<path fill="#ffffff" d=" M 678.37 442.25 C 683.35 441.37 688.51 441.67 693.42 440.32 C 694.88 452.20 694.89 464.16 693.61 476.05 C 693.45 481.65 692.55 487.32 690.29 492.48 C 689.05 496.53 688.77 501.59 684.89 504.16 C 676.93 504.99 668.83 503.52 660.87 504.83 C 654.67 505.26 648.68 506.93 642.84 508.99 C 637.58 509.82 632.73 512.07 627.74 513.77 C 623.36 513.46 619.21 515.25 615.59 517.56 C 610.62 520.66 604.14 520.44 599.94 524.87 C 592.93 532.21 585.45 539.11 578.58 546.60 C 574.72 550.95 571.55 556.03 570.61 561.86 C 569.89 569.54 566.22 576.75 566.53 584.52 C 568.66 589.23 566.80 594.50 568.72 599.27 C 568.87 604.06 571.63 608.08 573.53 612.32 C 575.62 618.76 580.11 624.01 583.17 629.94 C 585.99 632.49 588.07 635.64 590.33 638.66 C 593.96 641.34 597.48 644.15 600.80 647.22 C 607.07 650.91 612.98 655.22 619.45 658.52 C 622.77 661.72 627.81 660.30 631.58 662.53 C 634.01 663.87 636.79 664.24 639.47 664.83 C 636.72 672.49 633.21 679.86 630.34 687.48 C 624.38 700.20 617.85 712.68 612.92 725.85 C 610.68 731.03 608.92 736.40 606.76 741.61 C 601.48 738.75 596.96 734.64 591.11 732.92 C 585.13 729.45 578.22 728.24 572.27 724.69 C 564.48 720.03 558.06 713.48 550.45 708.56 C 545.09 704.95 539.70 701.38 534.53 697.52 C 525.41 691.85 516.78 685.40 508.91 678.08 C 503.49 672.82 497.38 668.31 492.43 662.58 C 489.43 659.06 485.09 656.38 483.36 651.98 C 485.15 647.56 484.59 642.42 487.33 638.37 C 487.66 634.18 489.68 630.46 490.58 626.40 C 491.98 620.49 495.30 615.31 498.01 609.95 C 501.48 602.20 507.36 595.92 511.64 588.63 C 516.12 582.76 519.93 576.38 524.86 570.84 C 533.53 559.00 544.42 549.02 553.59 537.58 C 557.31 533.32 561.30 529.31 565.48 525.50 C 572.11 517.81 579.24 510.60 586.23 503.25 C 591.70 496.74 597.06 490.01 604.12 485.11 C 612.38 477.65 621.02 470.58 630.02 464.03 C 635.99 460.72 641.40 456.37 647.74 453.73 C 653.79 451.98 659.39 448.99 664.75 445.73 C 668.79 443.11 673.76 443.07 678.37 442.25 Z" />
<path fill="#ffffff" d=" M 657.88 524.09 C 669.46 521.98 681.33 520.05 693.06 522.15 C 697.29 523.21 701.73 521.46 705.86 523.13 C 710.90 524.11 715.84 525.48 720.65 527.30 C 732.95 530.80 744.54 536.62 755.01 543.95 C 758.55 545.95 760.95 549.35 763.99 551.99 C 769.34 556.26 773.99 561.33 779.10 565.87 C 772.00 572.86 765.02 580.10 756.54 585.45 C 755.20 586.46 753.67 585.41 752.58 584.59 C 748.24 581.40 746.77 575.78 742.67 572.35 C 738.08 568.45 733.53 564.11 727.66 562.29 C 722.19 559.49 716.88 556.34 711.24 553.91 C 706.81 552.63 702.25 551.84 697.86 550.45 C 690.09 547.98 681.94 550.24 674.00 549.65 C 669.37 550.04 664.75 550.44 660.11 550.60 C 654.29 551.34 648.69 553.22 643.27 555.40 C 638.99 556.51 635.76 559.73 632.50 562.52 C 629.85 567.29 626.19 571.79 625.56 577.40 C 623.85 583.80 624.25 590.64 626.20 596.94 C 632.80 607.13 644.98 614.08 657.32 612.42 C 653.70 623.80 650.62 635.36 646.74 646.67 C 639.18 646.85 631.59 644.83 625.22 640.74 C 619.79 637.57 614.05 634.82 609.20 630.77 C 605.42 626.24 601.16 622.14 596.92 618.05 C 591.37 610.86 587.54 602.14 587.20 592.96 C 587.27 590.19 585.66 587.72 585.61 584.97 C 585.64 582.25 586.93 579.69 586.75 576.97 C 586.58 573.86 586.18 570.65 587.65 567.78 C 590.50 562.18 593.10 556.10 598.19 552.13 C 601.17 549.77 602.25 545.38 606.07 544.04 C 609.57 542.78 613.03 541.36 615.85 538.87 C 624.96 534.33 634.42 530.41 644.14 527.38 C 648.91 526.99 653.10 524.28 657.88 524.09 Z" />
<path fill="#ffffff" d=" M 643.71 562.73 C 651.90 557.13 662.32 557.85 671.74 556.67 C 669.38 560.68 671.68 565.30 670.40 569.59 C 667.23 582.85 662.50 595.66 658.48 608.67 C 653.70 605.49 647.34 605.93 642.85 602.21 C 639.40 599.33 635.14 597.32 632.54 593.54 C 630.53 590.37 631.36 586.48 631.25 582.96 C 631.23 574.59 636.23 566.48 643.71 562.73 Z" />
<path fill="#ffffff" d=" M 678.26 557.25 C 687.03 555.65 696.27 555.75 704.73 558.79 C 703.75 564.10 703.77 569.95 700.63 574.55 C 699.92 579.32 698.59 583.97 696.63 588.38 C 696.55 596.33 692.25 603.43 691.54 611.30 C 689.70 617.79 687.85 624.32 686.90 631.03 C 686.65 633.82 685.06 636.24 684.56 638.98 C 684.76 641.05 686.04 643.17 685.14 645.25 C 683.87 648.84 683.42 652.65 682.08 656.23 C 681.36 659.61 678.53 662.34 678.76 665.95 C 679.35 670.90 675.97 675.14 675.81 680.00 C 675.78 686.49 671.76 691.87 669.74 697.82 C 666.24 703.82 666.03 710.89 664.35 717.49 C 663.27 720.73 663.10 724.18 662.34 727.50 C 661.26 730.39 659.76 733.12 659.07 736.15 C 658.38 739.45 655.65 741.86 654.77 745.06 C 654.40 748.90 651.83 751.94 650.49 755.46 C 647.44 763.66 643.62 771.57 639.02 779.02 C 637.09 784.76 633.45 789.65 631.22 795.28 C 629.83 798.06 627.92 800.56 626.41 803.28 C 623.20 809.20 618.33 813.96 614.58 819.51 C 612.09 823.32 608.35 826.09 606.02 830.02 C 601.70 833.69 598.21 838.19 593.96 841.94 C 587.54 847.93 582.07 854.79 576.03 861.09 C 573.97 863.04 571.30 864.28 569.51 866.54 C 566.04 869.42 562.19 871.81 558.70 874.69 C 551.14 879.68 542.17 882.58 533.11 882.87 C 524.36 885.75 515.08 886.45 505.96 887.41 C 501.65 888.03 497.33 886.82 493.03 887.50 C 491.14 887.63 489.21 888.12 487.33 887.62 C 481.43 886.42 475.29 885.87 469.75 883.37 C 466.92 882.37 464.00 881.65 461.15 880.75 C 457.52 879.84 454.98 876.79 451.43 875.68 C 445.73 872.88 439.21 871.01 434.95 866.04 C 432.91 864.95 430.53 864.69 428.57 863.44 C 421.83 858.54 415.85 852.35 411.89 844.99 C 410.63 840.13 406.28 836.75 405.49 831.74 C 402.71 819.08 399.44 806.40 398.95 793.39 C 397.66 785.91 399.92 778.44 399.42 770.94 C 402.24 753.99 402.50 735.80 411.78 720.73 C 416.05 712.43 421.11 704.51 424.91 695.97 C 426.08 691.09 428.13 686.43 428.80 681.44 C 431.57 683.97 433.02 687.73 436.31 689.64 C 439.80 692.13 442.16 695.81 445.46 698.52 C 448.91 701.30 451.44 704.99 454.74 707.93 C 451.85 712.15 450.72 717.24 449.57 722.15 C 446.41 732.19 444.23 742.52 441.61 752.72 C 439.21 761.95 438.46 771.54 438.26 781.05 C 439.46 792.17 440.05 804.02 446.18 813.77 C 449.01 818.08 450.66 823.06 453.74 827.23 C 458.84 836.03 467.72 841.92 476.76 846.13 C 484.20 848.18 490.50 853.34 498.23 854.40 C 502.62 854.84 507.11 855.86 511.48 854.67 C 516.67 853.40 522.33 853.83 527.10 851.12 C 533.80 848.36 540.18 844.92 546.53 841.46 C 551.37 839.29 554.87 835.17 559.15 832.16 C 569.75 822.52 578.45 810.87 585.46 798.40 C 590.86 786.67 597.67 775.66 602.96 763.88 C 607.00 756.11 610.13 747.92 614.02 740.10 C 621.09 717.19 633.18 696.30 642.04 674.11 C 644.24 667.44 647.61 661.22 649.56 654.47 C 652.92 645.37 656.37 636.27 658.75 626.86 C 664.30 607.24 672.22 588.35 676.35 568.34 C 676.79 564.53 679.62 561.19 678.26 557.25 Z" />
<path fill="#ffffff" d=" M 717.67 572.71 C 719.91 570.84 719.22 567.83 720.36 565.42 C 726.71 568.11 732.71 571.60 738.08 575.93 C 740.87 578.36 742.08 581.94 743.92 585.04 C 745.63 586.78 748.09 587.58 749.93 589.21 C 744.77 592.68 738.80 594.60 733.25 597.32 C 729.34 599.36 724.60 598.49 720.76 600.69 C 716.97 602.70 713.35 605.03 709.36 606.62 C 711.08 601.76 711.13 596.53 712.89 591.69 C 715.25 585.57 715.12 578.71 717.67 572.71 Z" />
<path fill="#ffffff" d=" M 797.24 631.78 C 803.71 626.25 810.99 621.74 817.27 615.95 C 819.84 621.34 823.80 625.88 828.05 630.01 C 830.59 632.11 831.32 635.52 832.79 638.35 C 834.36 644.01 838.15 648.70 839.71 654.38 C 843.38 663.90 846.61 673.61 849.33 683.45 C 849.42 688.38 851.07 693.18 850.54 698.13 C 850.35 703.12 852.16 707.98 851.65 712.98 C 851.12 717.32 852.48 721.56 852.78 725.86 C 852.56 729.31 851.72 732.70 851.36 736.14 C 851.10 740.97 851.07 745.93 849.39 750.53 C 848.37 753.43 848.83 756.55 848.53 759.55 C 846.96 763.05 845.63 766.68 845.48 770.56 C 844.03 773.04 842.53 775.51 840.83 777.83 C 838.30 780.32 834.91 781.85 832.78 784.78 C 827.86 790.63 821.19 794.50 815.96 800.02 C 811.81 802.21 806.88 803.04 803.32 806.27 C 798.82 809.50 793.90 812.33 788.49 813.67 C 784.62 814.62 781.10 816.84 777.04 816.88 C 771.51 818.03 765.78 817.84 760.34 819.43 C 752.22 821.41 743.83 819.48 735.61 820.66 C 726.27 820.44 716.89 820.47 707.60 819.35 C 703.79 819.61 700.03 818.89 696.34 818.03 C 686.82 815.99 677.17 814.53 667.81 811.82 C 664.99 811.67 662.51 810.41 660.06 809.16 C 655.07 807.19 649.93 805.58 644.69 804.41 C 651.78 794.16 656.44 782.55 661.84 771.38 C 669.12 774.14 676.84 775.92 684.66 775.73 C 689.54 776.30 694.47 776.04 699.35 776.60 C 704.13 776.99 708.06 780.76 712.99 780.33 C 717.37 779.98 721.60 781.52 725.96 781.37 C 738.29 780.17 750.77 780.26 762.99 778.01 C 769.86 776.46 776.68 774.50 783.71 773.81 C 789.32 771.08 795.33 769.09 800.41 765.36 C 806.28 762.09 810.38 756.66 814.75 751.72 C 817.24 749.02 817.77 745.29 819.00 741.99 C 821.29 736.43 821.65 730.34 822.85 724.51 C 824.60 714.53 821.31 704.78 820.64 694.90 C 820.02 686.74 816.77 679.16 814.97 671.25 C 813.40 666.97 811.78 662.72 810.72 658.28 C 807.69 652.23 805.10 645.94 802.19 639.83 C 800.34 637.27 798.67 634.59 797.24 631.78 Z" />
<path fill="#ffffff" d=" M 783.76 640.70 C 786.60 639.02 789.60 637.55 792.14 635.40 C 798.66 643.09 802.19 652.63 806.17 661.75 C 811.58 676.50 816.32 691.80 816.75 707.63 C 818.55 712.95 817.41 718.58 817.69 724.07 C 817.97 729.25 815.69 734.07 814.88 739.12 C 814.41 743.18 811.28 745.96 809.03 749.10 C 804.07 757.53 794.34 760.97 785.97 764.99 C 777.87 767.26 769.82 770.30 761.32 770.53 C 754.96 772.87 748.09 772.18 741.50 773.30 C 733.77 773.76 726.00 773.78 718.26 773.51 C 714.38 772.99 710.91 770.66 706.95 770.64 C 700.58 770.46 694.33 768.92 687.94 769.19 C 680.25 768.63 672.62 767.11 665.18 765.16 C 667.06 760.18 668.52 754.97 671.25 750.37 C 672.62 746.91 673.16 743.20 674.65 739.79 C 675.58 735.87 676.49 731.86 678.77 728.46 C 680.20 726.66 680.21 724.32 680.37 722.15 C 681.98 713.75 685.34 705.84 687.45 697.58 C 688.74 694.27 690.73 691.27 691.90 687.91 C 693.65 681.31 694.63 674.54 696.39 667.94 C 707.71 666.00 719.01 663.47 729.75 659.43 C 736.58 656.88 743.85 656.06 750.76 653.79 C 753.83 652.33 757.16 651.55 760.24 650.10 C 768.01 646.81 776.59 645.35 783.76 640.70 Z" />
<path fill="#ffffff" d=" M 453.14 728.22 C 455.23 722.64 455.68 716.61 457.95 711.09 C 463.92 716.44 469.37 722.37 475.61 727.40 C 480.75 731.17 484.77 736.50 490.66 739.21 C 494.13 741.34 497.08 744.20 500.38 746.59 C 502.75 748.28 505.40 749.53 507.72 751.30 C 512.60 755.33 518.77 757.34 523.54 761.53 C 527.87 763.64 531.86 766.38 535.61 769.42 C 539.81 772.84 545.58 773.04 550.06 775.97 C 553.79 778.32 557.33 781.12 561.77 782.00 C 565.64 784.10 570.29 784.42 573.76 787.32 C 576.80 788.30 579.93 789.05 582.55 791.05 C 579.75 796.59 577.35 802.47 573.18 807.17 C 567.49 814.74 561.08 821.80 553.45 827.46 C 545.68 835.31 535.44 839.93 525.45 844.26 C 518.00 846.67 510.13 848.63 502.26 847.44 C 499.74 846.95 497.57 845.34 494.99 845.17 C 489.93 844.65 485.53 842.02 480.95 840.06 C 477.64 838.39 474.05 837.19 471.16 834.81 C 468.23 832.43 464.31 831.09 462.46 827.58 C 456.61 820.03 452.14 811.49 448.06 802.88 C 443.76 787.92 443.17 771.91 445.80 756.59 C 448.58 747.22 450.81 737.70 453.14 728.22 Z" />
<path fill="#454545" d=" M 768.14 778.24 C 769.81 777.70 770.38 778.22 769.86 779.82 C 768.16 780.34 767.58 779.81 768.14 778.24 Z" />
</svg>
