<?xml version="1.0" encoding="UTF-8" ?>
<!DOCTYPE svg PUBLIC "-//W3C//DTD SVG 1.1//EN" "http://www.w3.org/Graphics/SVG/1.1/DTD/svg11.dtd">
<svg width="1430pt" height="733pt" viewBox="0 0 1430 733" version="1.1" xmlns="http://www.w3.org/2000/svg">
<path fill="#fefefe" d=" M 0.00 0.00 L 1430.00 0.00 L 1430.00 733.00 L 0.00 733.00 L 0.00 0.00 Z" />
<path fill="#000000" d=" M 663.33 59.32 C 665.26 57.87 667.28 55.93 669.92 56.24 C 672.53 56.13 674.39 58.24 675.56 60.33 C 684.90 76.01 694.31 91.64 703.61 107.35 C 704.28 108.39 704.94 109.50 705.99 110.25 C 714.01 110.38 722.03 110.22 730.06 110.31 C 740.65 93.40 750.47 75.99 760.98 59.02 C 762.86 55.82 767.56 55.32 770.26 57.76 C 787.08 70.91 803.74 84.28 820.59 97.40 C 822.60 99.05 825.21 100.40 826.00 103.07 C 827.60 107.64 829.33 112.20 830.33 116.94 C 830.56 119.41 827.49 120.46 825.66 119.26 C 821.70 117.25 817.81 115.13 813.94 112.96 C 809.32 110.17 811.42 103.00 806.89 100.13 C 794.26 90.58 781.83 80.75 769.14 71.27 C 761.09 91.44 752.85 111.54 744.99 131.77 C 743.93 139.11 744.56 146.63 743.35 153.97 C 742.34 157.64 737.39 158.89 734.62 156.35 C 729.16 151.45 724.81 145.46 719.42 140.49 C 718.44 140.29 717.46 140.18 716.47 140.16 C 711.35 145.47 706.46 151.01 701.17 156.15 C 698.52 159.20 693.14 157.55 692.26 153.74 C 690.49 145.22 692.86 135.99 689.19 127.83 C 681.54 108.98 674.20 90.00 666.36 71.24 C 653.75 81.02 641.04 90.68 628.43 100.44 C 624.21 103.52 626.25 110.68 621.38 113.21 C 617.65 115.18 613.95 117.20 610.22 119.16 C 608.82 120.09 607.17 119.48 605.68 119.26 C 604.79 115.54 606.77 112.08 607.73 108.60 C 608.96 105.41 609.41 101.56 612.43 99.47 C 629.45 86.16 646.39 72.75 663.33 59.32 Z" />
<path fill="#000000" d=" M 425.00 145.64 C 495.51 145.17 566.02 143.58 636.53 143.37 C 642.74 151.81 650.08 159.36 656.18 167.87 C 649.32 174.06 643.33 181.23 635.96 186.83 C 632.15 182.99 629.29 178.35 625.51 174.47 C 622.66 171.58 620.29 168.27 617.80 165.07 C 612.01 165.76 606.73 168.46 601.24 170.25 C 584.82 176.40 568.10 181.71 551.62 187.68 C 532.96 195.36 513.26 200.04 494.45 207.34 C 481.62 212.21 468.96 217.54 455.99 222.06 C 440.12 227.47 424.56 233.74 409.04 240.07 C 398.85 244.55 388.19 247.79 377.86 251.90 C 354.09 263.32 328.49 270.16 304.18 280.24 C 274.01 291.43 243.88 302.73 213.68 313.85 C 194.46 320.85 175.39 328.27 156.08 334.99 C 125.25 313.78 94.38 292.65 63.63 271.34 C 54.11 264.96 45.35 257.53 35.77 251.23 C 30.70 248.40 25.70 245.43 20.93 242.10 C 32.35 230.08 42.04 216.52 53.95 204.96 C 61.46 197.74 67.74 189.41 74.63 181.62 C 81.13 174.46 86.93 166.65 93.94 159.96 C 97.37 156.72 100.08 152.76 103.71 149.73 C 122.79 148.95 141.91 149.49 161.00 148.93 C 185.34 148.69 209.67 148.28 234.01 148.20 C 242.66 147.54 251.34 147.84 260.00 147.69 C 315.01 147.12 370.01 146.36 425.00 145.64 Z" />
<path fill="#000000" d=" M 798.26 150.33 C 799.27 149.15 800.06 147.23 801.97 147.58 C 838.65 147.54 875.32 147.79 912.00 147.81 C 927.99 148.51 944.00 148.08 960.00 148.23 C 1081.62 148.44 1203.24 149.13 1324.85 149.70 C 1330.79 156.24 1337.38 162.17 1343.07 168.93 C 1349.82 176.84 1356.99 184.38 1363.60 192.41 C 1369.86 199.47 1376.98 205.69 1383.23 212.76 C 1390.87 221.45 1398.32 230.30 1406.19 238.77 C 1399.14 243.99 1391.08 247.68 1384.27 253.24 C 1367.74 266.26 1350.31 278.06 1333.18 290.27 C 1313.43 304.00 1294.02 318.22 1274.10 331.69 C 1233.89 317.23 1193.55 303.12 1153.31 288.72 C 1143.36 284.97 1133.18 281.87 1123.36 277.80 C 1106.92 271.62 1090.10 266.54 1073.63 260.44 C 1064.93 257.52 1056.96 252.79 1048.21 249.98 C 1025.46 242.59 1003.73 232.38 980.91 225.19 C 963.38 219.25 946.29 212.13 928.77 206.19 C 913.64 201.36 898.25 197.29 883.46 191.42 C 868.79 186.43 854.08 181.57 839.31 176.88 C 832.34 174.18 825.18 172.05 818.07 169.77 C 815.71 173.13 813.29 176.47 810.44 179.44 C 806.78 183.31 804.11 188.00 800.23 191.66 C 793.21 185.83 787.05 179.04 780.14 173.08 C 786.04 165.38 792.44 158.09 798.26 150.33 Z" />
<path fill="#000000" d=" M 717.92 196.79 C 724.94 185.41 732.08 174.09 739.68 163.08 C 742.06 165.20 744.43 167.51 745.34 170.68 C 750.71 186.22 756.05 201.78 761.56 217.28 C 762.70 219.94 762.61 222.94 761.30 225.52 C 748.30 255.14 735.67 284.93 722.57 314.50 C 720.84 318.55 714.35 318.34 712.93 314.20 C 699.95 284.71 687.31 255.07 674.37 225.56 C 673.16 223.13 672.99 220.24 673.97 217.69 C 679.46 201.93 685.02 186.19 690.40 170.39 C 691.26 167.50 693.32 165.20 695.91 163.71 C 701.52 171.01 706.09 179.03 711.57 186.42 C 713.96 189.70 715.82 193.32 717.92 196.79 Z" />
<path fill="#000000" d=" M 670.00 179.98 C 672.82 177.61 676.69 178.73 680.05 178.60 C 678.99 182.17 678.12 185.96 676.07 189.09 C 670.12 193.88 663.46 197.75 657.40 202.42 C 656.19 203.31 655.59 204.72 654.94 206.02 C 652.12 211.89 649.52 217.85 646.68 223.70 C 646.01 225.33 644.91 226.97 645.17 228.81 C 646.77 232.87 650.03 236.08 651.56 240.19 C 652.51 243.80 650.66 247.22 649.32 250.46 C 606.68 352.43 564.03 454.41 521.41 556.39 C 518.00 564.22 515.39 572.37 511.74 580.10 C 508.30 579.02 505.61 576.54 503.03 574.15 C 507.10 566.78 509.24 558.56 513.17 551.10 C 516.17 542.32 520.36 534.00 523.22 525.17 C 525.05 520.72 527.28 516.42 528.63 511.78 C 530.38 505.95 533.68 500.78 536.22 495.29 C 541.85 483.62 546.16 471.38 551.51 459.58 C 558.00 441.86 564.42 424.10 571.89 406.76 C 576.77 395.29 581.39 383.71 586.36 372.29 C 589.93 366.28 592.93 359.95 595.47 353.45 C 598.56 344.46 603.09 336.01 606.05 326.97 C 607.55 320.65 610.40 314.80 612.80 308.80 C 622.05 286.86 631.18 264.87 640.38 242.91 C 638.51 239.45 636.20 236.26 634.31 232.82 C 633.41 231.29 632.82 229.35 633.70 227.68 C 638.23 217.67 643.15 207.83 647.68 197.81 C 648.52 196.06 649.33 194.11 651.10 193.09 C 657.43 188.76 663.70 184.35 670.00 179.98 Z" />
<path fill="#000000" d=" M 755.48 178.60 C 758.68 178.77 762.34 177.70 765.14 179.75 C 771.53 184.08 777.86 188.49 784.20 192.88 C 786.53 194.24 787.48 196.85 788.60 199.15 C 792.74 208.33 797.22 217.34 801.42 226.49 C 801.92 227.86 802.99 229.40 802.18 230.88 C 800.39 235.17 797.45 238.83 795.26 242.90 C 797.10 247.59 799.72 251.93 801.30 256.72 C 804.33 265.70 808.51 274.22 812.03 283.01 C 849.96 373.70 887.87 464.40 925.80 555.09 C 927.97 561.21 930.37 567.25 933.15 573.14 C 931.06 574.70 928.96 577.11 926.09 576.68 C 923.59 576.60 921.78 574.39 920.87 572.26 C 876.29 465.56 831.66 358.87 787.05 252.17 C 785.73 248.86 783.90 245.59 783.68 241.98 C 784.62 236.96 788.70 233.33 790.64 228.72 C 790.75 226.81 789.51 225.15 788.83 223.44 C 785.45 216.68 782.75 209.56 778.99 203.00 C 772.80 198.11 765.92 194.12 759.71 189.25 C 757.47 186.11 756.81 182.16 755.48 178.60 Z" />
<path fill="#000000" d=" M 600.74 185.78 C 604.66 184.25 608.45 182.39 612.49 181.19 C 615.97 187.32 620.84 192.44 624.91 198.13 C 619.75 203.91 613.65 208.72 608.20 214.20 C 587.00 234.33 567.12 255.79 546.60 276.60 C 540.82 282.16 535.25 287.93 529.68 293.69 C 521.14 303.45 511.26 311.93 502.64 321.64 C 499.24 325.56 495.57 329.24 491.73 332.72 C 482.82 340.82 475.28 350.27 466.43 358.43 C 458.37 366.05 451.44 374.76 443.33 382.33 C 434.72 390.05 427.34 399.00 419.16 407.16 C 411.98 413.99 404.85 420.88 398.35 428.36 C 392.27 435.26 385.12 441.13 378.97 447.98 C 373.87 453.21 369.26 458.94 363.64 463.65 C 360.59 466.16 357.83 469.01 355.09 471.86 C 348.26 466.97 341.09 462.59 334.15 457.87 C 294.88 430.38 255.26 403.39 215.84 376.12 C 206.90 369.90 197.72 363.98 189.10 357.35 C 326.29 300.11 463.52 242.95 600.74 185.78 Z" />
<path fill="#000000" d=" M 823.44 185.98 C 889.26 211.92 954.88 238.40 1020.63 264.53 C 1083.01 289.40 1145.38 314.27 1207.74 339.18 C 1219.55 344.06 1231.60 348.37 1243.25 353.61 C 1195.63 387.56 1147.64 421.01 1100.10 455.08 C 1093.51 459.72 1086.64 463.95 1080.17 468.75 C 1075.58 463.67 1069.95 459.71 1065.25 454.75 C 1058.24 447.43 1051.39 439.93 1043.81 433.19 C 1036.10 425.57 1028.93 417.41 1020.94 410.08 C 1011.94 402.08 1004.28 392.74 995.47 384.55 C 984.48 374.87 975.25 363.42 964.32 353.68 C 956.28 345.39 948.27 337.04 939.65 329.35 C 931.39 320.94 923.54 312.12 914.74 304.25 C 907.07 296.26 899.32 288.35 891.34 280.67 C 884.97 275.04 879.53 268.47 873.37 262.63 C 859.05 248.62 845.33 233.99 830.47 220.54 C 824.42 214.31 817.54 208.97 811.45 202.77 C 815.21 197.02 819.98 191.97 823.44 185.98 Z" />
<path fill="#000000" d=" M 658.72 209.77 C 660.95 206.83 664.50 205.24 667.49 203.16 C 667.63 207.42 667.67 211.68 667.58 215.94 C 667.53 218.74 665.61 221.07 665.32 223.82 C 667.31 230.13 673.83 235.84 671.20 242.92 C 658.51 275.09 645.97 307.33 633.28 339.50 C 632.68 340.95 632.34 342.49 632.38 344.06 C 632.38 377.06 632.40 410.05 632.37 443.05 C 632.51 447.10 629.50 450.19 627.08 453.09 C 603.05 482.06 579.03 511.05 555.01 540.03 C 552.95 543.29 547.68 543.76 545.45 540.45 C 543.98 539.05 544.26 536.80 544.70 535.03 C 583.24 436.69 621.79 338.34 660.34 240.00 C 659.17 234.09 653.79 229.25 653.64 222.98 C 654.80 218.41 656.89 214.10 658.72 209.77 Z" />
<path fill="#000000" d=" M 768.30 203.42 C 771.87 205.70 776.52 207.60 777.94 211.99 C 779.18 215.38 780.90 218.63 781.75 222.16 C 782.75 229.09 775.60 234.18 775.59 240.72 C 813.97 338.57 852.28 436.46 890.70 534.30 C 892.70 537.81 890.06 542.83 885.91 542.69 C 882.98 543.12 881.12 540.48 879.44 538.57 C 855.11 509.22 830.78 479.88 806.46 450.53 C 804.62 448.45 803.18 445.89 803.42 443.02 C 803.40 414.35 803.41 385.67 803.42 357.00 C 803.03 351.45 804.27 345.67 802.63 340.30 C 789.89 307.76 777.17 275.20 764.36 242.69 C 763.50 240.68 763.10 238.32 764.23 236.33 C 766.22 232.12 768.36 227.99 770.55 223.87 C 767.19 217.53 768.29 210.29 768.30 203.42 Z" />
<path fill="#000000" d=" M 594.02 244.00 C 600.42 237.17 607.28 230.77 613.23 223.53 C 615.99 226.18 618.36 229.21 620.57 232.34 C 623.29 236.25 626.58 239.77 628.75 244.05 C 622.62 258.89 616.39 273.70 610.73 288.72 C 606.50 299.10 601.56 309.19 597.92 319.80 C 593.81 330.00 589.03 339.94 585.52 350.38 C 582.14 358.93 577.88 367.14 575.04 375.91 C 569.15 390.32 564.08 405.10 557.02 419.02 C 553.56 425.92 551.29 433.32 548.33 440.44 C 541.00 457.37 533.49 474.23 526.31 491.22 C 523.09 497.90 521.13 505.09 517.84 511.74 C 510.43 529.88 501.96 547.59 494.66 565.76 C 494.32 566.26 493.64 567.26 493.31 567.76 C 475.22 555.13 457.02 542.63 438.88 530.05 C 423.39 519.22 407.59 508.83 392.48 497.47 C 386.16 493.20 379.63 489.18 373.93 484.07 C 382.42 474.84 390.83 465.52 399.06 456.05 C 420.44 433.42 441.04 410.06 462.35 387.36 C 473.76 374.76 485.59 362.55 496.62 349.61 C 509.48 335.47 522.56 321.55 535.44 307.44 C 554.19 285.59 574.70 265.34 594.02 244.00 Z" />
<path fill="#000000" d=" M 811.51 242.49 C 815.45 237.50 818.72 231.98 823.14 227.37 C 829.77 235.21 837.50 242.00 844.45 249.55 C 857.10 263.22 870.42 276.25 883.11 289.88 C 893.06 299.97 902.05 310.95 912.04 320.99 C 921.98 331.71 932.29 342.08 942.03 352.99 C 960.24 373.08 979.22 392.45 997.71 412.28 C 1011.70 427.61 1026.18 442.48 1040.34 457.64 C 1047.39 465.55 1054.43 473.48 1061.96 480.94 C 1053.48 488.31 1043.66 493.87 1034.99 501.00 C 1009.33 519.36 983.53 537.52 957.82 555.81 C 953.41 558.66 949.54 562.31 944.85 564.70 C 936.20 544.65 926.94 524.83 918.18 504.81 C 907.52 477.67 893.94 451.76 883.40 424.57 C 877.18 411.88 871.24 399.04 866.38 385.76 C 862.80 378.15 860.38 370.07 856.71 362.50 C 854.00 356.92 851.64 351.18 849.57 345.34 C 846.38 337.63 842.91 330.05 839.61 322.39 C 835.96 312.06 831.01 302.26 826.72 292.19 C 820.86 277.31 814.63 262.58 808.20 247.94 C 809.16 246.04 810.20 244.18 811.51 242.49 Z" />
<path fill="#000000" d=" M 672.34 252.29 C 673.56 247.85 680.45 247.76 682.01 252.02 C 688.55 267.69 695.27 283.30 701.73 299.00 C 694.82 307.08 690.07 316.66 684.35 325.55 C 683.30 326.79 683.33 328.42 683.44 329.95 C 687.29 376.30 691.28 422.65 695.17 469.01 C 697.26 496.35 698.84 523.72 700.77 551.07 C 701.20 566.75 703.33 582.35 703.70 598.04 C 704.52 610.02 705.54 622.00 706.04 634.00 C 706.18 639.31 707.43 644.74 706.35 650.00 C 704.34 649.00 701.73 647.89 701.45 645.35 C 685.03 543.40 668.78 441.42 652.29 339.48 C 651.59 335.23 650.61 330.83 651.77 326.57 C 658.78 301.86 665.24 276.98 672.34 252.29 Z" />
<path fill="#000000" d=" M 753.81 251.68 C 755.67 247.46 762.51 248.16 763.49 252.68 C 769.76 275.10 775.83 297.57 782.02 320.01 C 782.97 323.95 784.82 327.81 784.53 331.95 C 767.72 436.45 750.99 540.99 734.17 645.50 C 733.79 647.90 731.37 648.86 729.54 649.96 C 729.16 641.67 730.12 633.34 730.54 625.05 C 731.90 607.31 732.80 589.53 733.84 571.77 C 734.77 563.90 734.41 555.95 735.31 548.08 C 736.14 537.41 736.30 526.70 737.37 516.05 C 737.42 503.64 739.33 491.35 739.73 478.96 C 743.67 428.61 748.34 378.30 752.34 327.98 C 751.86 326.21 750.74 324.72 749.85 323.16 C 745.67 316.64 742.02 309.79 737.47 303.52 C 736.21 301.82 735.20 299.96 734.23 298.09 C 740.76 282.62 747.26 267.13 753.81 251.68 Z" />
</svg>
