<?xml version="1.0" encoding="UTF-8" ?>
<!DOCTYPE svg PUBLIC "-//W3C//DTD SVG 1.1//EN" "http://www.w3.org/Graphics/SVG/1.1/DTD/svg11.dtd">
<svg width="1024pt" height="1024pt" viewBox="0 0 1024 1024" version="1.1" xmlns="http://www.w3.org/2000/svg">
<path fill="#ffffff" d=" M 0.00 0.00 L 1024.00 0.00 L 1024.00 1024.00 L 0.00 1024.00 L 0.00 0.00 Z" />
<path fill="#020202" d=" M 506.19 83.70 C 511.95 87.28 515.35 93.30 519.79 98.21 C 522.79 101.62 525.46 105.36 527.21 109.58 C 530.04 116.20 532.98 122.82 535.13 129.71 C 536.70 139.88 537.32 150.32 535.69 160.53 C 535.45 165.44 534.40 170.27 534.22 175.18 C 535.84 163.29 539.89 151.82 545.20 141.07 C 548.54 133.79 556.04 129.97 562.62 126.10 C 558.76 139.46 559.13 153.69 562.16 167.20 C 563.71 176.84 569.53 184.93 573.00 193.89 C 576.34 202.67 579.56 211.54 581.41 220.77 C 586.51 210.93 594.19 202.74 601.90 194.90 C 608.16 188.31 616.70 184.63 624.94 181.19 C 636.47 177.03 647.82 172.40 659.13 167.71 C 653.20 174.13 647.42 180.86 643.62 188.81 C 638.45 200.17 633.50 212.06 633.43 224.75 C 636.12 213.10 645.56 204.68 654.63 197.63 C 669.60 186.50 689.02 183.37 703.57 171.55 C 713.79 163.41 719.36 151.21 725.16 139.84 C 725.47 145.58 724.21 151.26 723.10 156.86 C 720.75 164.27 718.83 172.42 712.90 177.90 C 707.56 182.68 701.75 187.07 695.22 190.09 C 685.44 194.74 675.19 198.45 665.76 203.79 C 652.10 212.08 642.80 225.41 633.77 238.22 C 627.55 231.98 623.80 222.72 625.30 213.88 C 625.55 208.35 627.92 203.23 630.41 198.39 C 633.70 192.01 637.13 185.63 641.64 180.02 C 633.44 184.31 624.80 187.87 617.21 193.25 C 610.05 197.95 604.81 204.84 599.42 211.37 C 593.88 218.18 589.30 225.74 585.97 233.87 C 583.67 239.70 580.79 245.28 577.95 250.86 C 575.69 239.76 572.82 228.79 570.83 217.65 C 567.79 205.71 563.27 194.19 557.91 183.12 C 553.95 175.33 553.45 166.49 552.54 157.98 C 551.86 151.85 553.68 145.87 553.74 139.76 C 547.75 149.70 544.02 160.77 540.77 171.84 C 538.76 179.04 537.16 186.50 537.59 194.01 C 537.71 196.45 537.77 198.92 537.21 201.31 C 533.44 194.74 527.66 188.85 526.81 181.00 C 526.07 170.99 527.67 161.02 527.37 151.00 C 527.18 140.43 526.90 129.60 522.97 119.63 C 522.02 126.56 519.96 133.41 516.27 139.38 C 510.93 147.97 503.86 155.42 499.35 164.53 C 495.42 171.72 492.62 179.71 492.71 187.99 C 492.83 193.26 492.43 198.55 493.28 203.78 C 493.44 206.80 494.27 209.94 493.25 212.89 C 489.37 210.99 485.30 208.93 482.71 205.33 C 478.14 199.28 475.29 192.13 472.74 185.05 C 470.45 178.80 470.75 172.09 470.59 165.56 C 459.60 186.23 454.96 209.76 454.07 233.00 C 453.50 237.40 454.23 241.80 454.26 246.21 C 447.21 242.43 441.37 236.83 436.02 230.98 C 428.95 224.35 423.26 216.43 415.98 210.01 C 406.67 200.86 394.07 196.24 384.29 187.71 C 377.58 181.97 370.09 176.44 366.54 168.05 C 366.22 176.42 365.54 185.06 368.16 193.17 C 370.82 203.38 377.19 212.12 384.22 219.78 C 387.21 223.05 391.09 225.54 393.25 229.50 C 386.12 227.07 378.70 224.87 372.50 220.46 C 363.87 213.33 358.91 202.65 356.72 191.85 C 356.05 184.23 350.93 178.16 347.19 171.80 C 341.08 161.56 332.62 152.62 322.08 146.90 C 325.37 152.85 328.59 159.08 329.24 165.97 C 328.69 173.15 324.38 179.31 319.28 184.11 C 319.46 176.28 319.41 168.39 317.96 160.68 C 316.14 153.57 314.00 146.31 309.91 140.15 C 305.51 136.67 299.89 135.07 295.58 131.45 C 303.25 131.56 310.87 133.12 318.32 134.83 C 327.37 138.28 336.39 142.74 343.11 149.88 C 349.13 155.54 352.65 163.09 356.78 170.10 C 358.23 162.33 360.45 154.52 365.04 147.99 C 368.17 156.63 372.17 165.58 379.75 171.25 C 389.94 178.96 400.86 185.65 411.91 192.04 C 422.97 198.98 432.04 208.61 440.22 218.69 C 441.24 219.92 442.34 221.08 443.45 222.24 C 443.30 213.77 444.68 205.45 446.27 197.18 C 450.62 174.47 463.01 154.34 477.26 136.51 C 477.93 143.42 480.86 149.99 480.57 156.99 C 480.58 167.20 480.68 177.93 485.16 187.33 C 484.67 175.29 490.11 164.17 496.31 154.21 C 502.45 144.75 511.10 136.55 514.08 125.36 C 516.53 117.60 515.43 109.10 512.03 101.80 C 509.27 96.08 506.92 90.04 506.19 83.70 Z" />
<path fill="#010101" d=" M 297.93 198.17 C 298.66 194.71 302.41 192.19 305.87 192.72 C 309.50 193.80 312.24 196.54 315.15 198.80 C 328.42 208.63 341.60 218.59 355.43 227.63 C 368.16 235.62 380.58 244.11 393.76 251.37 C 405.63 258.23 417.73 264.69 429.66 271.43 C 438.45 276.33 446.18 283.31 455.94 286.29 C 465.42 288.76 475.26 289.17 484.98 289.87 C 493.28 290.97 501.69 290.21 510.00 291.17 C 524.20 291.83 538.37 290.24 552.42 288.29 C 560.01 286.92 567.51 285.06 574.86 282.73 C 597.28 272.68 616.45 257.03 637.32 244.31 C 646.23 239.35 655.40 234.88 664.56 230.41 C 669.96 227.67 675.48 225.03 680.36 221.39 C 687.66 215.67 692.35 207.37 699.50 201.48 C 702.43 199.21 706.21 197.69 709.96 198.62 C 712.37 199.45 714.64 200.82 716.51 202.57 C 718.94 205.81 719.85 209.93 720.41 213.86 C 720.95 222.24 720.49 230.64 720.64 239.03 C 723.19 255.55 723.67 272.31 723.44 289.02 C 723.12 294.16 721.28 299.05 720.32 304.09 C 718.98 312.15 716.42 319.93 714.54 327.86 C 711.95 338.36 710.58 349.15 710.35 359.96 C 709.76 366.84 709.20 373.87 706.52 380.32 C 704.37 386.37 700.36 391.45 696.54 396.51 C 695.19 398.16 694.70 400.28 694.47 402.36 C 703.03 402.01 711.56 400.96 720.03 399.61 C 722.56 399.19 725.24 400.10 727.01 401.97 C 729.24 404.17 728.99 407.81 727.72 410.45 C 726.33 413.34 726.39 416.78 724.42 419.41 C 717.34 429.27 710.07 439.00 702.43 448.43 C 700.48 450.72 698.46 452.98 696.93 455.58 C 711.76 460.58 727.51 465.77 738.43 477.59 C 743.04 482.74 746.61 488.70 750.44 494.43 C 752.90 498.24 756.35 501.36 758.34 505.49 C 761.59 512.11 765.19 518.56 769.11 524.82 C 770.73 526.57 769.12 529.76 766.76 529.46 C 754.27 529.62 741.86 528.02 729.43 527.13 C 732.63 535.04 733.85 543.53 735.00 551.94 C 735.37 559.45 737.14 567.01 735.64 574.52 C 735.39 575.78 734.16 576.83 732.86 576.81 C 726.52 577.44 720.43 574.88 714.86 572.15 C 706.68 567.90 698.50 563.69 690.38 559.33 C 692.84 570.15 694.75 581.33 693.17 592.42 C 689.27 609.75 679.73 625.14 669.50 639.42 C 657.99 655.08 641.61 666.00 625.72 676.73 C 609.81 686.89 592.50 694.64 576.44 704.55 C 561.92 713.59 545.85 720.48 533.07 732.07 C 523.33 741.70 516.20 753.54 509.08 765.14 C 508.20 766.74 506.58 767.67 505.08 768.59 C 503.09 767.85 500.95 766.97 500.08 764.87 C 495.88 756.34 491.52 747.83 485.88 740.15 C 482.02 734.94 476.82 730.95 471.40 727.50 C 460.26 720.32 448.73 713.75 438.03 705.91 C 415.05 688.52 393.01 669.79 373.05 648.97 C 360.71 634.52 348.26 620.03 338.25 603.82 C 330.44 591.44 328.09 576.38 328.52 561.96 C 328.38 556.96 330.53 552.32 331.06 547.40 C 320.35 550.93 309.56 554.23 298.88 557.86 C 296.89 558.62 294.74 558.65 292.64 558.76 C 292.35 558.09 291.78 556.73 291.49 556.05 C 295.08 542.85 300.24 530.14 304.31 517.09 C 297.24 517.65 290.17 519.54 283.05 518.42 C 279.44 517.14 279.67 512.23 281.90 509.79 C 286.19 504.64 287.41 497.91 289.90 491.87 C 292.63 485.08 294.95 478.04 298.77 471.76 C 304.36 464.23 311.60 458.12 318.69 452.06 C 309.85 440.73 302.07 428.64 294.48 416.46 C 291.98 412.00 290.71 406.87 290.25 401.81 C 293.44 400.02 297.31 400.24 300.75 401.09 C 307.89 403.00 315.35 402.62 322.66 402.75 C 322.41 399.25 323.15 395.54 322.18 392.16 C 317.48 387.49 312.12 383.11 309.40 376.88 C 306.03 370.42 307.52 362.96 307.57 356.01 C 307.70 342.40 310.86 328.73 308.33 315.17 C 306.31 302.67 299.44 291.61 297.14 279.19 C 295.42 271.68 293.16 264.32 291.19 256.88 C 290.19 253.36 289.89 249.61 290.46 245.99 C 291.91 242.76 295.47 241.42 298.47 240.03 C 298.99 229.57 296.54 219.31 295.53 208.96 C 294.88 205.13 297.04 201.75 297.93 198.17 Z" />
<path fill="#8f8f8f" d=" M 442.10 216.79 C 443.68 210.35 442.92 203.04 446.27 197.18 C 444.68 205.45 443.30 213.77 443.45 222.24 C 442.34 221.08 441.24 219.92 440.22 218.69 C 440.69 218.21 441.63 217.26 442.10 216.79 Z" />
<path fill="#ffffff" d=" M 321.10 224.06 C 334.79 234.74 347.86 246.49 363.29 254.68 C 376.23 262.00 389.65 268.40 403.01 274.91 C 412.11 279.44 421.62 283.27 430.07 289.00 C 437.23 293.88 444.82 298.46 453.33 300.52 C 464.36 303.01 475.75 302.71 487.00 302.84 C 501.33 302.84 515.68 303.01 529.99 302.20 C 538.87 301.15 547.89 302.16 556.75 300.75 C 567.67 299.58 578.41 296.77 588.55 292.56 C 602.58 286.20 615.41 277.59 628.30 269.25 C 640.18 261.62 652.35 254.44 664.87 247.92 C 677.07 241.37 689.76 234.83 698.86 224.08 C 696.87 237.71 693.05 251.10 687.90 263.87 C 681.14 279.60 668.77 291.94 657.01 304.02 C 647.56 313.30 638.14 322.85 626.70 329.72 C 612.72 338.01 597.98 344.90 583.77 352.79 C 575.26 357.83 566.84 363.03 558.60 368.51 C 547.24 375.56 538.27 386.20 532.42 398.16 C 527.50 409.22 523.60 420.88 522.35 432.98 C 520.82 445.25 520.14 457.64 520.72 470.00 C 522.31 489.93 525.27 509.78 529.63 529.30 C 516.84 529.36 504.05 529.45 491.27 529.37 C 493.90 515.25 496.37 501.07 497.48 486.74 C 498.66 472.45 500.31 458.05 498.65 443.72 C 497.44 432.08 496.42 420.11 491.66 409.26 C 486.49 396.80 477.68 386.24 467.84 377.17 C 458.12 368.38 447.81 360.13 436.34 353.74 C 421.12 344.83 404.51 338.34 390.13 328.01 C 384.49 323.97 378.93 319.83 373.47 315.57 C 368.74 311.88 365.55 306.72 362.09 301.92 C 345.29 277.79 330.96 251.81 321.10 224.06 Z" />
<path fill="#ffffff" d=" M 308.18 228.79 C 312.64 236.02 315.37 244.17 319.38 251.65 C 329.13 271.59 342.46 289.49 356.17 306.84 C 360.67 311.98 364.73 317.68 370.40 321.64 C 379.46 328.26 388.20 335.46 398.12 340.79 C 412.68 348.28 427.94 354.45 441.99 362.93 C 451.04 368.27 459.04 375.17 466.78 382.22 C 479.39 393.86 489.68 408.82 492.83 425.94 C 496.52 442.71 496.38 460.04 494.98 477.07 C 493.85 494.80 489.15 512.02 484.75 529.16 C 484.09 533.79 483.34 539.43 486.95 543.10 C 491.44 547.77 497.95 549.56 503.48 552.64 C 505.73 554.49 506.85 557.33 508.55 559.65 C 509.79 559.55 511.06 559.53 512.29 559.26 C 515.08 557.84 515.87 554.17 518.83 553.00 C 524.43 550.75 530.86 549.67 535.38 545.35 C 537.75 540.83 538.31 535.20 536.46 530.40 C 531.00 514.09 528.19 497.06 526.00 480.05 C 523.77 461.34 524.07 442.31 527.07 423.71 C 529.36 409.17 536.90 395.61 547.90 385.86 C 554.85 378.93 563.27 373.77 571.60 368.68 C 587.70 358.94 603.98 349.50 620.43 340.35 C 626.52 337.27 632.67 334.24 638.20 330.18 C 650.88 321.07 662.50 310.57 673.71 299.71 C 681.53 291.79 689.34 283.66 694.97 273.99 C 699.62 265.75 703.02 256.88 705.97 247.92 C 707.09 244.49 707.83 240.91 709.39 237.63 C 710.04 243.16 709.47 248.75 708.67 254.23 C 707.45 265.76 704.84 277.06 702.78 288.44 C 702.02 308.38 696.76 327.97 697.67 348.00 C 698.21 356.66 699.02 365.36 698.37 374.04 C 695.73 382.20 686.56 385.29 682.03 392.10 C 680.51 395.05 680.22 398.43 679.45 401.61 C 670.16 399.51 661.21 396.20 651.95 394.00 C 633.48 388.15 615.44 380.15 596.03 377.87 C 589.23 376.93 582.50 378.94 576.14 381.14 C 569.60 383.41 563.47 386.81 558.10 391.16 C 545.97 401.55 536.22 415.35 533.15 431.26 C 530.36 446.05 527.25 461.19 529.39 476.28 C 530.00 485.16 532.24 493.91 535.92 502.02 C 538.94 508.43 540.85 515.34 544.60 521.40 C 547.70 527.04 552.11 532.41 552.77 539.02 C 553.29 542.50 551.08 545.45 549.18 548.11 C 543.56 555.43 536.70 561.67 529.94 567.91 C 528.51 569.06 527.04 570.57 525.05 570.39 C 514.97 570.64 504.90 570.63 494.82 570.73 C 486.40 561.88 477.80 552.82 471.96 542.00 C 469.37 537.72 471.58 532.73 473.75 528.80 C 477.57 522.23 481.99 515.79 483.48 508.20 C 487.46 490.09 491.38 471.65 490.47 453.00 C 489.36 442.34 487.53 431.65 483.51 421.67 C 478.17 409.36 469.89 397.73 458.06 390.93 C 448.81 385.64 438.67 381.44 427.97 380.46 C 422.32 380.08 416.64 380.21 410.98 380.48 C 400.36 381.58 390.48 385.93 380.52 389.49 C 373.74 391.96 366.70 393.58 359.92 396.04 C 352.63 398.47 345.31 401.28 337.56 401.75 C 337.14 396.45 338.84 390.36 334.98 385.96 C 331.96 379.68 324.96 376.87 321.49 370.95 C 320.23 364.28 322.74 357.70 322.58 351.03 C 324.25 332.18 325.04 312.76 319.96 294.33 C 318.68 289.88 317.62 285.37 316.27 280.94 C 312.71 270.97 305.96 262.55 301.77 252.89 C 306.58 252.71 312.08 249.44 311.77 244.04 C 312.38 238.62 309.03 233.97 308.18 228.79 Z" />
<path fill="#020202" d=" M 203.29 257.09 C 210.56 261.64 217.49 266.78 224.98 271.01 C 232.64 274.93 240.52 278.45 248.65 281.28 C 257.08 283.70 265.54 286.06 274.08 288.09 C 264.34 290.77 254.15 291.30 244.13 290.31 C 236.02 288.95 228.24 286.09 221.04 282.14 C 224.31 289.88 227.43 297.79 232.03 304.87 C 234.95 309.58 239.44 313.07 244.09 315.96 C 251.66 320.08 259.39 323.96 267.59 326.68 C 267.69 327.11 267.89 327.99 267.99 328.42 C 261.17 328.58 254.29 329.13 247.51 328.30 C 239.59 325.90 231.60 322.34 226.02 316.02 C 223.06 312.79 221.02 308.88 218.95 305.05 C 218.07 303.24 216.17 302.35 214.50 301.43 C 201.40 294.80 187.08 290.04 172.36 289.19 C 181.55 300.04 187.01 313.33 195.31 324.79 C 204.44 337.49 213.88 350.01 224.21 361.77 C 230.87 370.29 240.55 375.55 249.62 381.08 C 247.61 383.14 244.58 382.43 242.01 382.60 C 236.27 382.92 230.70 381.40 224.99 381.27 C 219.30 380.27 214.23 377.33 208.90 375.24 C 214.84 384.63 221.30 393.92 229.81 401.20 C 240.77 410.89 254.78 415.82 268.11 421.28 C 259.62 425.90 250.30 429.14 240.67 430.21 C 231.73 431.23 223.13 434.24 215.11 438.22 C 208.45 441.53 201.57 444.42 195.16 448.20 C 185.30 453.73 174.28 457.79 162.87 457.85 C 174.50 464.29 187.65 467.41 200.78 468.88 C 206.48 470.45 212.75 470.21 218.04 473.00 C 212.34 475.88 206.07 477.41 199.93 479.03 C 189.65 480.23 179.30 477.69 169.91 473.60 C 163.60 473.32 157.28 474.27 150.98 473.55 C 137.50 473.20 123.64 473.43 110.78 477.98 C 108.32 478.87 105.80 479.81 103.85 481.62 C 114.58 484.38 125.10 487.89 135.56 491.54 C 143.09 494.26 150.89 496.77 157.33 501.69 C 171.56 512.45 189.02 519.20 206.95 519.50 C 213.59 519.92 220.65 519.14 226.91 521.79 C 223.29 526.25 218.64 529.68 213.99 532.98 C 208.11 537.28 200.81 538.77 193.86 540.39 C 202.53 543.98 211.68 546.22 220.44 549.56 C 233.85 554.24 248.20 553.61 262.17 554.21 C 257.63 559.66 252.22 564.29 246.67 568.67 C 238.75 576.44 229.67 582.92 221.92 590.90 C 211.53 601.18 200.77 611.09 189.84 620.80 C 184.67 625.20 179.05 629.02 173.68 633.16 C 180.49 633.22 187.20 634.70 194.01 634.41 C 208.13 633.78 222.02 628.87 233.31 620.34 C 235.78 618.38 238.07 616.17 240.86 614.64 C 238.52 620.30 235.12 625.51 231.17 630.17 C 228.18 633.75 223.86 635.77 219.72 637.70 C 210.77 641.75 200.96 643.94 191.12 643.51 C 183.33 645.08 176.09 648.90 169.96 653.92 C 161.61 660.63 153.66 668.37 149.09 678.23 C 145.50 684.74 143.33 691.86 140.95 698.87 C 145.71 694.32 151.99 691.78 158.11 689.66 C 174.31 687.91 190.57 686.84 206.71 684.58 C 214.95 683.42 223.30 682.57 231.29 680.17 C 242.62 676.23 252.53 669.23 262.20 662.30 C 269.20 657.27 274.66 650.40 282.05 645.89 C 279.91 651.29 276.36 655.97 273.89 661.20 C 271.58 668.68 270.68 676.77 266.66 683.63 C 263.89 688.07 259.04 690.49 254.78 693.24 C 256.85 693.59 258.91 694.10 261.01 694.27 C 264.10 693.41 267.02 692.06 270.07 691.09 C 287.44 686.43 303.40 677.82 319.01 669.09 C 314.95 676.32 311.35 683.82 306.72 690.71 C 302.41 698.42 296.62 705.41 294.03 713.97 C 292.70 718.53 291.24 723.14 291.12 727.93 C 290.51 739.71 297.35 750.25 297.50 761.97 C 298.11 769.32 295.09 776.20 292.05 782.69 C 307.54 774.36 323.60 765.79 334.72 751.73 C 336.09 749.74 337.74 747.95 339.88 746.78 C 339.52 749.21 338.45 751.50 338.38 753.98 C 338.59 760.23 336.15 766.15 333.89 771.86 C 326.54 788.09 315.07 801.92 306.14 817.25 C 303.33 822.43 300.57 827.74 299.18 833.52 C 296.82 840.72 298.99 848.29 298.27 855.67 C 294.10 848.88 290.21 841.17 290.72 832.99 C 291.44 826.71 293.28 820.55 296.08 814.89 C 302.99 802.60 311.70 791.46 319.13 779.51 C 312.26 782.87 305.36 786.17 298.47 789.50 C 293.36 792.05 287.41 792.49 282.52 795.56 C 279.68 797.35 276.86 799.23 273.79 800.63 C 277.98 794.08 282.54 787.71 285.72 780.58 C 288.19 775.04 290.81 769.22 290.55 763.02 C 290.88 756.87 288.70 751.03 287.19 745.18 C 284.71 737.03 283.36 728.50 283.46 719.97 C 284.32 711.92 288.25 704.67 290.75 697.07 C 283.68 699.46 276.60 702.94 268.95 702.42 C 263.92 702.27 259.22 700.19 254.30 699.33 C 249.30 698.15 244.11 698.14 239.00 698.31 C 234.62 698.51 230.33 697.49 225.98 697.21 C 226.20 696.87 226.65 696.18 226.87 695.84 C 233.29 694.75 239.36 692.24 245.14 689.31 C 253.53 685.13 260.31 678.11 265.04 670.10 C 253.67 677.65 242.45 686.37 228.88 689.47 C 210.63 693.07 192.07 694.73 173.58 696.47 C 164.98 697.32 156.24 697.46 147.86 699.80 C 142.96 701.31 138.49 704.86 136.44 709.63 C 135.80 711.05 134.99 712.39 134.03 713.63 C 132.13 695.83 136.73 677.09 148.07 663.05 C 155.91 654.15 165.51 646.74 176.20 641.58 C 172.27 640.13 168.27 638.53 164.05 638.28 C 158.86 638.62 153.64 639.14 148.45 638.55 C 155.15 633.33 163.53 630.63 170.18 625.27 C 184.79 614.00 197.73 600.77 211.32 588.33 C 220.50 579.27 230.28 570.75 241.08 563.66 C 225.92 564.23 211.65 558.47 197.64 553.45 C 188.34 550.05 181.06 542.88 172.01 538.98 C 167.95 537.03 163.60 535.40 160.20 532.35 C 164.87 531.84 169.44 532.98 174.03 533.49 C 181.44 533.36 188.93 534.01 196.26 532.66 C 201.01 531.89 205.72 530.76 210.34 529.42 C 203.59 529.07 196.77 529.86 190.07 528.71 C 174.86 526.56 160.56 519.83 148.47 510.47 C 133.62 501.81 118.14 494.15 102.27 487.53 C 96.56 484.84 90.04 484.89 83.99 486.24 C 81.70 486.13 79.42 485.82 77.16 485.46 C 83.58 481.72 90.05 478.09 96.56 474.52 C 102.35 471.09 107.92 467.02 114.51 465.23 C 126.83 461.79 139.77 461.97 152.45 462.50 C 149.21 459.38 146.26 455.78 142.20 453.68 C 137.96 451.46 134.19 448.46 130.31 445.68 C 127.75 443.77 124.97 442.05 123.02 439.48 C 136.42 441.36 149.30 446.98 163.01 446.67 C 174.86 447.07 185.65 441.24 195.74 435.72 C 209.90 429.22 224.63 422.83 240.44 422.26 C 228.63 417.66 217.96 409.73 211.08 399.00 C 204.45 388.17 199.46 376.35 191.99 366.04 C 187.30 361.07 182.05 356.58 178.06 351.00 C 175.66 347.04 173.87 342.75 172.22 338.44 C 172.85 338.42 174.11 338.37 174.74 338.35 C 180.59 341.56 186.40 345.07 191.03 349.97 C 197.19 355.34 203.90 360.14 210.95 364.28 C 204.12 354.79 196.62 345.78 189.94 336.17 C 179.92 322.81 174.39 306.80 165.24 292.90 C 162.16 288.27 157.84 284.26 152.48 282.46 C 150.73 281.65 148.04 281.42 148.01 278.95 C 159.97 278.12 172.05 276.65 184.04 278.15 C 194.22 278.87 203.47 283.63 212.53 287.94 C 210.50 282.55 209.55 276.86 208.43 271.24 C 207.59 266.22 204.44 262.01 203.29 257.09 Z" />
<path fill="#010101" d=" M 874.07 290.12 C 876.28 288.64 878.57 287.26 881.04 286.23 C 878.41 291.84 874.29 296.62 870.15 301.15 C 864.50 305.67 861.26 312.26 857.06 317.99 C 850.58 328.65 843.62 339.24 833.92 347.27 C 840.18 347.60 846.63 346.80 852.73 348.59 C 856.67 349.87 860.06 352.32 863.48 354.59 C 867.79 357.50 872.33 360.17 876.04 363.87 C 868.76 361.83 861.59 358.86 854.00 358.35 C 845.07 359.32 835.82 362.92 830.16 370.20 C 820.56 381.75 815.27 396.18 805.89 407.89 C 800.51 414.47 794.92 421.09 787.75 425.79 C 780.92 430.86 772.73 433.42 764.78 436.12 C 769.74 436.67 774.67 437.51 779.60 438.28 C 787.08 439.17 794.71 439.75 801.83 442.44 C 811.86 446.13 821.46 450.89 831.46 454.68 C 840.91 458.06 848.58 464.71 856.74 470.32 C 860.51 474.26 865.81 475.97 870.37 478.78 C 882.31 485.78 894.20 493.04 907.22 497.89 C 915.65 501.73 925.05 502.10 933.86 504.65 C 933.75 505.03 933.52 505.79 933.41 506.18 C 928.67 507.70 925.02 511.22 920.98 513.97 C 916.70 517.26 911.73 519.42 906.88 521.70 C 897.20 526.16 887.23 530.21 876.75 532.32 C 872.41 532.86 868.00 532.63 863.69 533.42 C 870.54 538.37 878.58 542.58 882.69 550.32 C 885.12 554.49 887.92 558.54 889.31 563.22 C 884.71 561.28 881.09 557.72 876.90 555.11 C 873.48 553.03 870.50 550.31 867.01 548.39 C 862.03 547.99 857.02 548.13 852.03 548.30 C 839.17 548.93 827.13 553.91 815.13 558.14 C 806.11 562.09 796.80 565.58 787.06 567.20 C 781.64 567.88 776.17 567.51 770.76 567.03 C 775.78 562.10 781.88 558.51 787.81 554.81 C 794.33 550.61 802.08 549.16 809.09 546.01 C 820.88 542.05 832.94 538.62 845.33 537.14 C 840.18 534.61 834.75 532.28 829.01 531.67 C 822.65 531.54 816.36 530.71 810.03 530.29 C 802.36 528.74 794.52 529.30 786.76 529.33 C 791.01 523.02 798.83 520.51 806.00 519.41 C 814.34 518.81 822.71 519.67 831.02 520.37 C 842.02 520.61 852.98 521.80 864.00 521.46 C 879.54 521.76 894.50 517.01 908.95 511.80 C 901.07 508.64 892.64 506.87 885.18 502.72 C 870.40 494.82 856.56 484.82 840.48 479.63 C 831.89 476.92 822.79 478.06 814.02 476.61 C 807.18 476.94 800.50 475.44 793.69 475.32 C 793.58 474.32 793.47 473.33 793.36 472.35 C 797.00 469.24 800.88 466.43 804.85 463.77 C 806.67 462.59 808.62 461.40 810.86 461.31 C 814.69 460.89 818.54 460.56 822.37 460.03 C 820.89 459.24 819.39 458.49 817.80 457.96 C 809.62 455.32 801.80 451.58 793.37 449.74 C 782.61 447.46 771.95 444.54 761.04 443.07 C 753.71 442.59 746.36 441.89 739.01 442.35 C 745.74 438.30 752.78 434.74 759.14 430.09 C 768.15 424.14 778.34 419.79 786.15 412.15 C 792.36 405.94 798.01 399.09 802.40 391.46 C 806.72 384.38 810.51 376.98 814.93 369.96 C 818.19 364.63 823.28 360.83 828.24 357.19 C 822.26 357.17 816.23 357.77 810.53 359.61 C 806.00 361.35 801.64 363.50 797.09 365.19 C 791.82 367.05 787.60 370.84 783.52 374.53 C 781.00 376.79 778.86 379.58 775.73 381.05 C 776.77 373.89 779.20 366.59 784.03 361.05 C 786.45 358.25 789.81 356.54 793.18 355.17 C 803.07 351.00 812.92 346.65 822.15 341.15 C 832.86 334.86 841.41 325.46 848.21 315.19 C 837.41 318.05 826.19 319.91 815.00 319.10 C 796.57 317.02 778.13 321.24 760.74 327.05 C 754.66 329.27 748.38 331.34 743.06 335.12 C 739.06 338.39 737.00 343.64 732.41 346.27 C 732.12 339.81 732.44 332.77 736.43 327.36 C 740.83 321.26 745.69 315.38 751.57 310.64 C 758.53 305.92 766.50 303.00 774.14 299.59 C 767.22 297.77 760.01 298.50 752.95 298.59 C 746.25 298.47 739.66 299.78 733.05 300.63 C 737.23 297.35 741.79 294.34 747.05 293.14 C 751.86 292.03 756.55 290.49 761.33 289.23 C 770.29 287.61 779.69 288.49 788.16 291.89 C 794.85 294.53 801.97 295.98 808.49 299.05 C 803.56 300.97 798.26 301.89 792.98 301.74 C 789.83 301.79 786.46 300.90 783.58 302.59 C 773.56 307.37 763.42 312.41 755.08 319.86 C 768.33 315.04 781.80 310.01 795.98 308.98 C 806.90 307.46 817.87 310.48 828.75 308.68 C 840.13 308.03 851.41 304.40 860.82 297.92 C 865.03 294.98 869.79 292.94 874.07 290.12 Z" />
<path fill="#ffffff" d=" M 551.60 413.74 C 562.88 397.47 584.12 389.18 603.49 393.11 C 620.14 396.27 635.94 402.62 652.32 406.82 C 663.10 410.37 673.45 415.77 684.94 416.74 C 692.69 418.15 700.45 416.20 708.24 416.38 C 698.42 430.00 688.19 443.42 676.52 455.53 C 670.66 461.93 662.85 466.30 654.53 468.64 C 644.44 471.43 634.00 473.23 624.38 477.54 C 605.70 486.13 585.54 492.35 569.17 505.21 C 564.70 508.54 561.43 513.19 556.97 516.52 C 554.41 507.71 550.86 499.27 547.30 490.84 C 543.64 478.61 540.82 465.85 541.60 453.01 C 542.91 439.59 543.88 425.30 551.60 413.74 Z" />
<path fill="#ffffff" d=" M 407.82 395.88 C 416.73 394.07 425.93 393.72 434.98 394.49 C 448.40 397.18 462.01 403.54 469.62 415.41 C 477.15 428.18 478.83 443.44 478.74 458.00 C 479.02 470.90 476.52 483.64 473.88 496.21 C 472.27 502.89 471.18 509.81 468.05 516.00 C 460.23 508.09 452.03 500.31 442.17 494.98 C 428.45 487.80 413.04 485.01 398.65 479.54 C 387.18 475.10 374.95 473.15 363.45 468.81 C 356.49 466.27 350.02 462.41 344.38 457.63 C 335.52 449.71 328.39 440.11 321.53 430.48 C 317.51 424.61 313.31 418.85 309.83 412.63 C 318.37 414.83 327.08 417.12 335.97 416.69 C 346.44 416.40 356.41 412.80 366.21 409.45 C 372.06 407.44 378.10 406.07 383.93 404.02 C 391.90 401.32 399.58 397.72 407.82 395.88 Z" />
<path fill="#020202" d=" M 426.29 406.94 C 435.50 405.19 444.75 409.52 451.78 415.20 C 461.35 422.62 467.57 433.24 473.10 443.80 C 474.51 446.10 472.61 448.67 470.46 449.60 C 466.54 451.28 462.23 451.78 457.99 451.71 C 450.84 451.64 443.64 451.78 436.56 450.65 C 421.12 449.10 407.04 441.90 393.79 434.27 C 391.79 433.20 389.33 431.21 390.62 428.69 C 400.11 418.25 412.34 409.92 426.29 406.94 Z" />
<path fill="#020202" d=" M 580.42 409.62 C 594.75 407.50 608.72 413.20 621.16 419.71 C 625.14 421.95 629.78 423.66 632.52 427.52 C 633.81 430.96 629.88 432.89 627.68 434.65 C 613.90 443.88 598.75 452.25 582.03 454.19 C 573.98 454.96 565.94 453.71 558.00 452.57 C 554.69 452.17 551.46 451.07 548.69 449.21 C 548.24 448.02 548.17 446.69 548.57 445.49 C 552.55 435.60 558.72 426.73 565.83 418.84 C 569.76 414.58 574.73 411.01 580.42 409.62 Z" />
<path fill="#fdfdfd" d=" M 421.63 420.59 C 424.82 420.52 428.02 420.51 431.22 420.55 C 431.04 427.43 434.20 433.72 437.42 439.59 C 437.77 439.62 438.47 439.68 438.82 439.70 C 442.25 434.48 444.16 428.29 443.71 422.02 C 446.52 422.31 449.78 422.99 450.98 425.92 C 454.86 432.00 451.46 439.36 448.09 444.83 C 441.09 444.73 433.85 445.02 427.15 442.70 C 424.00 440.45 421.72 436.83 420.94 433.03 C 420.24 428.88 420.92 424.68 421.63 420.59 Z" />
<path fill="#fbfbfb" d=" M 408.71 422.13 C 410.71 421.65 412.77 421.51 414.81 421.31 C 414.62 427.17 414.44 433.08 415.93 438.82 C 410.60 436.30 405.42 433.46 400.30 430.55 C 399.27 430.00 398.50 429.11 397.74 428.26 C 401.27 426.03 404.49 422.95 408.71 422.13 Z" />
<path fill="#f7f7f7" d=" M 434.53 420.54 C 436.56 420.55 438.61 420.67 440.64 420.90 C 440.92 425.99 440.50 431.09 438.82 435.92 C 436.72 431.01 435.31 425.82 434.53 420.54 Z" />
<path fill="#fcfcfc" d=" M 591.36 421.10 C 594.25 420.66 597.18 420.57 600.10 420.51 C 605.01 427.14 602.80 436.94 598.16 443.16 C 592.37 446.53 585.20 446.26 579.22 443.50 C 572.10 441.50 570.46 432.91 571.35 426.52 C 573.63 425.61 575.93 424.77 578.31 424.16 C 579.69 429.60 581.61 434.90 584.41 439.78 C 585.42 439.73 586.45 439.68 587.47 439.63 C 590.57 433.93 590.67 427.39 591.36 421.10 Z" />
<path fill="#fdfdfd" d=" M 608.33 420.86 C 614.74 423.53 620.68 427.16 627.03 429.97 C 620.29 433.69 613.24 436.82 606.11 439.71 C 608.96 433.84 609.20 427.22 608.33 420.86 Z" />
<path fill="#fcfcfc" d=" M 581.40 423.56 C 583.27 422.56 585.35 422.23 587.44 421.99 C 587.57 426.79 587.39 431.62 586.02 436.26 C 583.89 432.26 582.88 427.81 581.40 423.56 Z" />
<path fill="#fcfcfc" d=" M 451.90 445.34 C 455.59 441.41 457.55 436.25 457.82 430.89 C 460.63 435.47 463.93 439.82 465.96 444.84 C 461.32 445.64 456.58 445.38 451.90 445.34 Z" />
<path fill="#fcfcfc" d=" M 555.97 445.37 C 558.09 440.20 561.06 435.45 564.28 430.90 C 565.05 437.10 567.59 442.95 571.90 447.51 C 566.53 447.41 561.20 446.50 555.97 445.37 Z" />
<path fill="#787878" d=" M 817.80 457.96 C 819.39 458.49 820.89 459.24 822.37 460.03 C 818.54 460.56 814.69 460.89 810.86 461.31 C 813.19 460.23 815.55 459.21 817.80 457.96 Z" />
<path fill="#fcfcfc" d=" M 294.01 507.87 C 303.53 491.71 314.02 475.80 328.10 463.20 C 330.08 465.11 332.05 467.04 333.99 469.00 C 328.93 477.11 323.26 484.84 317.28 492.29 C 311.39 499.77 303.08 505.11 294.01 507.87 Z" />
<path fill="#fdfdfd" d=" M 684.88 467.36 C 696.84 471.04 709.08 474.58 719.82 481.19 C 730.49 488.59 733.28 502.17 741.13 511.88 C 743.68 515.14 747.60 516.77 751.04 518.89 C 741.27 516.05 731.60 512.48 722.99 506.97 C 719.84 504.87 716.03 503.36 714.01 499.96 C 709.76 493.64 705.25 487.48 700.33 481.67 C 695.77 476.29 689.88 472.29 684.88 467.36 Z" />
<path fill="#ffffff" d=" M 328.67 502.79 C 334.68 494.16 341.00 485.76 347.23 477.29 C 364.66 485.79 384.72 484.93 402.57 492.06 C 413.34 496.00 424.53 498.92 434.85 503.99 C 440.77 506.78 445.04 511.89 449.49 516.51 C 453.48 520.62 456.17 526.31 461.75 528.57 C 459.91 534.73 460.00 541.45 462.83 547.32 C 467.33 556.89 474.00 565.21 480.59 573.41 C 483.88 577.11 486.62 581.45 490.75 584.30 C 492.82 585.86 495.50 585.60 497.94 585.64 C 506.63 585.54 515.32 585.36 524.02 585.36 C 528.35 585.35 533.08 584.48 536.20 581.22 C 542.36 574.97 547.84 568.06 552.89 560.89 C 556.38 555.82 559.84 550.51 561.23 544.44 C 561.92 540.83 562.07 537.15 562.65 533.53 C 567.65 525.72 572.27 517.49 578.98 510.97 C 581.18 508.72 584.13 507.44 586.99 506.24 C 602.95 499.78 619.70 495.60 635.88 489.76 C 644.75 486.49 654.18 485.08 663.04 481.78 C 666.73 480.43 670.09 478.30 673.80 477.01 C 678.87 482.69 685.51 486.74 690.31 492.68 C 696.22 499.93 701.59 507.61 706.59 515.50 C 711.29 523.27 716.08 531.24 718.13 540.19 C 719.65 546.78 720.93 553.47 720.80 560.26 C 710.99 557.37 701.58 553.28 691.95 549.85 C 688.62 548.82 685.30 546.29 681.68 547.59 C 678.87 549.87 680.93 554.00 681.11 557.02 C 681.88 569.08 681.88 581.66 677.34 593.06 C 671.34 607.40 661.28 619.49 651.16 631.09 C 645.03 638.93 637.87 645.91 630.03 652.02 C 621.26 658.89 612.81 666.19 603.77 672.71 C 596.04 678.35 588.06 683.63 580.37 689.32 C 565.51 700.56 548.18 708.02 533.47 719.46 C 521.03 728.82 513.26 742.68 505.28 755.72 C 501.42 747.59 496.87 739.74 491.30 732.65 C 486.87 727.09 481.35 722.53 475.60 718.41 C 465.41 710.93 454.78 704.03 445.07 695.93 C 431.79 684.59 419.73 671.94 407.53 659.47 C 401.05 652.27 394.52 645.10 388.38 637.61 C 376.44 624.10 364.29 610.68 354.20 595.70 C 345.04 582.10 342.14 565.06 343.82 548.96 C 344.26 544.78 346.15 540.69 345.49 536.45 C 344.57 533.22 340.49 532.64 337.77 533.84 C 325.31 539.29 312.74 544.50 300.22 549.80 C 308.72 533.55 318.76 518.19 328.67 502.79 Z" />
<path fill="#9e9e9e" d=" M 75.32 485.18 C 75.78 485.25 76.70 485.39 77.16 485.46 C 79.42 485.82 81.70 486.13 83.99 486.24 C 81.21 487.16 78.30 487.51 75.39 487.71 C 75.38 487.08 75.34 485.81 75.32 485.18 Z" />
<path fill="#010101" d=" M 770.65 579.17 C 779.04 578.73 787.85 579.50 795.27 583.76 C 807.95 590.64 816.99 602.41 824.79 614.22 C 833.58 627.17 837.65 642.49 844.57 656.39 C 836.70 650.21 828.66 644.25 820.28 638.80 C 814.43 635.38 808.29 632.49 801.99 630.03 C 806.63 634.70 811.64 639.09 815.37 644.57 C 823.94 657.74 828.08 673.25 836.66 686.41 C 841.93 694.82 850.29 700.85 859.17 705.01 C 864.54 707.19 869.65 710.02 875.25 711.61 C 877.59 712.48 880.44 712.61 882.14 714.69 C 868.41 717.95 854.20 716.35 840.31 715.26 C 827.93 712.69 815.38 710.32 803.77 705.14 C 806.77 709.83 810.34 714.43 811.42 720.02 C 811.79 725.45 810.04 730.75 809.19 736.07 C 808.84 736.28 808.15 736.72 807.80 736.94 C 806.04 728.42 799.20 722.29 792.41 717.49 C 783.24 710.95 773.28 705.14 762.26 702.42 C 757.29 701.07 752.10 701.31 747.00 701.26 C 736.73 701.23 726.47 701.92 716.21 701.53 C 710.59 700.89 705.32 698.60 700.11 696.54 C 704.59 704.96 708.76 713.65 711.17 722.92 C 713.17 731.45 713.60 740.23 713.79 748.96 C 714.72 758.28 713.94 767.66 714.79 776.98 C 715.72 784.19 716.67 791.46 716.24 798.75 C 712.74 793.98 708.26 790.07 704.75 785.32 C 703.45 783.57 702.03 781.92 700.47 780.42 C 700.11 793.74 700.44 807.06 700.63 820.38 C 701.40 826.97 701.04 833.87 704.04 839.99 C 708.63 849.72 715.02 858.75 723.12 865.88 C 725.89 868.54 729.84 869.65 732.33 872.62 C 721.61 871.21 711.04 868.43 700.79 864.99 C 690.27 860.30 682.61 850.97 676.53 841.48 C 668.87 827.63 663.10 812.83 655.31 799.05 C 658.98 809.78 660.10 821.40 658.56 832.64 C 656.87 841.34 657.62 850.29 655.91 859.01 C 652.96 848.82 651.82 837.98 646.65 828.52 C 642.81 819.34 636.22 811.72 629.01 805.00 C 621.78 797.21 612.52 791.85 603.63 786.21 C 597.79 782.04 590.91 779.36 585.81 774.20 C 582.06 770.72 579.34 766.36 576.68 762.05 C 576.72 770.26 577.70 778.68 575.36 786.69 C 571.72 800.69 568.79 815.11 561.98 828.01 C 558.05 836.05 553.67 843.86 549.56 851.80 C 546.30 857.93 542.70 864.02 541.17 870.87 C 540.10 875.97 538.39 880.91 536.91 885.90 C 535.68 885.71 534.55 885.10 534.16 883.86 C 531.83 879.34 530.38 874.34 530.68 869.23 C 529.57 863.78 527.85 858.45 526.76 852.99 C 521.04 859.58 513.79 864.56 508.02 871.08 C 501.20 879.67 499.47 891.24 500.57 901.90 C 501.77 908.28 504.54 914.33 508.38 919.56 C 509.26 920.66 509.66 922.00 510.01 923.36 C 505.86 922.43 502.07 920.45 498.15 918.87 C 494.14 917.15 489.93 915.37 487.06 911.94 C 482.76 907.29 480.77 901.15 479.23 895.14 C 476.79 885.07 474.51 874.55 476.31 864.18 C 476.73 860.01 477.49 855.89 478.28 851.79 C 474.80 857.89 471.43 864.35 465.79 868.77 C 461.93 871.58 459.59 876.11 455.23 878.28 C 450.81 880.46 446.31 882.61 441.52 883.84 C 446.26 877.55 453.07 872.79 456.59 865.58 C 459.25 860.11 458.86 853.91 458.75 848.01 C 458.69 842.16 457.19 836.40 454.89 831.05 C 452.10 825.15 447.36 820.50 444.11 814.89 C 439.64 807.21 436.46 798.87 433.55 790.50 C 431.46 784.44 430.25 778.11 430.15 771.70 C 427.71 773.43 426.12 776.01 424.22 778.26 C 417.94 786.12 409.43 791.78 400.84 796.83 C 394.04 801.17 386.03 803.35 377.99 803.50 C 375.01 803.42 372.88 806.03 370.04 806.62 C 366.92 807.81 363.04 806.95 360.54 809.56 C 351.14 818.43 338.43 822.14 326.25 825.42 C 318.88 827.36 311.60 830.68 306.48 836.50 C 304.37 838.75 303.72 841.86 302.96 844.75 C 302.27 847.40 301.63 850.07 300.91 852.73 C 299.74 847.31 299.22 841.75 299.69 836.22 C 301.09 830.10 305.10 824.84 309.61 820.63 C 318.61 814.27 329.98 813.30 339.89 808.95 C 353.46 803.48 362.63 791.28 370.43 779.45 C 375.05 770.36 378.95 760.91 382.52 751.36 C 383.59 748.69 384.11 745.65 386.28 743.59 C 386.85 749.38 385.79 755.28 387.17 761.00 C 388.51 772.83 387.66 785.30 381.93 795.98 C 389.90 794.54 396.61 789.60 403.26 785.29 C 412.45 779.29 419.28 770.58 426.31 762.33 C 430.92 756.87 433.96 750.35 437.64 744.29 C 438.57 754.10 439.63 763.90 440.78 773.69 C 442.81 785.32 446.79 796.56 451.97 807.16 C 455.32 814.16 460.93 819.82 463.99 826.99 C 468.06 836.56 468.64 847.13 468.46 857.39 C 471.34 850.62 473.41 843.53 475.21 836.41 C 476.67 828.71 477.15 820.87 478.17 813.12 C 478.70 810.23 479.26 807.35 479.88 804.48 C 480.88 807.07 481.90 809.67 482.79 812.31 C 484.25 817.57 484.64 823.06 485.80 828.39 C 487.52 834.80 490.24 841.28 489.17 848.05 C 486.83 862.15 485.77 876.87 489.42 890.84 C 490.54 895.56 491.71 900.44 494.71 904.37 C 490.55 892.44 491.29 878.62 497.73 867.61 C 501.51 861.59 507.16 857.09 512.43 852.43 C 518.08 847.47 521.88 840.88 525.67 834.49 C 528.43 829.94 529.80 824.76 531.39 819.74 C 536.55 804.32 536.61 787.88 538.19 771.87 C 538.90 778.23 539.63 784.58 539.75 790.99 C 541.29 804.64 540.20 818.45 537.64 831.91 C 537.09 835.00 534.85 837.68 535.27 840.94 C 535.52 846.01 535.27 851.10 535.48 856.18 C 544.96 836.39 556.16 817.14 561.55 795.69 C 563.45 787.43 567.38 779.60 567.61 771.01 C 568.66 761.24 569.07 751.43 569.47 741.62 C 575.95 747.52 580.44 755.18 586.96 761.04 C 590.92 765.51 595.52 769.37 600.76 772.27 C 609.15 778.27 618.31 783.15 626.29 789.72 C 635.48 798.10 645.27 806.16 651.95 816.83 C 649.96 804.12 642.13 793.59 636.85 782.16 C 636.06 780.58 635.48 778.90 635.22 777.17 C 644.52 781.94 653.23 787.99 661.13 794.88 C 666.03 798.86 668.62 804.76 671.79 810.07 C 679.76 824.03 686.40 839.38 698.83 850.11 C 696.15 846.07 693.18 842.12 691.73 837.43 C 687.61 823.66 688.78 809.15 688.11 794.99 C 686.20 782.05 690.17 768.96 687.35 756.10 C 686.24 751.04 683.03 746.85 680.33 742.56 C 675.50 734.97 668.45 729.00 664.00 721.17 C 668.99 721.61 673.30 724.47 677.88 726.27 C 681.68 727.73 684.99 730.25 687.43 733.52 C 691.20 738.52 695.17 743.49 697.67 749.29 C 700.40 755.78 700.38 762.91 700.78 769.82 C 704.40 774.68 706.54 780.39 708.78 785.98 C 708.33 779.60 706.42 773.41 706.30 767.00 C 704.64 753.24 704.11 739.21 700.23 725.83 C 695.24 710.32 689.44 695.09 683.52 679.92 C 692.46 682.39 701.56 684.13 710.60 686.20 C 724.63 689.09 739.05 686.40 753.17 688.35 C 772.30 689.47 788.01 702.05 801.81 714.18 C 800.05 709.05 798.19 703.62 794.53 699.53 C 780.71 689.46 767.43 678.31 751.62 671.42 C 747.99 669.59 743.86 668.56 740.80 665.78 C 752.98 664.59 765.89 665.90 776.46 672.55 C 788.40 678.91 798.29 688.47 810.34 694.64 C 819.89 699.05 830.10 701.73 840.21 704.51 C 831.86 697.24 825.87 687.75 821.37 677.72 C 815.37 664.59 810.18 650.60 800.02 639.98 C 795.08 634.48 788.99 630.18 782.78 626.24 C 777.21 622.73 770.84 620.87 764.96 617.98 C 768.03 614.82 772.74 614.76 776.71 613.50 C 781.46 612.07 786.52 612.23 791.18 613.92 C 804.09 617.90 816.24 624.37 826.85 632.73 C 821.42 626.23 816.95 618.99 811.40 612.59 C 804.19 604.81 796.73 597.21 788.57 590.41 C 783.18 585.80 776.83 582.56 770.65 579.17 Z" />
<path fill="#3a3a3a" d=" M 478.75 800.30 C 479.15 800.35 479.95 800.46 480.35 800.51 C 481.33 804.41 482.34 808.31 482.79 812.31 C 481.90 809.67 480.88 807.07 479.88 804.48 C 479.26 807.35 478.70 810.23 478.17 813.12 C 478.40 808.85 478.61 804.57 478.75 800.30 Z" />
<path fill="#4b4b4b" d=" M 298.27 855.67 C 298.99 848.29 296.82 840.72 299.18 833.52 C 299.31 834.19 299.56 835.54 299.69 836.22 C 299.22 841.75 299.74 847.31 300.91 852.73 C 301.63 850.07 302.27 847.40 302.96 844.75 C 302.53 850.19 302.41 855.65 302.33 861.11 C 300.99 859.33 298.47 858.03 298.27 855.67 Z" />
</svg>
